<svg xmlns="http://www.w3.org/2000/svg" xmlns:xlink="http://www.w3.org/1999/xlink" width="400" zoomAndPan="magnify" viewBox="0 0 300 74.999997" height="100" preserveAspectRatio="xMidYMid meet" version="1.0"><defs><g/></defs><g fill="#ffffff" fill-opacity="1"><g transform="translate(0.132353, 50.707802)"><g><path d="M 9.929688 0 L 36.402344 0 L 36.402344 -6.617188 L 9.929688 -6.617188 Z M 3.308594 -6.617188 L 9.929688 -6.617188 L 9.929688 -33.09375 L 3.308594 -33.09375 Z M 3.308594 -6.617188 "/></g></g></g><g fill="#ffffff" fill-opacity="1"><g transform="translate(39.839621, 50.707802)"><g><path d="M 3.308594 0 L 36.402344 0 L 36.402344 -6.617188 L 9.929688 -6.617188 L 9.929688 -13.238281 L 29.785156 -13.238281 L 29.785156 -19.855469 L 9.929688 -19.855469 L 9.929688 -26.476562 L 36.402344 -26.476562 L 36.402344 -33.09375 L 3.308594 -33.09375 Z M 3.308594 0 "/></g></g></g><g fill="#ffffff" fill-opacity="1"><g transform="translate(79.54689, 50.707802)"><g><path d="M 29.785156 -13.238281 L 23.164062 -13.238281 L 23.164062 -6.617188 L 29.785156 -6.617188 Z M 3.308594 -13.238281 L 9.929688 -13.238281 L 9.929688 -33.09375 L 3.308594 -33.09375 Z M 9.929688 -6.617188 L 16.546875 -6.617188 L 16.546875 -13.238281 L 9.929688 -13.238281 Z M 16.546875 0 L 23.164062 0 L 23.164062 -6.617188 L 16.546875 -6.617188 Z M 29.785156 -13.238281 L 36.402344 -13.238281 L 36.402344 -33.09375 L 29.785156 -33.09375 Z M 29.785156 -13.238281 "/></g></g></g><g fill="#ffffff" fill-opacity="1"><g transform="translate(119.254158, 50.707802)"><g><path d="M 3.308594 0 L 36.402344 0 L 36.402344 -6.617188 L 9.929688 -6.617188 L 9.929688 -13.238281 L 29.785156 -13.238281 L 29.785156 -19.855469 L 9.929688 -19.855469 L 9.929688 -26.476562 L 36.402344 -26.476562 L 36.402344 -33.09375 L 3.308594 -33.09375 Z M 3.308594 0 "/></g></g></g><g fill="#ffffff" fill-opacity="1"><g transform="translate(158.961427, 50.707802)"><g><path d="M 9.929688 0 L 36.402344 0 L 36.402344 -6.617188 L 9.929688 -6.617188 Z M 3.308594 -6.617188 L 9.929688 -6.617188 L 9.929688 -33.09375 L 3.308594 -33.09375 Z M 3.308594 -6.617188 "/></g></g></g><g fill="#ffffff" fill-opacity="1"><g transform="translate(198.668695, 50.707802)"><g/></g></g><g fill="#ffffff" fill-opacity="1"><g transform="translate(218.52233, 50.707802)"><g><path d="M 29.785156 -6.617188 L 9.929688 -6.617188 L 9.929688 0 L 29.785156 0 Z M 3.308594 -6.617188 L 9.929688 -6.617188 L 9.929688 -26.476562 L 3.308594 -26.476562 Z M 9.929688 -26.476562 L 29.785156 -26.476562 L 29.785156 -33.09375 L 9.929688 -33.09375 Z M 16.546875 -13.238281 L 23.164062 -13.238281 L 23.164062 -19.855469 L 16.546875 -19.855469 Z M 29.785156 -6.617188 L 36.402344 -6.617188 L 36.402344 -26.476562 L 29.785156 -26.476562 Z M 29.785156 -6.617188 "/></g></g></g><g fill="#ffffff" fill-opacity="1"><g transform="translate(258.229598, 50.707802)"><g><path d="M 3.308594 0 L 36.402344 0 L 36.402344 -6.617188 L 16.546875 -6.617188 L 16.546875 -13.238281 L 9.929688 -13.238281 L 9.929688 -6.617188 L 3.308594 -6.617188 Z M 3.308594 -19.855469 L 9.929688 -19.855469 L 9.929688 -26.476562 L 3.308594 -26.476562 Z M 9.929688 -26.476562 L 29.785156 -26.476562 L 29.785156 -33.09375 L 9.929688 -33.09375 Z M 16.546875 -13.238281 L 29.785156 -13.238281 L 29.785156 -19.855469 L 16.546875 -19.855469 Z M 29.785156 -19.855469 L 36.402344 -19.855469 L 36.402344 -26.476562 L 29.785156 -26.476562 Z M 29.785156 -19.855469 "/></g></g></g></svg>