<svg xmlns="http://www.w3.org/2000/svg" xmlns:xlink="http://www.w3.org/1999/xlink" width="1920" zoomAndPan="magnify" viewBox="0 0 1440 269.999989" height="360" preserveAspectRatio="xMidYMid meet" version="1.0"><defs><clipPath id="fcd3ad5b63"><path d="M 0 109.023438 L 1440 109.023438 L 1440 270 L 0 270 Z M 0 109.023438 " clip-rule="nonzero"/></clipPath></defs><g clip-path="url(#fcd3ad5b63)"><path fill="#5dbd39" d="M 0.0195312 109.023438 L 1439.980469 109.023438 L 1439.980469 274.773438 L 0.0195312 274.773438 L 0.0195312 109.023438 " fill-opacity="1" fill-rule="nonzero"/></g><path fill="#bdcc4c" d="M 105.304688 19.671875 C 97.589844 32.148438 91.699219 45.679688 90.578125 60.425781 C 90.035156 67.570312 90.320312 74.730469 91.324219 81.820312 C 92.300781 88.695312 93.445312 96.726562 98.0625 102.191406 C 99 103.300781 100.875 102.378906 100.863281 101.027344 C 100.800781 94.679688 98.203125 88.5 97.199219 82.257812 C 96.078125 75.277344 95.8125 68.144531 96.277344 61.09375 C 97.203125 47.042969 99.71875 32.816406 106.304688 20.257812 C 106.652344 19.59375 105.699219 19.03125 105.304688 19.671875 Z M 105.304688 19.671875 " fill-opacity="1" fill-rule="nonzero"/><path fill="#bdcc4c" d="M 280.066406 6.300781 C 272.808594 12.546875 267.039062 20.089844 263.421875 28.992188 C 261.644531 33.371094 260.457031 37.917969 259.890625 42.609375 C 259.367188 46.9375 258.675781 52.949219 261.25 56.777344 C 262.058594 57.980469 263.71875 57.714844 264.207031 56.390625 C 265.617188 52.566406 264.828125 47.769531 265.1875 43.75 C 265.585938 39.296875 266.449219 34.863281 267.738281 30.582031 C 270.332031 21.964844 274.742188 13.742188 281.0625 7.300781 C 281.710938 6.644531 280.75 5.714844 280.066406 6.300781 Z M 280.066406 6.300781 " fill-opacity="1" fill-rule="nonzero"/><path fill="#bdcc4c" d="M 361.925781 3.832031 C 359.402344 7.847656 357.074219 11.777344 355.730469 16.363281 C 354.367188 21.015625 353.828125 25.996094 353.980469 30.832031 C 354.132812 35.585938 355.0625 40.414062 356.699219 44.878906 C 358.164062 48.878906 360.59375 54.152344 364.582031 56.207031 C 365.558594 56.710938 366.550781 55.886719 366.351562 54.84375 C 365.976562 52.835938 364.847656 51.023438 364.070312 49.144531 C 363.242188 47.140625 362.28125 45.183594 361.519531 43.152344 C 359.988281 39.0625 359 34.800781 358.578125 30.453125 C 357.757812 21.988281 358.914062 12.046875 363.105469 4.523438 C 363.535156 3.753906 362.394531 3.089844 361.925781 3.832031 Z M 361.925781 3.832031 " fill-opacity="1" fill-rule="nonzero"/><path fill="#bdcc4c" d="M 566.472656 24.398438 C 572.433594 36.5 576.011719 49.40625 577.019531 62.851562 C 577.5 69.222656 577.621094 75.65625 577.191406 82.035156 C 576.785156 88.101562 575.039062 94.09375 575.890625 100.15625 C 576.09375 101.605469 578.054688 101.488281 578.722656 100.527344 C 582.335938 95.289062 582.542969 88.226562 582.90625 82.035156 C 583.308594 75.171875 582.949219 68.335938 581.800781 61.558594 C 579.539062 48.242188 574.570312 35.273438 567.515625 23.789062 C 567.105469 23.121094 566.128906 23.707031 566.472656 24.398438 Z M 566.472656 24.398438 " fill-opacity="1" fill-rule="nonzero"/><path fill="#bdcc4c" d="M 649.484375 12.636719 C 645.835938 19.695312 642.996094 26.921875 642.0625 34.878906 C 641.589844 38.902344 641.636719 42.976562 642.066406 47 C 642.4375 50.511719 642.992188 54.914062 645.671875 57.488281 C 646.296875 58.085938 647.351562 57.824219 647.59375 56.976562 C 648.554688 53.585938 647.441406 49.671875 647.066406 46.246094 C 646.664062 42.597656 646.589844 38.921875 646.691406 35.257812 C 646.898438 27.789062 647.871094 20.109375 650.628906 13.121094 C 650.890625 12.457031 649.808594 12.011719 649.484375 12.636719 Z M 649.484375 12.636719 " fill-opacity="1" fill-rule="nonzero"/><path fill="#6d9826" d="M 746.1875 105.175781 C 740.746094 114.5625 731.453125 121.183594 721.324219 125.125 C 720.65625 125.375 719.902344 125.628906 719.230469 125.878906 L 12.542969 125.878906 C 8.695312 123.953125 5.429688 120.597656 4.507812 116.492188 C 3.585938 111.964844 6.183594 106.683594 10.703125 105.675781 C 5.429688 100.980469 1.578125 94.445312 0.910156 87.402344 C 0.324219 80.363281 3.167969 72.902344 8.945312 68.878906 C 14.804688 64.855469 23.425781 65.019531 28.449219 69.964844 C 23.59375 55.714844 29.539062 38.699219 41.675781 29.8125 C 53.898438 21.011719 71.140625 20.257812 84.453125 27.214844 C 91.566406 30.988281 97.511719 36.6875 101.695312 43.476562 C 105.464844 49.429688 108.058594 56.21875 108.894531 63.175781 C 114.085938 59.570312 121.117188 58.902344 126.808594 61.417969 C 132.585938 64.015625 136.6875 69.714844 137.441406 76.003906 C 147.738281 68.542969 163.476562 69.964844 172.265625 79.1875 C 171.511719 72.566406 170.589844 66.53125 171.425781 60.664062 L 171.425781 60.578125 C 172.011719 55.632812 173.769531 51.023438 177.871094 46.410156 C 186.664062 36.6875 201.980469 33.585938 213.867188 39.203125 C 208.929688 29.058594 214.121094 15.648438 224.164062 10.617188 C 234.210938 5.589844 247.269531 8.691406 254.886719 16.90625 C 262.503906 25.121094 264.765625 37.609375 261.835938 48.425781 C 263.929688 40.542969 275.3125 38.28125 284.019531 38.699219 C 287.03125 38.785156 289.710938 39.285156 291.636719 39.875 C 302.6875 43.394531 311.058594 57.5625 313.652344 68.289062 C 312.898438 62.253906 314.238281 56.050781 317.082031 50.6875 C 319.847656 45.742188 323.863281 41.550781 328.886719 38.867188 C 339.269531 33.417969 352.996094 35.09375 361.703125 42.808594 C 357.097656 31.660156 360.363281 17.742188 369.402344 9.777344 C 378.527344 1.734375 392.757812 0.308594 403.222656 6.34375 C 413.6875 12.378906 419.628906 25.371094 417.285156 37.273438 C 425.324219 25.121094 445.078125 24.699219 455.457031 34.925781 C 461.820312 41.214844 464.582031 50.183594 464.25 59.152344 C 464.082031 64.769531 462.574219 70.46875 459.980469 75.5 C 463.660156 70.300781 467.429688 65.019531 472.03125 60.746094 C 474.378906 58.566406 476.972656 56.636719 479.816406 55.128906 C 488.273438 50.769531 500.160156 51.359375 505.683594 59.152344 C 503.84375 46.832031 512.128906 33.671875 524.183594 30.148438 C 536.15625 26.628906 550.21875 33.082031 555.410156 44.484375 C 563.613281 37.863281 576.253906 40.796875 583.789062 48.339844 C 585.210938 49.765625 586.382812 51.441406 587.386719 53.203125 C 592.242188 62.085938 591.90625 72.734375 588.894531 82.457031 C 590.820312 79.941406 594.167969 78.433594 596.847656 77.59375 C 602.539062 76.003906 609.152344 76.925781 613.671875 80.949219 C 614.007812 74.914062 614.339844 68.710938 616.097656 62.839844 C 617.859375 57.058594 621.121094 51.609375 626.226562 48.257812 C 626.3125 48.257812 626.3125 48.171875 626.394531 48.171875 C 631.585938 44.988281 638.785156 44.566406 643.640625 48.257812 C 644.894531 34.925781 655.191406 23.109375 668.085938 19.25 C 680.890625 15.480469 695.542969 19.503906 705.25 28.722656 C 714.960938 37.945312 719.734375 51.945312 718.476562 65.273438 C 728.105469 60.410156 740.910156 65.019531 746.605469 74.242188 C 752.378906 83.464844 751.542969 95.785156 746.1875 105.175781 Z M 746.1875 105.175781 " fill-opacity="1" fill-rule="nonzero"/><path fill="#bdcc4c" d="M 60.699219 46.917969 C 71.003906 54.453125 78.703125 64.910156 84.933594 75.921875 C 87.972656 81.292969 90.59375 86.824219 92.507812 92.707031 C 94.34375 98.347656 94.558594 104.976562 97.507812 110.132812 C 98.253906 111.445312 100.203125 111.101562 100.628906 109.722656 C 102.484375 103.734375 99.808594 96.441406 97.90625 90.71875 C 95.820312 84.441406 93.09375 78.253906 89.59375 72.636719 C 82.601562 61.414062 72.394531 52.824219 61.25 45.972656 C 60.636719 45.597656 60.140625 46.511719 60.699219 46.917969 Z M 60.699219 46.917969 " fill-opacity="1" fill-rule="nonzero"/><path fill="#bdcc4c" d="M 174.09375 34.4375 C 178.089844 46.414062 179.683594 58.765625 179.015625 71.375 C 178.695312 77.449219 177.808594 83.492188 176.53125 89.4375 C 175.910156 92.324219 175.183594 95.183594 174.3125 98.003906 C 173.445312 100.8125 172.328125 103.402344 173.027344 106.359375 C 173.253906 107.328125 174.550781 107.90625 175.402344 107.328125 C 180.046875 104.164062 181.027344 96.105469 182.070312 90.96875 C 183.382812 84.519531 183.898438 77.949219 183.746094 71.375 C 183.441406 58.523438 180.433594 45.6875 175.300781 33.925781 C 175 33.242188 173.855469 33.726562 174.09375 34.4375 Z M 174.09375 34.4375 " fill-opacity="1" fill-rule="nonzero"/><path fill="#bdcc4c" d="M 197.011719 57.863281 C 189.023438 66.488281 182.351562 75.929688 177.703125 86.789062 C 175.484375 91.96875 173.730469 97.410156 172.476562 102.90625 C 171.285156 108.125 169.316406 115.058594 171.339844 120.242188 C 171.820312 121.46875 173.652344 122.019531 174.378906 120.636719 C 176.753906 116.101562 176.5 110.308594 177.46875 105.339844 C 178.542969 99.816406 180.011719 94.410156 181.894531 89.109375 C 185.703125 78.378906 190.964844 67.859375 198.042969 58.894531 C 198.609375 58.179688 197.664062 57.15625 197.011719 57.863281 Z M 197.011719 57.863281 " fill-opacity="1" fill-rule="nonzero"/><path fill="#bdcc4c" d="M 229.125 60.753906 C 233.296875 69.335938 236.433594 78.308594 238.214844 87.691406 C 239.085938 92.285156 239.675781 96.910156 240.015625 101.570312 C 240.320312 105.796875 239.511719 110.855469 241.726562 114.636719 C 242.34375 115.695312 243.847656 115.640625 244.480469 114.636719 C 246.980469 110.644531 245.671875 105.019531 245.089844 100.632812 C 244.464844 95.894531 243.460938 91.199219 242.097656 86.621094 C 239.335938 77.324219 235.355469 68.339844 230.148438 60.15625 C 229.734375 59.503906 228.792969 60.070312 229.125 60.753906 Z M 229.125 60.753906 " fill-opacity="1" fill-rule="nonzero"/><path fill="#bdcc4c" d="M 322.929688 29.964844 C 327.214844 42.996094 326.902344 57.347656 322.945312 70.402344 C 321.175781 76.230469 318.921875 81.839844 315.820312 87.097656 C 314.238281 89.78125 312.472656 92.332031 310.546875 94.777344 C 308.867188 96.910156 306.996094 98.988281 306.402344 101.703125 C 306.15625 102.828125 307.097656 103.8125 308.238281 103.539062 C 313.8125 102.214844 317.75 95.074219 320.496094 90.519531 C 323.953125 84.78125 326.769531 78.417969 328.246094 71.863281 C 331.464844 57.5625 329.484375 43.121094 324.160156 29.625 C 323.867188 28.878906 322.667969 29.167969 322.929688 29.964844 Z M 322.929688 29.964844 " fill-opacity="1" fill-rule="nonzero"/><path fill="#bdcc4c" d="M 318.890625 39.527344 C 320.851562 50.253906 320.085938 62.050781 317.878906 72.671875 C 316.808594 77.835938 315.3125 82.910156 313.421875 87.832031 C 311.507812 92.816406 308.421875 97.476562 307.476562 102.789062 C 307.28125 103.890625 308.476562 105.242188 309.601562 104.425781 C 314.144531 101.125 316.324219 95.886719 318.359375 90.824219 C 320.585938 85.269531 322.152344 79.46875 323.011719 73.546875 C 324.738281 61.710938 323.410156 50.597656 320.1875 39.167969 C 319.949219 38.324219 318.734375 38.683594 318.890625 39.527344 Z M 318.890625 39.527344 " fill-opacity="1" fill-rule="nonzero"/><path fill="#bdcc4c" d="M 457.734375 24.796875 C 461.757812 34.929688 462.542969 45.570312 461.460938 56.34375 C 460.945312 61.496094 459.714844 66.628906 457.90625 71.476562 C 456.960938 74.011719 455.804688 76.464844 454.480469 78.824219 C 453.269531 80.988281 452.105469 82.882812 452.507812 85.429688 C 452.644531 86.289062 453.664062 86.65625 454.402344 86.507812 C 459.21875 85.515625 461.546875 77.894531 463.109375 73.878906 C 465.238281 68.402344 466.496094 62.660156 466.980469 56.808594 C 467.917969 45.527344 464.6875 33.933594 458.917969 24.296875 C 458.554688 23.691406 457.453125 24.089844 457.734375 24.796875 Z M 457.734375 24.796875 " fill-opacity="1" fill-rule="nonzero"/><path fill="#bdcc4c" d="M 481.914062 35.421875 C 474.082031 42.34375 467.828125 50.796875 463.59375 60.363281 C 461.519531 65.050781 459.925781 69.910156 458.84375 74.921875 C 457.800781 79.761719 456.652344 85.335938 458.492188 90.113281 C 458.929688 91.257812 460.320312 91.207031 460.773438 90.113281 C 462.589844 85.753906 462.554688 80.785156 463.421875 76.1875 C 464.335938 71.355469 465.726562 66.597656 467.46875 62 C 471.007812 52.660156 476.332031 43.925781 482.960938 36.472656 C 483.597656 35.757812 482.628906 34.792969 481.914062 35.421875 Z M 481.914062 35.421875 " fill-opacity="1" fill-rule="nonzero"/><path fill="#bdcc4c" d="M 547.554688 83.148438 C 550.507812 90.609375 554.601562 97.75 560.042969 103.679688 C 562.824219 106.710938 566.101562 109.230469 569.59375 111.390625 C 571.34375 112.472656 573.160156 113.453125 575.050781 114.273438 C 577.125 115.171875 579.074219 115.347656 581.300781 115.480469 C 583.167969 115.59375 583.480469 113.140625 582.179688 112.226562 C 580.570312 111.101562 579.152344 109.949219 577.367188 109.078125 C 575.699219 108.269531 574.054688 107.414062 572.457031 106.484375 C 569.234375 104.609375 566.175781 102.414062 563.238281 100.125 C 557.167969 95.398438 552.128906 89.597656 548.847656 82.601562 C 548.511719 81.886719 547.257812 82.398438 547.554688 83.148438 Z M 547.554688 83.148438 " fill-opacity="1" fill-rule="nonzero"/><path fill="#bdcc4c" d="M 545.550781 102.4375 C 551.441406 106.101562 557.578125 108.921875 564.351562 110.523438 C 567.691406 111.316406 571.167969 111.730469 574.59375 111.816406 C 577.730469 111.894531 581.476562 111.703125 584.144531 109.871094 C 584.785156 109.433594 584.664062 108.523438 583.933594 108.265625 C 581.042969 107.242188 577.628906 107.507812 574.59375 107.464844 C 571.421875 107.414062 568.269531 107.15625 565.121094 106.734375 C 558.714844 105.871094 552.140625 103.984375 546.390625 101 C 545.441406 100.507812 544.636719 101.867188 545.550781 102.4375 Z M 545.550781 102.4375 " fill-opacity="1" fill-rule="nonzero"/><path fill="#bdcc4c" d="M 679.71875 53.28125 C 680.742188 61.417969 679.226562 68.894531 676.152344 76.40625 C 674.722656 79.902344 672.914062 83.3125 670.78125 86.429688 C 668.730469 89.425781 665.015625 92.367188 664.226562 96.019531 C 664.027344 96.929688 664.667969 98.15625 665.761719 98.039062 C 669.980469 97.59375 672.945312 93.339844 675.152344 90.117188 C 677.625 86.503906 679.539062 82.5625 680.84375 78.378906 C 683.328125 70.414062 683.085938 61.128906 681.058594 53.101562 C 680.878906 52.375 679.621094 52.5 679.71875 53.28125 Z M 679.71875 53.28125 " fill-opacity="1" fill-rule="nonzero"/><path fill="#bdcc4c" d="M 670.207031 60.457031 C 670.722656 67.765625 669.816406 74.898438 667.894531 81.949219 C 666.964844 85.351562 665.808594 88.726562 664.347656 91.941406 C 663.589844 93.605469 662.734375 95.25 662.164062 96.988281 C 661.65625 98.535156 660.824219 100.105469 660.859375 101.769531 C 660.878906 102.511719 661.660156 103.285156 662.449219 102.976562 C 664.0625 102.347656 665.101562 101.019531 666.242188 99.773438 C 667.550781 98.34375 668.464844 96.566406 669.25 94.8125 C 670.902344 91.125 672.191406 87.316406 672.96875 83.347656 C 674.460938 75.699219 674.089844 67.726562 672.265625 60.175781 C 671.996094 59.046875 670.125 59.257812 670.207031 60.457031 Z M 670.207031 60.457031 " fill-opacity="1" fill-rule="nonzero"/><path fill="#93c808" d="M 188.503906 115.234375 C 186.410156 118.335938 184.066406 121.183594 181.640625 124.117188 C 181.222656 124.621094 180.804688 125.207031 180.300781 125.878906 L 78.171875 125.878906 C 74.070312 123.867188 70.554688 120.851562 68.378906 116.992188 C 65.199219 111.042969 65.617188 103.75 67.792969 97.378906 C 69.382812 92.683594 71.980469 88.242188 75.914062 85.222656 C 79.847656 82.207031 85.203125 80.78125 89.976562 82.375 C 86.378906 73.402344 86.042969 62.925781 90.5625 54.375 C 92.992188 49.765625 97.007812 45.824219 101.695312 43.476562 C 105.546875 41.550781 109.898438 40.628906 114.167969 41.214844 C 123.710938 42.386719 131.914062 51.691406 130.828125 61.25 C 135.851562 53.453125 146.144531 50.101562 155.1875 51.777344 C 161.296875 52.949219 166.90625 56.21875 171.425781 60.578125 L 171.425781 60.664062 C 173.605469 62.671875 175.527344 64.9375 177.121094 67.453125 C 178.878906 70.050781 180.300781 72.902344 180.804688 75.917969 C 181.222656 79.019531 180.550781 82.289062 178.460938 84.554688 C 179.378906 84.386719 180.382812 84.300781 181.304688 84.46875 C 186.996094 84.886719 192.105469 89.917969 193.359375 95.703125 C 194.867188 102.40625 192.269531 109.449219 188.503906 115.234375 Z M 188.503906 115.234375 " fill-opacity="1" fill-rule="nonzero"/><path fill="#93c808" d="M 362.707031 116.742188 C 360.28125 120.683594 356.59375 123.785156 352.410156 125.878906 L 228.6875 125.878906 C 220.734375 121.183594 213.199219 113.808594 213.617188 103.917969 C 213.953125 97.042969 218.890625 90.589844 225.421875 88.492188 C 231.949219 86.398438 239.652344 88.660156 243.921875 94.027344 C 242.496094 87.402344 241.828125 80.445312 243.667969 73.90625 C 245.511719 67.453125 250.28125 61.417969 256.730469 59.488281 C 263.257812 57.644531 271.210938 60.914062 273.304688 67.367188 C 271.460938 56.808594 275.230469 45.070312 283.851562 38.785156 C 283.933594 38.785156 283.933594 38.699219 284.019531 38.699219 C 289.207031 34.925781 296.074219 33.335938 302.183594 35.09375 C 309.382812 37.191406 314.65625 43.476562 317.082031 50.6875 C 317.671875 52.28125 318.171875 53.871094 318.425781 55.546875 C 320.015625 64.601562 318.171875 73.90625 316.414062 82.960938 C 320.515625 79.105469 324.871094 75.164062 330.226562 73.40625 C 335.585938 71.644531 342.28125 72.648438 345.460938 77.34375 C 348.140625 81.199219 347.636719 86.648438 345.460938 90.839844 C 343.285156 95.03125 339.6875 98.300781 336.171875 101.402344 C 340.859375 99.390625 345.714844 97.210938 350.820312 97.042969 C 356.011719 96.875 361.535156 99.054688 363.878906 103.664062 C 365.972656 107.773438 365.050781 112.800781 362.707031 116.742188 Z M 362.707031 116.742188 " fill-opacity="1" fill-rule="nonzero"/><path fill="#93c808" d="M 531.46875 125.878906 L 425.824219 125.878906 C 422.980469 123.867188 420.382812 120.765625 418.289062 116.15625 C 414.441406 107.855469 416.617188 96.625 424.738281 91.679688 C 431.601562 87.570312 441.8125 89.917969 445.832031 96.707031 C 441.898438 88.242188 441.480469 77.847656 446.25 69.800781 C 449.933594 63.597656 457.132812 59.320312 464.25 59.152344 C 466.925781 59.152344 469.523438 59.570312 472.03125 60.746094 C 472.117188 60.746094 472.117188 60.832031 472.199219 60.832031 C 477.808594 63.511719 481.742188 69.042969 483.753906 74.914062 C 485.761719 80.863281 486.265625 87.152344 486.597656 93.4375 C 488.609375 87.234375 491.203125 80.949219 496.140625 76.671875 C 501.082031 72.398438 508.867188 70.890625 514.054688 74.660156 C 519.164062 78.347656 520.25 85.558594 519.078125 91.679688 C 517.824219 97.796875 514.808594 103.496094 513.21875 109.53125 C 517.40625 108.191406 521.757812 106.933594 526.109375 107.355469 C 530.464844 107.773438 534.984375 110.457031 536.070312 114.730469 C 537.242188 118.835938 534.816406 123.28125 531.46875 125.878906 Z M 531.46875 125.878906 " fill-opacity="1" fill-rule="nonzero"/><path fill="#93c808" d="M 694.703125 117.664062 C 693.449219 120.683594 691.773438 123.449219 689.597656 125.878906 L 561.773438 125.878906 C 559.84375 121.855469 559.84375 116.910156 561.6875 112.886719 C 563.78125 108.359375 568.21875 105.007812 573.15625 104.253906 C 568.550781 101.152344 564.867188 96.539062 563.613281 91.175781 C 562.355469 85.808594 563.863281 79.691406 568.050781 76.085938 C 572.320312 72.566406 579.183594 72.230469 583.199219 76.085938 C 580.691406 66.949219 579.265625 56.46875 583.789062 48.339844 C 584.121094 47.835938 584.375 47.417969 584.707031 46.914062 C 589.3125 40.125 597.933594 36.773438 605.96875 37.527344 C 613.753906 38.28125 620.957031 42.472656 626.226562 48.257812 C 626.480469 48.425781 626.730469 48.675781 626.898438 48.925781 C 632.171875 55.128906 635.519531 62.757812 637.613281 70.636719 C 643.890625 64.183594 654.691406 62.757812 662.476562 67.367188 C 670.175781 71.894531 674.195312 82.039062 671.683594 90.671875 C 678.378906 86.730469 687.671875 89.332031 692.445312 95.535156 C 697.132812 101.652344 697.632812 110.457031 694.703125 117.664062 Z M 694.703125 117.664062 " fill-opacity="1" fill-rule="nonzero"/><path fill="#4e7f1c" d="M 96.746094 98.996094 C 96.683594 98.996094 96.617188 98.984375 96.554688 98.964844 C 96.226562 98.863281 96.042969 98.507812 96.152344 98.175781 C 97.3125 94.519531 100.070312 91.339844 103.523438 89.671875 C 106.660156 88.160156 110.40625 87.878906 113.746094 88.851562 C 113.234375 84.472656 116.21875 80.386719 119.703125 78.457031 C 123.0625 76.597656 127.332031 76.015625 132.71875 76.660156 C 133.0625 76.699219 133.308594 77.007812 133.269531 77.351562 C 133.226562 77.691406 132.910156 77.933594 132.574219 77.898438 C 127.425781 77.277344 123.429688 77.824219 120.304688 79.550781 C 117.039062 81.363281 114.125 85.507812 115.160156 89.632812 C 115.214844 89.855469 115.140625 90.097656 114.96875 90.25 C 114.792969 90.398438 114.546875 90.441406 114.328125 90.363281 C 111.054688 89.109375 107.226562 89.285156 104.070312 90.796875 C 100.917969 92.320312 98.398438 95.21875 97.339844 98.558594 C 97.257812 98.824219 97.007812 98.996094 96.746094 98.996094 Z M 96.746094 98.996094 " fill-opacity="1" fill-rule="nonzero"/><path fill="#4e7f1c" d="M 171.984375 98.316406 C 171.699219 98.316406 171.4375 98.117188 171.375 97.828125 C 170.839844 95.464844 169.230469 93.394531 167.070312 92.300781 C 164.894531 91.195312 162.28125 91.121094 160.070312 92.097656 C 159.925781 92.160156 159.742188 92.171875 159.582031 92.101562 C 159.425781 92.035156 159.300781 91.910156 159.238281 91.75 C 158.160156 89.007812 155.574219 86.949219 152.664062 86.507812 C 149.777344 86.070312 146.671875 87.269531 144.828125 89.570312 C 144.617188 89.839844 144.210938 89.886719 143.949219 89.667969 C 143.679688 89.453125 143.636719 89.058594 143.851562 88.789062 C 145.96875 86.144531 149.511719 84.757812 152.847656 85.269531 C 155.988281 85.746094 158.792969 87.855469 160.15625 90.71875 C 162.578125 89.851562 165.335938 90.019531 167.632812 91.183594 C 170.121094 92.445312 171.976562 94.828125 172.59375 97.550781 C 172.671875 97.886719 172.460938 98.222656 172.121094 98.300781 C 172.078125 98.308594 172.027344 98.316406 171.984375 98.316406 Z M 171.984375 98.316406 " fill-opacity="1" fill-rule="nonzero"/><path fill="#4e7f1c" d="M 268.628906 108.40625 C 268.441406 108.40625 268.261719 108.320312 268.144531 108.171875 C 266.171875 105.746094 263.269531 104.105469 260.179688 103.667969 C 257.074219 103.222656 253.839844 104.003906 251.277344 105.789062 C 250.988281 105.980469 250.601562 105.921875 250.410156 105.636719 C 250.210938 105.351562 250.28125 104.960938 250.5625 104.765625 C 253.386719 102.800781 256.949219 101.941406 260.351562 102.429688 C 263.457031 102.867188 266.390625 104.410156 268.527344 106.707031 C 270.4375 103.699219 273.816406 101.640625 277.378906 101.378906 C 281.210938 101.023438 285.199219 102.945312 287.46875 106.074219 C 287.671875 106.351562 287.609375 106.742188 287.332031 106.949219 C 287.054688 107.152344 286.664062 107.089844 286.460938 106.808594 C 284.570312 104.207031 281.367188 102.601562 278.152344 102.601562 C 277.925781 102.601562 277.699219 102.609375 277.464844 102.625 C 274.03125 102.878906 270.777344 105.015625 269.179688 108.066406 C 269.082031 108.253906 268.898438 108.382812 268.6875 108.402344 C 268.667969 108.402344 268.648438 108.40625 268.628906 108.40625 Z M 268.628906 108.40625 " fill-opacity="1" fill-rule="nonzero"/><path fill="#4e7f1c" d="M 319.1875 94.410156 C 318.875 94.410156 318.605469 94.175781 318.570312 93.859375 C 318.054688 89.710938 316.191406 86.328125 313.460938 84.589844 C 310.652344 82.789062 306.046875 83 304.089844 85.96875 C 303.933594 86.207031 303.648438 86.304688 303.375 86.21875 C 303.109375 86.132812 302.929688 85.875 302.945312 85.59375 C 303.117188 81.886719 300.304688 78.246094 296.683594 77.46875 C 293.050781 76.695312 289.011719 78.882812 287.660156 82.335938 C 287.53125 82.664062 287.152344 82.816406 286.851562 82.691406 C 286.527344 82.566406 286.371094 82.203125 286.496094 81.878906 C 288.058594 77.878906 292.753906 75.359375 296.941406 76.246094 C 300.613281 77.035156 303.554688 80.351562 304.109375 84.042969 C 306.796875 81.597656 311.242188 81.6875 314.136719 83.53125 C 317.179688 85.472656 319.246094 89.179688 319.808594 93.707031 C 319.851562 94.046875 319.605469 94.359375 319.265625 94.402344 C 319.242188 94.40625 319.214844 94.410156 319.1875 94.410156 Z M 319.1875 94.410156 " fill-opacity="1" fill-rule="nonzero"/><path fill="#4e7f1c" d="M 443.808594 109.460938 C 443.785156 109.460938 443.761719 109.457031 443.734375 109.457031 C 443.394531 109.414062 443.148438 109.105469 443.191406 108.761719 C 443.566406 105.476562 446.308594 102.59375 449.5625 102.046875 C 452.335938 101.585938 455.394531 102.894531 457.085938 105.199219 C 457.859375 103.664062 459.152344 102.402344 460.722656 101.699219 C 462.667969 100.824219 465.007812 100.832031 466.980469 101.753906 C 467.289062 101.902344 467.425781 102.269531 467.28125 102.585938 C 467.125 102.90625 466.773438 103.050781 466.441406 102.886719 C 464.804688 102.132812 462.863281 102.109375 461.226562 102.839844 C 459.589844 103.574219 458.3125 105.050781 457.800781 106.78125 C 457.730469 107.027344 457.507812 107.203125 457.25 107.222656 C 456.988281 107.21875 456.742188 107.105469 456.636719 106.871094 C 455.441406 104.367188 452.425781 102.808594 449.773438 103.285156 C 447.046875 103.738281 444.746094 106.15625 444.425781 108.90625 C 444.394531 109.222656 444.125 109.460938 443.808594 109.460938 Z M 443.808594 109.460938 " fill-opacity="1" fill-rule="nonzero"/><path fill="#4e7f1c" d="M 511.421875 117.496094 C 511.382812 117.496094 511.347656 117.492188 511.308594 117.484375 C 510.964844 117.417969 510.746094 117.09375 510.8125 116.757812 C 510.964844 115.894531 510.582031 115.195312 510.234375 114.761719 C 509.527344 113.882812 508.347656 113.300781 507.230469 113.269531 C 505.328125 113.21875 503.382812 114.242188 501.335938 115.492188 C 501.179688 115.59375 500.976562 115.609375 500.820312 115.554688 C 500.644531 115.5 500.503906 115.371094 500.429688 115.203125 C 499.300781 112.554688 497.015625 110.378906 494.320312 109.375 C 491.613281 108.378906 488.464844 108.542969 485.902344 109.816406 C 485.574219 109.964844 485.226562 109.832031 485.0625 109.53125 C 484.910156 109.21875 485.039062 108.84375 485.347656 108.691406 C 488.210938 107.265625 491.734375 107.074219 494.761719 108.203125 C 497.542969 109.238281 499.933594 111.398438 501.277344 114.0625 C 502.929688 113.070312 504.898438 112.015625 507.078125 112.015625 C 507.136719 112.015625 507.199219 112.015625 507.265625 112.015625 C 508.761719 112.058594 510.265625 112.808594 511.210938 113.972656 C 511.933594 114.882812 512.226562 115.949219 512.03125 116.984375 C 511.984375 117.285156 511.714844 117.496094 511.421875 117.496094 Z M 511.421875 117.496094 " fill-opacity="1" fill-rule="nonzero"/><path fill="#4e7f1c" d="M 528.515625 65.332031 C 528.425781 65.332031 528.335938 65.308594 528.253906 65.269531 C 527.9375 65.128906 527.796875 64.753906 527.945312 64.4375 C 529.515625 61.066406 533.0625 58.730469 536.78125 58.632812 C 536.851562 58.632812 536.933594 58.632812 537.007812 58.632812 C 540.253906 58.632812 543.433594 60.328125 545.28125 62.988281 C 547.332031 59.265625 551.1875 56.585938 555.402344 56.039062 C 559.957031 55.425781 564.828125 57.386719 567.734375 61.027344 C 567.945312 61.296875 567.90625 61.691406 567.636719 61.90625 C 567.367188 62.128906 566.96875 62.078125 566.757812 61.808594 C 564.128906 58.511719 559.777344 56.753906 555.5625 57.277344 C 551.390625 57.824219 547.597656 60.671875 545.90625 64.535156 C 545.816406 64.757812 545.597656 64.898438 545.363281 64.910156 C 545.355469 64.910156 545.347656 64.910156 545.335938 64.910156 C 545.109375 64.910156 544.890625 64.78125 544.785156 64.574219 C 543.304688 61.75 540.195312 59.886719 537.007812 59.886719 C 536.941406 59.886719 536.878906 59.886719 536.8125 59.890625 C 533.558594 59.96875 530.449219 62.011719 529.082031 64.96875 C 528.976562 65.195312 528.75 65.332031 528.515625 65.332031 Z M 528.515625 65.332031 " fill-opacity="1" fill-rule="nonzero"/><path fill="#4e7f1c" d="M 587.460938 108.691406 C 587.128906 108.691406 586.851562 108.421875 586.835938 108.082031 C 586.691406 103.601562 589.414062 99.140625 593.464844 97.226562 C 597.207031 95.46875 601.917969 95.957031 605.261719 98.398438 C 606.359375 94.683594 609.4375 91.601562 613.1875 90.578125 C 617.246094 89.464844 621.875 90.824219 624.679688 93.96875 C 624.917969 94.226562 624.894531 94.621094 624.632812 94.851562 C 624.378906 95.078125 623.972656 95.050781 623.753906 94.800781 C 621.25 92.007812 617.148438 90.792969 613.511719 91.78125 C 609.890625 92.78125 606.972656 95.925781 606.246094 99.621094 C 606.207031 99.839844 606.050781 100.019531 605.839844 100.089844 C 605.621094 100.160156 605.382812 100.113281 605.222656 99.964844 C 602.238281 97.316406 597.625 96.660156 594.003906 98.359375 C 590.390625 100.066406 587.957031 104.046875 588.089844 108.042969 C 588.097656 108.390625 587.828125 108.679688 587.488281 108.691406 C 587.480469 108.691406 587.46875 108.691406 587.460938 108.691406 Z M 587.460938 108.691406 " fill-opacity="1" fill-rule="nonzero"/><path fill="#4e7f1c" d="M 649.4375 89.792969 C 649.144531 89.792969 648.882812 89.589844 648.828125 89.296875 C 648.476562 87.628906 647.128906 86.222656 645.476562 85.800781 C 643.824219 85.367188 641.96875 85.957031 640.855469 87.246094 C 640.683594 87.445312 640.40625 87.519531 640.15625 87.421875 C 639.910156 87.328125 639.75 87.085938 639.757812 86.820312 C 639.820312 84.417969 638.339844 82.042969 636.144531 81.050781 C 633.957031 80.058594 631.207031 80.503906 629.433594 82.128906 C 629.171875 82.359375 628.789062 82.34375 628.546875 82.09375 C 628.316406 81.839844 628.335938 81.441406 628.585938 81.207031 C 630.710938 79.253906 634.011719 78.710938 636.664062 79.910156 C 638.894531 80.917969 640.511719 83.113281 640.910156 85.519531 C 642.304688 84.539062 644.117188 84.15625 645.785156 84.585938 C 647.890625 85.125 649.601562 86.914062 650.046875 89.039062 C 650.121094 89.375 649.902344 89.710938 649.566406 89.777344 C 649.519531 89.789062 649.476562 89.792969 649.4375 89.792969 Z M 649.4375 89.792969 " fill-opacity="1" fill-rule="nonzero"/><path fill="#4e7f1c" d="M 724.941406 94.996094 C 724.910156 94.996094 724.875 94.992188 724.84375 94.988281 C 724.5 94.933594 724.273438 94.613281 724.324219 94.269531 C 724.917969 90.496094 723.101562 86.390625 719.914062 84.289062 C 716.742188 82.1875 712.25 82.140625 709.011719 84.1875 C 708.832031 84.304688 708.613281 84.3125 708.410156 84.222656 C 708.222656 84.132812 708.085938 83.949219 708.058594 83.738281 C 707.5 79.363281 703.503906 76.558594 700.257812 75.484375 C 696.304688 74.183594 691.855469 74.429688 687.917969 74.644531 C 687.910156 74.648438 687.894531 74.648438 687.886719 74.648438 C 687.550781 74.648438 687.285156 74.390625 687.257812 74.058594 C 687.242188 73.714844 687.503906 73.417969 687.851562 73.398438 C 691.902344 73.175781 696.476562 72.914062 700.648438 74.296875 C 705.035156 75.742188 708.261719 78.972656 709.132812 82.675781 C 712.691406 80.847656 717.285156 81.050781 720.597656 83.246094 C 724.183594 85.609375 726.226562 90.222656 725.558594 94.46875 C 725.511719 94.777344 725.242188 94.996094 724.941406 94.996094 Z M 724.941406 94.996094 " fill-opacity="1" fill-rule="nonzero"/><path fill="#4e7f1c" d="M 380.261719 97.121094 C 380.214844 97.121094 380.175781 97.117188 380.128906 97.105469 C 379.792969 97.03125 379.578125 96.703125 379.648438 96.363281 C 380.578125 92.03125 383.902344 88.347656 388.113281 86.988281 C 392.050781 85.707031 396.519531 86.539062 399.765625 89.0625 C 401.425781 85.019531 404.972656 81.871094 409.203125 80.734375 C 413.742188 79.523438 418.710938 80.691406 422.226562 83.78125 C 422.484375 84.011719 422.511719 84.40625 422.28125 84.667969 C 422.039062 84.917969 421.65625 84.949219 421.398438 84.71875 C 418.257812 81.945312 413.601562 80.855469 409.527344 81.941406 C 405.46875 83.039062 401.96875 86.320312 400.636719 90.308594 C 400.570312 90.507812 400.398438 90.664062 400.195312 90.714844 C 399.992188 90.777344 399.78125 90.710938 399.617188 90.574219 C 396.679688 87.898438 392.328125 86.949219 388.503906 88.175781 C 384.707031 89.402344 381.707031 92.71875 380.871094 96.625 C 380.808594 96.917969 380.550781 97.121094 380.261719 97.121094 Z M 380.261719 97.121094 " fill-opacity="1" fill-rule="nonzero"/><path fill="#4e7f1c" d="M 390.261719 64.320312 C 389.929688 64.320312 389.652344 64.050781 389.636719 63.714844 C 389.523438 60.351562 386.992188 57.1875 383.738281 56.351562 C 380.484375 55.519531 376.738281 57.078125 375.03125 59.976562 C 374.910156 60.1875 374.667969 60.25 374.429688 60.285156 C 374.1875 60.253906 373.980469 60.089844 373.902344 59.855469 C 372.078125 54.324219 366.550781 50.339844 360.738281 50.339844 C 360.695312 50.339844 360.65625 50.339844 360.613281 50.34375 C 354.746094 50.402344 349.238281 54.511719 347.507812 60.117188 C 347.40625 60.449219 347.054688 60.632812 346.726562 60.53125 C 346.398438 60.429688 346.210938 60.082031 346.3125 59.75 C 348.199219 53.636719 354.207031 49.15625 360.597656 49.089844 C 360.644531 49.089844 360.691406 49.089844 360.738281 49.089844 C 366.675781 49.089844 372.328125 52.898438 374.660156 58.332031 C 376.847656 55.625 380.691406 54.285156 384.046875 55.140625 C 387.8125 56.109375 390.757812 59.773438 390.890625 63.671875 C 390.898438 64.019531 390.628906 64.308594 390.285156 64.320312 C 390.277344 64.320312 390.269531 64.320312 390.261719 64.320312 Z M 390.261719 64.320312 " fill-opacity="1" fill-rule="nonzero"/><path fill="#4e7f1c" d="M 190.894531 82.3125 C 190.835938 82.3125 190.777344 82.304688 190.71875 82.285156 C 190.390625 82.191406 190.199219 81.84375 190.292969 81.511719 C 191.1875 78.429688 193.890625 75.914062 197.027344 75.253906 C 199.648438 74.6875 202.496094 75.445312 204.570312 77.136719 C 204.765625 73.5 206.929688 70.054688 210.195312 68.394531 C 213.957031 66.484375 218.734375 67.140625 221.824219 69.964844 C 222.082031 70.203125 222.101562 70.597656 221.871094 70.851562 C 221.628906 71.105469 221.234375 71.117188 220.988281 70.894531 C 218.296875 68.441406 213.996094 67.859375 210.765625 69.511719 C 207.523438 71.15625 205.460938 74.976562 205.855469 78.59375 C 205.882812 78.871094 205.730469 79.132812 205.476562 79.238281 C 205.234375 79.359375 204.933594 79.277344 204.753906 79.066406 C 202.984375 76.949219 199.976562 75.929688 197.289062 76.476562 C 194.59375 77.046875 192.261719 79.207031 191.496094 81.859375 C 191.414062 82.132812 191.167969 82.3125 190.894531 82.3125 Z M 190.894531 82.3125 " fill-opacity="1" fill-rule="nonzero"/><path fill="#4e7f1c" d="M 26.460938 94.503906 C 26.265625 94.503906 26.074219 94.410156 25.949219 94.238281 C 23.710938 91.097656 24.441406 86.296875 27.515625 83.964844 C 30.023438 82.054688 33.667969 82.109375 36.25 83.816406 C 35.941406 80.894531 37.1875 77.679688 39.597656 75.585938 C 42.1875 73.328125 45.964844 72.242188 49.996094 72.65625 C 53.089844 72.957031 56.238281 74.019531 60.195312 76.105469 C 60.5 76.265625 60.617188 76.640625 60.457031 76.953125 C 60.296875 77.261719 59.929688 77.375 59.609375 77.210938 C 55.808594 75.207031 52.800781 74.1875 49.871094 73.902344 C 46.195312 73.535156 42.753906 74.496094 40.417969 76.53125 C 37.8125 78.796875 36.757812 82.527344 37.914062 85.402344 C 38.027344 85.6875 37.914062 86.019531 37.644531 86.179688 C 37.390625 86.332031 37.039062 86.269531 36.84375 86.027344 C 34.878906 83.566406 30.789062 83.054688 28.273438 84.964844 C 25.757812 86.867188 25.136719 90.945312 26.96875 93.515625 C 27.167969 93.792969 27.101562 94.1875 26.820312 94.386719 C 26.710938 94.460938 26.585938 94.503906 26.460938 94.503906 Z M 26.460938 94.503906 " fill-opacity="1" fill-rule="nonzero"/><path fill="#bdcc4c" d="M 790.09375 19.671875 C 782.378906 32.148438 776.488281 45.679688 775.367188 60.425781 C 774.824219 67.570312 775.109375 74.730469 776.117188 81.820312 C 777.089844 88.695312 778.234375 96.726562 782.851562 102.191406 C 783.789062 103.300781 785.664062 102.378906 785.652344 101.027344 C 785.589844 94.679688 782.996094 88.5 781.992188 82.257812 C 780.871094 75.277344 780.601562 68.144531 781.066406 61.09375 C 781.992188 47.042969 784.507812 32.816406 791.097656 20.257812 C 791.445312 19.59375 790.488281 19.03125 790.09375 19.671875 Z M 790.09375 19.671875 " fill-opacity="1" fill-rule="nonzero"/><path fill="#bdcc4c" d="M 964.855469 6.300781 C 957.601562 12.546875 951.828125 20.089844 948.214844 28.992188 C 946.433594 33.371094 945.246094 37.917969 944.679688 42.609375 C 944.15625 46.9375 943.464844 52.949219 946.039062 56.777344 C 946.851562 57.980469 948.507812 57.714844 948.996094 56.390625 C 950.410156 52.566406 949.617188 47.769531 949.976562 43.75 C 950.375 39.296875 951.238281 34.863281 952.527344 30.582031 C 955.121094 21.964844 959.53125 13.742188 965.855469 7.300781 C 966.5 6.644531 965.539062 5.714844 964.855469 6.300781 Z M 964.855469 6.300781 " fill-opacity="1" fill-rule="nonzero"/><path fill="#bdcc4c" d="M 1046.714844 3.832031 C 1044.195312 7.847656 1041.863281 11.777344 1040.519531 16.363281 C 1039.15625 21.015625 1038.617188 25.996094 1038.773438 30.832031 C 1038.921875 35.585938 1039.851562 40.414062 1041.488281 44.878906 C 1042.953125 48.878906 1045.382812 54.152344 1049.371094 56.207031 C 1050.347656 56.710938 1051.339844 55.886719 1051.144531 54.84375 C 1050.765625 52.835938 1049.640625 51.023438 1048.863281 49.144531 C 1048.03125 47.140625 1047.070312 45.183594 1046.3125 43.152344 C 1044.777344 39.0625 1043.789062 34.800781 1043.367188 30.453125 C 1042.546875 21.988281 1043.703125 12.046875 1047.894531 4.523438 C 1048.328125 3.753906 1047.183594 3.089844 1046.714844 3.832031 Z M 1046.714844 3.832031 " fill-opacity="1" fill-rule="nonzero"/><path fill="#bdcc4c" d="M 1251.261719 24.398438 C 1257.222656 36.5 1260.800781 49.40625 1261.8125 62.851562 C 1262.289062 69.222656 1262.410156 75.65625 1261.980469 82.035156 C 1261.578125 88.101562 1259.828125 94.09375 1260.679688 100.15625 C 1260.882812 101.605469 1262.847656 101.488281 1263.511719 100.527344 C 1267.125 95.289062 1267.335938 88.226562 1267.695312 82.035156 C 1268.097656 75.171875 1267.738281 68.335938 1266.589844 61.558594 C 1264.332031 48.242188 1259.359375 35.273438 1252.304688 23.789062 C 1251.894531 23.121094 1250.921875 23.707031 1251.261719 24.398438 Z M 1251.261719 24.398438 " fill-opacity="1" fill-rule="nonzero"/><path fill="#bdcc4c" d="M 1334.277344 12.636719 C 1330.625 19.695312 1327.785156 26.921875 1326.851562 34.878906 C 1326.378906 38.902344 1326.425781 42.976562 1326.855469 47 C 1327.230469 50.511719 1327.78125 54.914062 1330.460938 57.488281 C 1331.085938 58.085938 1332.144531 57.824219 1332.382812 56.976562 C 1333.34375 53.585938 1332.230469 49.671875 1331.855469 46.246094 C 1331.453125 42.597656 1331.378906 38.921875 1331.480469 35.257812 C 1331.6875 27.789062 1332.660156 20.109375 1335.421875 13.121094 C 1335.679688 12.457031 1334.597656 12.011719 1334.277344 12.636719 Z M 1334.277344 12.636719 " fill-opacity="1" fill-rule="nonzero"/><path fill="#6d9826" d="M 1430.976562 105.175781 C 1425.535156 114.5625 1416.242188 121.183594 1406.113281 125.125 C 1405.445312 125.375 1404.691406 125.628906 1404.023438 125.878906 L 697.332031 125.878906 C 693.484375 123.953125 690.21875 120.597656 689.296875 116.492188 C 688.378906 111.964844 690.972656 106.683594 695.492188 105.675781 C 690.21875 100.980469 686.367188 94.445312 685.699219 87.402344 C 685.113281 80.363281 687.957031 72.902344 693.734375 68.878906 C 699.59375 64.855469 708.214844 65.019531 713.238281 69.964844 C 708.382812 55.714844 714.328125 38.699219 726.464844 29.8125 C 738.6875 21.011719 755.929688 20.257812 769.242188 27.214844 C 776.355469 30.988281 782.300781 36.6875 786.484375 43.476562 C 790.253906 49.429688 792.847656 56.21875 793.683594 63.175781 C 798.875 59.570312 805.90625 58.902344 811.597656 61.417969 C 817.375 64.015625 821.476562 69.714844 822.230469 76.003906 C 832.527344 68.542969 848.265625 69.964844 857.054688 79.1875 C 856.300781 72.566406 855.378906 66.53125 856.21875 60.664062 L 856.21875 60.578125 C 856.804688 55.632812 858.5625 51.023438 862.664062 46.410156 C 871.453125 36.6875 886.773438 33.585938 898.660156 39.203125 C 893.71875 29.058594 898.910156 15.648438 908.957031 10.617188 C 919 5.589844 932.058594 8.691406 939.675781 16.90625 C 947.296875 25.121094 949.554688 37.609375 946.625 48.425781 C 948.71875 40.542969 960.101562 38.28125 968.808594 38.699219 C 971.820312 38.785156 974.5 39.285156 976.425781 39.875 C 987.476562 43.394531 995.847656 57.5625 998.441406 68.289062 C 997.6875 62.253906 999.027344 56.050781 1001.875 50.6875 C 1004.636719 45.742188 1008.65625 41.550781 1013.675781 38.867188 C 1024.058594 33.417969 1037.785156 35.09375 1046.492188 42.808594 C 1041.886719 31.660156 1045.152344 17.742188 1054.191406 9.777344 C 1063.316406 1.734375 1077.550781 0.308594 1088.011719 6.34375 C 1098.476562 12.378906 1104.417969 25.371094 1102.078125 37.273438 C 1110.113281 25.121094 1129.867188 24.699219 1140.25 34.925781 C 1146.609375 41.214844 1149.371094 50.183594 1149.039062 59.152344 C 1148.871094 64.769531 1147.363281 70.46875 1144.769531 75.5 C 1148.453125 70.300781 1152.21875 65.019531 1156.824219 60.746094 C 1159.167969 58.566406 1161.761719 56.636719 1164.609375 55.128906 C 1173.0625 50.769531 1184.949219 51.359375 1190.476562 59.152344 C 1188.632812 46.832031 1196.921875 33.671875 1208.976562 30.148438 C 1220.945312 26.628906 1235.007812 33.082031 1240.199219 44.484375 C 1248.402344 37.863281 1261.042969 40.796875 1268.578125 48.339844 C 1270 49.765625 1271.171875 51.441406 1272.175781 53.203125 C 1277.03125 62.085938 1276.699219 72.734375 1273.683594 82.457031 C 1275.609375 79.941406 1278.957031 78.433594 1281.636719 77.59375 C 1287.328125 76.003906 1293.941406 76.925781 1298.460938 80.949219 C 1298.796875 74.914062 1299.132812 68.710938 1300.890625 62.839844 C 1302.648438 57.058594 1305.910156 51.609375 1311.019531 48.257812 C 1311.101562 48.257812 1311.101562 48.171875 1311.1875 48.171875 C 1316.375 44.988281 1323.574219 44.566406 1328.429688 48.257812 C 1329.6875 34.925781 1339.980469 23.109375 1352.875 19.25 C 1365.683594 15.480469 1380.332031 19.503906 1390.042969 28.722656 C 1399.753906 37.945312 1404.523438 51.945312 1403.269531 65.273438 C 1412.894531 60.410156 1425.703125 65.019531 1431.394531 74.242188 C 1437.171875 83.464844 1436.332031 95.785156 1430.976562 105.175781 Z M 1430.976562 105.175781 " fill-opacity="1" fill-rule="nonzero"/><path fill="#bdcc4c" d="M 745.488281 46.917969 C 755.792969 54.453125 763.492188 64.910156 769.722656 75.921875 C 772.761719 81.292969 775.386719 86.824219 777.296875 92.707031 C 779.132812 98.347656 779.347656 104.976562 782.296875 110.132812 C 783.046875 111.445312 784.992188 111.101562 785.417969 109.722656 C 787.273438 103.734375 784.601562 96.441406 782.699219 90.71875 C 780.613281 84.441406 777.882812 78.253906 774.382812 72.636719 C 767.390625 61.414062 757.183594 52.824219 746.039062 45.972656 C 745.425781 45.597656 744.929688 46.511719 745.488281 46.917969 Z M 745.488281 46.917969 " fill-opacity="1" fill-rule="nonzero"/><path fill="#bdcc4c" d="M 858.882812 34.4375 C 862.882812 46.414062 864.472656 58.765625 863.804688 71.375 C 863.484375 77.449219 862.597656 83.492188 861.320312 89.4375 C 860.703125 92.324219 859.972656 95.183594 859.105469 98.003906 C 858.234375 100.8125 857.121094 103.402344 857.816406 106.359375 C 858.042969 107.328125 859.34375 107.90625 860.191406 107.328125 C 864.835938 104.164062 865.816406 96.105469 866.859375 90.96875 C 868.171875 84.519531 868.691406 77.949219 868.535156 71.375 C 868.230469 58.523438 865.226562 45.6875 860.089844 33.925781 C 859.789062 33.242188 858.644531 33.726562 858.882812 34.4375 Z M 858.882812 34.4375 " fill-opacity="1" fill-rule="nonzero"/><path fill="#bdcc4c" d="M 881.800781 57.863281 C 873.8125 66.488281 867.144531 75.929688 862.492188 86.789062 C 860.273438 91.96875 858.523438 97.410156 857.265625 102.90625 C 856.074219 108.125 854.105469 115.058594 856.128906 120.242188 C 856.609375 121.46875 858.445312 122.019531 859.167969 120.636719 C 861.546875 116.101562 861.289062 110.308594 862.257812 105.339844 C 863.335938 99.816406 864.800781 94.410156 866.683594 89.109375 C 870.492188 78.378906 875.753906 67.859375 882.832031 58.894531 C 883.398438 58.179688 882.453125 57.15625 881.800781 57.863281 Z M 881.800781 57.863281 " fill-opacity="1" fill-rule="nonzero"/><path fill="#bdcc4c" d="M 913.914062 60.753906 C 918.085938 69.335938 921.222656 78.308594 923.003906 87.691406 C 923.878906 92.285156 924.46875 96.910156 924.804688 101.570312 C 925.109375 105.796875 924.300781 110.855469 926.515625 114.636719 C 927.136719 115.695312 928.636719 115.640625 929.269531 114.636719 C 931.773438 110.644531 930.460938 105.019531 929.878906 100.632812 C 929.253906 95.894531 928.25 91.199219 926.890625 86.621094 C 924.125 77.324219 920.148438 68.339844 914.9375 60.15625 C 914.523438 59.503906 913.582031 60.070312 913.914062 60.753906 Z M 913.914062 60.753906 " fill-opacity="1" fill-rule="nonzero"/><path fill="#bdcc4c" d="M 1007.722656 29.964844 C 1012.003906 42.996094 1011.691406 57.347656 1007.734375 70.402344 C 1005.964844 76.230469 1003.710938 81.839844 1000.609375 87.097656 C 999.027344 89.78125 997.261719 92.332031 995.335938 94.777344 C 993.660156 96.910156 991.785156 98.988281 991.191406 101.703125 C 990.949219 102.828125 991.886719 103.8125 993.027344 103.539062 C 998.601562 102.214844 1002.539062 95.074219 1005.285156 90.519531 C 1008.742188 84.78125 1011.558594 78.417969 1013.035156 71.863281 C 1016.257812 57.5625 1014.273438 43.121094 1008.949219 29.625 C 1008.65625 28.878906 1007.460938 29.167969 1007.722656 29.964844 Z M 1007.722656 29.964844 " fill-opacity="1" fill-rule="nonzero"/><path fill="#bdcc4c" d="M 1003.679688 39.527344 C 1005.640625 50.253906 1004.875 62.050781 1002.671875 72.671875 C 1001.597656 77.835938 1000.101562 82.910156 998.210938 87.832031 C 996.296875 92.816406 993.210938 97.476562 992.265625 102.789062 C 992.070312 103.890625 993.265625 105.242188 994.390625 104.425781 C 998.9375 101.125 1001.113281 95.886719 1003.148438 90.824219 C 1005.378906 85.269531 1006.941406 79.46875 1007.804688 73.546875 C 1009.527344 61.710938 1008.203125 50.597656 1004.976562 39.167969 C 1004.738281 38.324219 1003.527344 38.683594 1003.679688 39.527344 Z M 1003.679688 39.527344 " fill-opacity="1" fill-rule="nonzero"/><path fill="#bdcc4c" d="M 1142.523438 24.796875 C 1146.546875 34.929688 1147.332031 45.570312 1146.253906 56.34375 C 1145.734375 61.496094 1144.507812 66.628906 1142.695312 71.476562 C 1141.75 74.011719 1140.59375 76.464844 1139.269531 78.824219 C 1138.058594 80.988281 1136.894531 82.882812 1137.296875 85.429688 C 1137.433594 86.289062 1138.453125 86.65625 1139.191406 86.507812 C 1144.007812 85.515625 1146.339844 77.894531 1147.898438 73.878906 C 1150.027344 68.402344 1151.285156 62.660156 1151.769531 56.808594 C 1152.707031 45.527344 1149.476562 33.933594 1143.710938 24.296875 C 1143.347656 23.691406 1142.242188 24.089844 1142.523438 24.796875 Z M 1142.523438 24.796875 " fill-opacity="1" fill-rule="nonzero"/><path fill="#bdcc4c" d="M 1166.703125 35.421875 C 1158.875 42.34375 1152.621094 50.796875 1148.382812 60.363281 C 1146.308594 65.050781 1144.714844 69.910156 1143.636719 74.921875 C 1142.59375 79.761719 1141.445312 85.335938 1143.28125 90.113281 C 1143.722656 91.257812 1145.109375 91.207031 1145.566406 90.113281 C 1147.378906 85.753906 1147.34375 80.785156 1148.210938 76.1875 C 1149.128906 71.355469 1150.515625 66.597656 1152.257812 62 C 1155.796875 52.660156 1161.121094 43.925781 1167.75 36.472656 C 1168.386719 35.757812 1167.417969 34.792969 1166.703125 35.421875 Z M 1166.703125 35.421875 " fill-opacity="1" fill-rule="nonzero"/><path fill="#bdcc4c" d="M 1232.34375 83.148438 C 1235.296875 90.609375 1239.390625 97.75 1244.832031 103.679688 C 1247.613281 106.710938 1250.890625 109.230469 1254.382812 111.390625 C 1256.136719 112.472656 1257.949219 113.453125 1259.839844 114.273438 C 1261.914062 115.171875 1263.863281 115.347656 1266.089844 115.480469 C 1267.957031 115.59375 1268.269531 113.140625 1266.96875 112.226562 C 1265.363281 111.101562 1263.941406 109.949219 1262.15625 109.078125 C 1260.492188 108.269531 1258.847656 107.414062 1257.246094 106.484375 C 1254.023438 104.609375 1250.96875 102.414062 1248.027344 100.125 C 1241.957031 95.398438 1236.917969 89.597656 1233.636719 82.601562 C 1233.300781 81.886719 1232.050781 82.398438 1232.34375 83.148438 Z M 1232.34375 83.148438 " fill-opacity="1" fill-rule="nonzero"/><path fill="#bdcc4c" d="M 1230.339844 102.4375 C 1236.230469 106.101562 1242.367188 108.921875 1249.140625 110.523438 C 1252.480469 111.316406 1255.957031 111.730469 1259.382812 111.816406 C 1262.519531 111.894531 1266.265625 111.703125 1268.933594 109.871094 C 1269.574219 109.433594 1269.453125 108.523438 1268.726562 108.265625 C 1265.832031 107.242188 1262.417969 107.507812 1259.382812 107.464844 C 1256.210938 107.414062 1253.058594 107.15625 1249.914062 106.734375 C 1243.503906 105.871094 1236.929688 103.984375 1231.179688 101 C 1230.230469 100.507812 1229.425781 101.867188 1230.339844 102.4375 Z M 1230.339844 102.4375 " fill-opacity="1" fill-rule="nonzero"/><path fill="#bdcc4c" d="M 1364.507812 53.28125 C 1365.53125 61.417969 1364.019531 68.894531 1360.941406 76.40625 C 1359.511719 79.902344 1357.703125 83.3125 1355.570312 86.429688 C 1353.519531 89.425781 1349.804688 92.367188 1349.015625 96.019531 C 1348.816406 96.929688 1349.457031 98.15625 1350.554688 98.039062 C 1354.769531 97.59375 1357.734375 93.339844 1359.941406 90.117188 C 1362.417969 86.503906 1364.328125 82.5625 1365.632812 78.378906 C 1368.117188 70.414062 1367.875 61.128906 1365.851562 53.101562 C 1365.667969 52.375 1364.410156 52.5 1364.507812 53.28125 Z M 1364.507812 53.28125 " fill-opacity="1" fill-rule="nonzero"/><path fill="#bdcc4c" d="M 1355 60.457031 C 1355.511719 67.765625 1354.605469 74.898438 1352.683594 81.949219 C 1351.753906 85.351562 1350.597656 88.726562 1349.136719 91.941406 C 1348.378906 93.605469 1347.523438 95.25 1346.953125 96.988281 C 1346.445312 98.535156 1345.613281 100.105469 1345.652344 101.769531 C 1345.667969 102.511719 1346.449219 103.285156 1347.238281 102.976562 C 1348.851562 102.347656 1349.890625 101.019531 1351.03125 99.773438 C 1352.339844 98.34375 1353.253906 96.566406 1354.039062 94.8125 C 1355.691406 91.125 1356.984375 87.316406 1357.757812 83.347656 C 1359.25 75.699219 1358.878906 67.726562 1357.058594 60.175781 C 1356.785156 59.046875 1354.914062 59.257812 1355 60.457031 Z M 1355 60.457031 " fill-opacity="1" fill-rule="nonzero"/><path fill="#93c808" d="M 873.292969 115.234375 C 871.203125 118.335938 868.859375 121.183594 866.429688 124.117188 C 866.011719 124.621094 865.59375 125.207031 865.089844 125.878906 L 762.964844 125.878906 C 758.863281 123.867188 755.34375 120.851562 753.167969 116.992188 C 749.988281 111.042969 750.40625 103.75 752.582031 97.378906 C 754.171875 92.683594 756.769531 88.242188 760.703125 85.222656 C 764.636719 82.207031 769.996094 80.78125 774.765625 82.375 C 771.167969 73.402344 770.832031 62.925781 775.351562 54.375 C 777.78125 49.765625 781.796875 45.824219 786.484375 43.476562 C 790.335938 41.550781 794.6875 40.628906 798.957031 41.214844 C 808.503906 42.386719 816.707031 51.691406 815.617188 61.25 C 820.640625 53.453125 830.9375 50.101562 839.976562 51.777344 C 846.089844 52.949219 851.695312 56.21875 856.21875 60.578125 L 856.21875 60.664062 C 858.394531 62.671875 860.320312 64.9375 861.910156 67.453125 C 863.667969 70.050781 865.089844 72.902344 865.59375 75.917969 C 866.011719 79.019531 865.339844 82.289062 863.25 84.554688 C 864.171875 84.386719 865.175781 84.300781 866.09375 84.46875 C 871.789062 84.886719 876.894531 89.917969 878.148438 95.703125 C 879.65625 102.40625 877.0625 109.449219 873.292969 115.234375 Z M 873.292969 115.234375 " fill-opacity="1" fill-rule="nonzero"/><path fill="#93c808" d="M 1047.496094 116.742188 C 1045.070312 120.683594 1041.386719 123.785156 1037.199219 125.878906 L 913.476562 125.878906 C 905.523438 121.183594 897.988281 113.808594 898.40625 103.917969 C 898.742188 97.042969 903.679688 90.589844 910.210938 88.492188 C 916.742188 86.398438 924.441406 88.660156 928.710938 94.027344 C 927.289062 87.402344 926.617188 80.445312 928.460938 73.90625 C 930.300781 67.453125 935.074219 61.417969 941.519531 59.488281 C 948.046875 57.644531 956 60.914062 958.09375 67.367188 C 956.253906 56.808594 960.019531 45.070312 968.640625 38.785156 C 968.726562 38.785156 968.726562 38.699219 968.808594 38.699219 C 974 34.925781 980.863281 33.335938 986.972656 35.09375 C 994.171875 37.191406 999.445312 43.476562 1001.875 50.6875 C 1002.460938 52.28125 1002.960938 53.871094 1003.214844 55.546875 C 1004.804688 64.601562 1002.960938 73.90625 1001.203125 82.960938 C 1005.308594 79.105469 1009.660156 75.164062 1015.015625 73.40625 C 1020.375 71.644531 1027.070312 72.648438 1030.25 77.34375 C 1032.929688 81.199219 1032.429688 86.648438 1030.25 90.839844 C 1028.074219 95.03125 1024.476562 98.300781 1020.960938 101.402344 C 1025.648438 99.390625 1030.503906 97.210938 1035.609375 97.042969 C 1040.800781 96.875 1046.324219 99.054688 1048.667969 103.664062 C 1050.761719 107.773438 1049.839844 112.800781 1047.496094 116.742188 Z M 1047.496094 116.742188 " fill-opacity="1" fill-rule="nonzero"/><path fill="#93c808" d="M 1216.257812 125.878906 L 1110.613281 125.878906 C 1107.769531 123.867188 1105.171875 120.765625 1103.082031 116.15625 C 1099.230469 107.855469 1101.40625 96.625 1109.527344 91.679688 C 1116.390625 87.570312 1126.605469 89.917969 1130.621094 96.707031 C 1126.6875 88.242188 1126.269531 77.847656 1131.039062 69.800781 C 1134.722656 63.597656 1141.921875 59.320312 1149.039062 59.152344 C 1151.714844 59.152344 1154.3125 59.570312 1156.824219 60.746094 C 1156.90625 60.746094 1156.90625 60.832031 1156.992188 60.832031 C 1162.597656 63.511719 1166.535156 69.042969 1168.542969 74.914062 C 1170.550781 80.863281 1171.054688 87.152344 1171.390625 93.4375 C 1173.398438 87.234375 1175.992188 80.949219 1180.933594 76.671875 C 1185.871094 72.398438 1193.65625 70.890625 1198.847656 74.660156 C 1203.953125 78.347656 1205.039062 85.558594 1203.867188 91.679688 C 1202.613281 97.796875 1199.597656 103.496094 1198.007812 109.53125 C 1202.195312 108.191406 1206.546875 106.933594 1210.898438 107.355469 C 1215.253906 107.773438 1219.773438 110.457031 1220.863281 114.730469 C 1222.035156 118.835938 1219.605469 123.28125 1216.257812 125.878906 Z M 1216.257812 125.878906 " fill-opacity="1" fill-rule="nonzero"/><path fill="#93c808" d="M 1379.492188 117.664062 C 1378.238281 120.683594 1376.5625 123.449219 1374.386719 125.878906 L 1246.5625 125.878906 C 1244.636719 121.855469 1244.636719 116.910156 1246.476562 112.886719 C 1248.570312 108.359375 1253.007812 105.007812 1257.945312 104.253906 C 1253.34375 101.152344 1249.660156 96.539062 1248.402344 91.175781 C 1247.148438 85.808594 1248.652344 79.691406 1252.839844 76.085938 C 1257.109375 72.566406 1263.972656 72.230469 1267.992188 76.085938 C 1265.480469 66.949219 1264.054688 56.46875 1268.578125 48.339844 C 1268.910156 47.835938 1269.164062 47.417969 1269.496094 46.914062 C 1274.101562 40.125 1282.722656 36.773438 1290.761719 37.527344 C 1298.546875 38.28125 1305.746094 42.472656 1311.019531 48.257812 C 1311.269531 48.425781 1311.519531 48.675781 1311.6875 48.925781 C 1316.960938 55.128906 1320.308594 62.757812 1322.402344 70.636719 C 1328.683594 64.183594 1339.480469 62.757812 1347.265625 67.367188 C 1354.96875 71.894531 1358.984375 82.039062 1356.472656 90.671875 C 1363.171875 86.730469 1372.460938 89.332031 1377.234375 95.535156 C 1381.921875 101.652344 1382.425781 110.457031 1379.492188 117.664062 Z M 1379.492188 117.664062 " fill-opacity="1" fill-rule="nonzero"/><path fill="#4e7f1c" d="M 781.535156 98.996094 C 781.472656 98.996094 781.40625 98.984375 781.34375 98.964844 C 781.019531 98.863281 780.835938 98.507812 780.941406 98.175781 C 782.101562 94.519531 784.863281 91.339844 788.316406 89.671875 C 791.449219 88.160156 795.199219 87.878906 798.539062 88.851562 C 798.023438 84.472656 801.011719 80.386719 804.492188 78.457031 C 807.851562 76.597656 812.125 76.015625 817.507812 76.660156 C 817.855469 76.699219 818.097656 77.007812 818.058594 77.351562 C 818.015625 77.691406 817.699219 77.933594 817.363281 77.898438 C 812.214844 77.277344 808.21875 77.824219 805.09375 79.550781 C 801.828125 81.363281 798.914062 85.507812 799.949219 89.632812 C 800.003906 89.855469 799.933594 90.097656 799.757812 90.25 C 799.582031 90.398438 799.339844 90.441406 799.117188 90.363281 C 795.84375 89.109375 792.015625 89.285156 788.859375 90.796875 C 785.707031 92.320312 783.191406 95.21875 782.128906 98.558594 C 782.046875 98.824219 781.796875 98.996094 781.535156 98.996094 Z M 781.535156 98.996094 " fill-opacity="1" fill-rule="nonzero"/><path fill="#4e7f1c" d="M 856.773438 98.316406 C 856.488281 98.316406 856.230469 98.117188 856.164062 97.828125 C 855.628906 95.464844 854.019531 93.394531 851.859375 92.300781 C 849.683594 91.195312 847.074219 91.121094 844.859375 92.097656 C 844.71875 92.160156 844.53125 92.171875 844.371094 92.101562 C 844.21875 92.035156 844.089844 91.910156 844.03125 91.75 C 842.949219 89.007812 840.363281 86.949219 837.453125 86.507812 C 834.570312 86.070312 831.460938 87.269531 829.617188 89.570312 C 829.40625 89.839844 829 89.886719 828.738281 89.667969 C 828.472656 89.453125 828.425781 89.058594 828.640625 88.789062 C 830.757812 86.144531 834.300781 84.757812 837.640625 85.269531 C 840.78125 85.746094 843.582031 87.855469 844.945312 90.71875 C 847.371094 89.851562 850.128906 90.019531 852.421875 91.183594 C 854.910156 92.445312 856.765625 94.828125 857.382812 97.550781 C 857.460938 97.886719 857.25 98.222656 856.910156 98.300781 C 856.867188 98.308594 856.820312 98.316406 856.773438 98.316406 Z M 856.773438 98.316406 " fill-opacity="1" fill-rule="nonzero"/><path fill="#4e7f1c" d="M 953.417969 108.40625 C 953.230469 108.40625 953.050781 108.320312 952.933594 108.171875 C 950.960938 105.746094 948.058594 104.105469 944.96875 103.667969 C 941.867188 103.222656 938.632812 104.003906 936.070312 105.789062 C 935.78125 105.980469 935.394531 105.921875 935.199219 105.636719 C 935 105.351562 935.070312 104.960938 935.351562 104.765625 C 938.175781 102.800781 941.738281 101.941406 945.144531 102.429688 C 948.246094 102.867188 951.179688 104.410156 953.316406 106.707031 C 955.226562 103.699219 958.605469 101.640625 962.167969 101.378906 C 966.003906 101.023438 969.988281 102.945312 972.257812 106.074219 C 972.460938 106.351562 972.402344 106.742188 972.121094 106.949219 C 971.84375 107.152344 971.453125 107.089844 971.25 106.808594 C 969.359375 104.207031 966.15625 102.601562 962.945312 102.601562 C 962.714844 102.601562 962.488281 102.609375 962.257812 102.625 C 958.824219 102.878906 955.570312 105.015625 953.96875 108.066406 C 953.871094 108.253906 953.691406 108.382812 953.476562 108.402344 C 953.457031 108.402344 953.4375 108.40625 953.417969 108.40625 Z M 953.417969 108.40625 " fill-opacity="1" fill-rule="nonzero"/><path fill="#4e7f1c" d="M 1003.976562 94.410156 C 1003.664062 94.410156 1003.398438 94.175781 1003.359375 93.859375 C 1002.84375 89.710938 1000.980469 86.328125 998.25 84.589844 C 995.445312 82.789062 990.835938 83 988.878906 85.96875 C 988.726562 86.207031 988.441406 86.304688 988.164062 86.21875 C 987.898438 86.132812 987.71875 85.875 987.734375 85.59375 C 987.90625 81.886719 985.097656 78.246094 981.472656 77.46875 C 977.839844 76.695312 973.800781 78.882812 972.449219 82.335938 C 972.320312 82.664062 971.941406 82.816406 971.640625 82.691406 C 971.320312 82.566406 971.160156 82.203125 971.285156 81.878906 C 972.847656 77.878906 977.542969 75.359375 981.730469 76.246094 C 985.402344 77.035156 988.347656 80.351562 988.898438 84.042969 C 991.589844 81.597656 996.035156 81.6875 998.925781 83.53125 C 1001.96875 85.472656 1004.035156 89.179688 1004.597656 93.707031 C 1004.640625 94.046875 1004.398438 94.359375 1004.054688 94.402344 C 1004.03125 94.40625 1004.003906 94.410156 1003.976562 94.410156 Z M 1003.976562 94.410156 " fill-opacity="1" fill-rule="nonzero"/><path fill="#4e7f1c" d="M 1128.597656 109.460938 C 1128.574219 109.460938 1128.550781 109.457031 1128.527344 109.457031 C 1128.183594 109.414062 1127.941406 109.105469 1127.980469 108.761719 C 1128.355469 105.476562 1131.097656 102.59375 1134.351562 102.046875 C 1137.125 101.585938 1140.183594 102.894531 1141.875 105.199219 C 1142.648438 103.664062 1143.941406 102.402344 1145.511719 101.699219 C 1147.457031 100.824219 1149.800781 100.832031 1151.769531 101.753906 C 1152.078125 101.902344 1152.214844 102.269531 1152.070312 102.585938 C 1151.914062 102.90625 1151.566406 103.050781 1151.230469 102.886719 C 1149.597656 102.132812 1147.652344 102.109375 1146.015625 102.839844 C 1144.382812 103.574219 1143.105469 105.050781 1142.59375 106.78125 C 1142.519531 107.027344 1142.296875 107.203125 1142.039062 107.222656 C 1141.777344 107.21875 1141.535156 107.105469 1141.429688 106.871094 C 1140.234375 104.367188 1137.214844 102.808594 1134.5625 103.285156 C 1131.835938 103.738281 1129.535156 106.15625 1129.21875 108.90625 C 1129.183594 109.222656 1128.917969 109.460938 1128.597656 109.460938 Z M 1128.597656 109.460938 " fill-opacity="1" fill-rule="nonzero"/><path fill="#4e7f1c" d="M 1196.210938 117.496094 C 1196.171875 117.496094 1196.136719 117.492188 1196.097656 117.484375 C 1195.757812 117.417969 1195.535156 117.09375 1195.601562 116.757812 C 1195.757812 115.894531 1195.375 115.195312 1195.023438 114.761719 C 1194.316406 113.882812 1193.136719 113.300781 1192.023438 113.269531 C 1190.117188 113.21875 1188.175781 114.242188 1186.125 115.492188 C 1185.96875 115.59375 1185.765625 115.609375 1185.613281 115.554688 C 1185.433594 115.5 1185.292969 115.371094 1185.222656 115.203125 C 1184.089844 112.554688 1181.804688 110.378906 1179.113281 109.375 C 1176.402344 108.378906 1173.253906 108.542969 1170.691406 109.816406 C 1170.367188 109.964844 1170.015625 109.832031 1169.855469 109.53125 C 1169.699219 109.21875 1169.828125 108.84375 1170.136719 108.691406 C 1173 107.265625 1176.523438 107.074219 1179.550781 108.203125 C 1182.332031 109.238281 1184.722656 111.398438 1186.066406 114.0625 C 1187.71875 113.070312 1189.6875 112.015625 1191.867188 112.015625 C 1191.925781 112.015625 1191.988281 112.015625 1192.054688 112.015625 C 1193.550781 112.058594 1195.054688 112.808594 1196 113.972656 C 1196.722656 114.882812 1197.015625 115.949219 1196.824219 116.984375 C 1196.773438 117.285156 1196.503906 117.496094 1196.210938 117.496094 Z M 1196.210938 117.496094 " fill-opacity="1" fill-rule="nonzero"/><path fill="#4e7f1c" d="M 1213.304688 65.332031 C 1213.214844 65.332031 1213.125 65.308594 1213.042969 65.269531 C 1212.726562 65.128906 1212.585938 64.753906 1212.734375 64.4375 C 1214.304688 61.066406 1217.851562 58.730469 1221.570312 58.632812 C 1221.644531 58.632812 1221.722656 58.632812 1221.796875 58.632812 C 1225.042969 58.632812 1228.222656 60.328125 1230.070312 62.988281 C 1232.121094 59.265625 1235.976562 56.585938 1240.191406 56.039062 C 1244.746094 55.425781 1249.621094 57.386719 1252.523438 61.027344 C 1252.734375 61.296875 1252.695312 61.691406 1252.425781 61.90625 C 1252.15625 62.128906 1251.757812 62.078125 1251.546875 61.808594 C 1248.921875 58.511719 1244.566406 56.753906 1240.351562 57.277344 C 1236.179688 57.824219 1232.390625 60.671875 1230.699219 64.535156 C 1230.609375 64.757812 1230.386719 64.898438 1230.152344 64.910156 C 1230.144531 64.910156 1230.136719 64.910156 1230.128906 64.910156 C 1229.898438 64.910156 1229.679688 64.78125 1229.574219 64.574219 C 1228.09375 61.75 1224.984375 59.886719 1221.796875 59.886719 C 1221.730469 59.886719 1221.667969 59.886719 1221.601562 59.890625 C 1218.347656 59.96875 1215.238281 62.011719 1213.871094 64.96875 C 1213.765625 65.195312 1213.539062 65.332031 1213.304688 65.332031 Z M 1213.304688 65.332031 " fill-opacity="1" fill-rule="nonzero"/><path fill="#4e7f1c" d="M 1272.253906 108.691406 C 1271.917969 108.691406 1271.640625 108.421875 1271.625 108.082031 C 1271.480469 103.601562 1274.203125 99.140625 1278.257812 97.226562 C 1282 95.46875 1286.707031 95.957031 1290.054688 98.398438 C 1291.152344 94.683594 1294.226562 91.601562 1297.976562 90.578125 C 1302.035156 89.464844 1306.664062 90.824219 1309.472656 93.96875 C 1309.707031 94.226562 1309.683594 94.621094 1309.421875 94.851562 C 1309.171875 95.078125 1308.765625 95.050781 1308.542969 94.800781 C 1306.039062 92.007812 1301.9375 90.792969 1298.300781 91.78125 C 1294.679688 92.78125 1291.761719 95.925781 1291.035156 99.621094 C 1290.996094 99.839844 1290.84375 100.019531 1290.628906 100.089844 C 1290.410156 100.160156 1290.175781 100.113281 1290.011719 99.964844 C 1287.027344 97.316406 1282.414062 96.660156 1278.792969 98.359375 C 1275.179688 100.066406 1272.75 104.046875 1272.878906 108.042969 C 1272.886719 108.390625 1272.617188 108.679688 1272.277344 108.691406 C 1272.269531 108.691406 1272.261719 108.691406 1272.253906 108.691406 Z M 1272.253906 108.691406 " fill-opacity="1" fill-rule="nonzero"/><path fill="#4e7f1c" d="M 1334.226562 89.792969 C 1333.933594 89.792969 1333.675781 89.589844 1333.617188 89.296875 C 1333.269531 87.628906 1331.917969 86.222656 1330.265625 85.800781 C 1328.613281 85.367188 1326.757812 85.957031 1325.644531 87.246094 C 1325.472656 87.445312 1325.195312 87.519531 1324.945312 87.421875 C 1324.699219 87.328125 1324.539062 87.085938 1324.546875 86.820312 C 1324.609375 84.417969 1323.132812 82.042969 1320.933594 81.050781 C 1318.746094 80.058594 1315.996094 80.503906 1314.222656 82.128906 C 1313.960938 82.359375 1313.578125 82.34375 1313.335938 82.09375 C 1313.109375 81.839844 1313.125 81.441406 1313.375 81.207031 C 1315.5 79.253906 1318.800781 78.710938 1321.453125 79.910156 C 1323.683594 80.917969 1325.304688 83.113281 1325.703125 85.519531 C 1327.09375 84.539062 1328.90625 84.15625 1330.574219 84.585938 C 1332.683594 85.125 1334.390625 86.914062 1334.835938 89.039062 C 1334.910156 89.375 1334.691406 89.710938 1334.355469 89.777344 C 1334.308594 89.789062 1334.269531 89.792969 1334.226562 89.792969 Z M 1334.226562 89.792969 " fill-opacity="1" fill-rule="nonzero"/><path fill="#4e7f1c" d="M 1409.730469 94.996094 C 1409.699219 94.996094 1409.667969 94.992188 1409.632812 94.988281 C 1409.292969 94.933594 1409.0625 94.613281 1409.113281 94.269531 C 1409.707031 90.496094 1407.894531 86.390625 1404.703125 84.289062 C 1401.53125 82.1875 1397.039062 82.140625 1393.800781 84.1875 C 1393.625 84.304688 1393.402344 84.3125 1393.199219 84.222656 C 1393.011719 84.132812 1392.875 83.949219 1392.851562 83.738281 C 1392.289062 79.363281 1388.292969 76.558594 1385.050781 75.484375 C 1381.09375 74.183594 1376.644531 74.429688 1372.707031 74.644531 C 1372.699219 74.648438 1372.683594 74.648438 1372.675781 74.648438 C 1372.339844 74.648438 1372.074219 74.390625 1372.046875 74.058594 C 1372.03125 73.714844 1372.292969 73.417969 1372.640625 73.398438 C 1376.695312 73.175781 1381.265625 72.914062 1385.4375 74.296875 C 1389.824219 75.742188 1393.054688 78.972656 1393.925781 82.675781 C 1397.480469 80.847656 1402.074219 81.050781 1405.386719 83.246094 C 1408.976562 85.609375 1411.015625 90.222656 1410.347656 94.46875 C 1410.300781 94.777344 1410.03125 94.996094 1409.730469 94.996094 Z M 1409.730469 94.996094 " fill-opacity="1" fill-rule="nonzero"/><path fill="#4e7f1c" d="M 1065.050781 97.121094 C 1065.003906 97.121094 1064.964844 97.117188 1064.921875 97.105469 C 1064.582031 97.03125 1064.367188 96.703125 1064.441406 96.363281 C 1065.367188 92.03125 1068.691406 88.347656 1072.90625 86.988281 C 1076.84375 85.707031 1081.308594 86.539062 1084.554688 89.0625 C 1086.214844 85.019531 1089.761719 81.871094 1093.992188 80.734375 C 1098.53125 79.523438 1103.5 80.691406 1107.015625 83.78125 C 1107.277344 84.011719 1107.300781 84.40625 1107.074219 84.667969 C 1106.828125 84.917969 1106.445312 84.949219 1106.1875 84.71875 C 1103.046875 81.945312 1098.390625 80.855469 1094.316406 81.941406 C 1090.257812 83.039062 1086.757812 86.320312 1085.425781 90.308594 C 1085.359375 90.507812 1085.1875 90.664062 1084.984375 90.714844 C 1084.78125 90.777344 1084.570312 90.710938 1084.40625 90.574219 C 1081.472656 87.898438 1077.117188 86.949219 1073.296875 88.175781 C 1069.496094 89.402344 1066.5 92.71875 1065.660156 96.625 C 1065.597656 96.917969 1065.339844 97.121094 1065.050781 97.121094 Z M 1065.050781 97.121094 " fill-opacity="1" fill-rule="nonzero"/><path fill="#4e7f1c" d="M 1075.050781 64.320312 C 1074.71875 64.320312 1074.441406 64.050781 1074.425781 63.714844 C 1074.3125 60.351562 1071.78125 57.1875 1068.527344 56.351562 C 1065.273438 55.519531 1061.527344 57.078125 1059.824219 59.976562 C 1059.703125 60.1875 1059.457031 60.25 1059.222656 60.285156 C 1058.976562 60.253906 1058.769531 60.089844 1058.691406 59.855469 C 1056.867188 54.324219 1051.34375 50.339844 1045.527344 50.339844 C 1045.484375 50.339844 1045.445312 50.339844 1045.402344 50.34375 C 1039.539062 50.402344 1034.027344 54.511719 1032.296875 60.117188 C 1032.195312 60.449219 1031.84375 60.632812 1031.515625 60.53125 C 1031.1875 60.429688 1031 60.082031 1031.101562 59.75 C 1032.988281 53.636719 1038.996094 49.15625 1045.386719 49.089844 C 1045.4375 49.089844 1045.480469 49.089844 1045.527344 49.089844 C 1051.464844 49.089844 1057.117188 52.898438 1059.449219 58.332031 C 1061.636719 55.625 1065.480469 54.285156 1068.835938 55.140625 C 1072.605469 56.109375 1075.546875 59.773438 1075.679688 63.671875 C 1075.6875 64.019531 1075.417969 64.308594 1075.078125 64.320312 C 1075.070312 64.320312 1075.058594 64.320312 1075.050781 64.320312 Z M 1075.050781 64.320312 " fill-opacity="1" fill-rule="nonzero"/><path fill="#4e7f1c" d="M 875.683594 82.3125 C 875.628906 82.3125 875.566406 82.304688 875.507812 82.285156 C 875.179688 82.191406 874.988281 81.84375 875.082031 81.511719 C 875.976562 78.429688 878.683594 75.914062 881.820312 75.253906 C 884.4375 74.6875 887.285156 75.445312 889.359375 77.136719 C 889.554688 73.5 891.71875 70.054688 894.984375 68.394531 C 898.746094 66.484375 903.523438 67.140625 906.613281 69.964844 C 906.871094 70.203125 906.890625 70.597656 906.660156 70.851562 C 906.417969 71.105469 906.023438 71.117188 905.777344 70.894531 C 903.089844 68.441406 898.785156 67.859375 895.554688 69.511719 C 892.3125 71.15625 890.25 74.976562 890.644531 78.59375 C 890.675781 78.871094 890.519531 79.132812 890.265625 79.238281 C 890.023438 79.359375 889.722656 79.277344 889.542969 79.066406 C 887.773438 76.949219 884.769531 75.929688 882.078125 76.476562 C 879.382812 77.046875 877.050781 79.207031 876.285156 81.859375 C 876.203125 82.132812 875.957031 82.3125 875.683594 82.3125 Z M 875.683594 82.3125 " fill-opacity="1" fill-rule="nonzero"/><path fill="#4e7f1c" d="M 711.25 94.503906 C 711.054688 94.503906 710.863281 94.410156 710.742188 94.238281 C 708.5 91.097656 709.230469 86.296875 712.308594 83.964844 C 714.8125 82.054688 718.457031 82.109375 721.039062 83.816406 C 720.730469 80.894531 721.976562 77.679688 724.386719 75.585938 C 726.980469 73.328125 730.753906 72.242188 734.785156 72.65625 C 737.878906 72.957031 741.027344 74.019531 744.988281 76.105469 C 745.292969 76.265625 745.40625 76.640625 745.246094 76.953125 C 745.089844 77.261719 744.71875 77.375 744.402344 77.210938 C 740.597656 75.207031 737.589844 74.1875 734.664062 73.902344 C 730.984375 73.535156 727.542969 74.496094 725.210938 76.53125 C 722.601562 78.796875 721.546875 82.527344 722.703125 85.402344 C 722.816406 85.6875 722.703125 86.019531 722.433594 86.179688 C 722.179688 86.332031 721.828125 86.269531 721.632812 86.027344 C 719.667969 83.566406 715.578125 83.054688 713.0625 84.964844 C 710.550781 86.867188 709.925781 90.945312 711.757812 93.515625 C 711.957031 93.792969 711.890625 94.1875 711.609375 94.386719 C 711.5 94.460938 711.375 94.503906 711.25 94.503906 Z M 711.25 94.503906 " fill-opacity="1" fill-rule="nonzero"/></svg>