<svg xmlns="http://www.w3.org/2000/svg" xmlns:xlink="http://www.w3.org/1999/xlink" width="1920" zoomAndPan="magnify" viewBox="0 0 1440 809.999993" height="1080" preserveAspectRatio="xMidYMid meet" version="1.0"><defs><clipPath id="d6db3cb4eb"><path d="M 0 629.390625 L 1440 629.390625 L 1440 810 L 0 810 Z M 0 629.390625 " clip-rule="nonzero"/></clipPath><clipPath id="72c9e32df2"><path d="M 732 513 L 1440 513 L 1440 647.988281 L 732 647.988281 Z M 732 513 " clip-rule="nonzero"/></clipPath><clipPath id="1e0d7de226"><path d="M 803 555 L 943 555 L 943 647.988281 L 803 647.988281 Z M 803 555 " clip-rule="nonzero"/></clipPath><clipPath id="b3dd54c8c2"><path d="M 964 548 L 1130 548 L 1130 647.988281 L 964 647.988281 Z M 964 548 " clip-rule="nonzero"/></clipPath><clipPath id="4b3fa1d720"><path d="M 1185 575 L 1316 575 L 1316 647.988281 L 1185 647.988281 Z M 1185 575 " clip-rule="nonzero"/></clipPath><clipPath id="db5cd94030"><path d="M 1341 551 L 1440 551 L 1440 647.988281 L 1341 647.988281 Z M 1341 551 " clip-rule="nonzero"/></clipPath><clipPath id="7b2eb2bb3d"><path d="M 0 513 L 804 513 L 804 647.988281 L 0 647.988281 Z M 0 513 " clip-rule="nonzero"/></clipPath><clipPath id="36edd7797d"><path d="M 58 555 L 198 555 L 198 647.988281 L 58 647.988281 Z M 58 555 " clip-rule="nonzero"/></clipPath><clipPath id="7c63ab23b6"><path d="M 219 548 L 385 548 L 385 647.988281 L 219 647.988281 Z M 219 548 " clip-rule="nonzero"/></clipPath><clipPath id="1bf566d8ee"><path d="M 440 575 L 571 575 L 571 647.988281 L 440 647.988281 Z M 440 575 " clip-rule="nonzero"/></clipPath><clipPath id="4412dea60f"><path d="M 596 551 L 745 551 L 745 647.988281 L 596 647.988281 Z M 596 551 " clip-rule="nonzero"/></clipPath></defs><g clip-path="url(#d6db3cb4eb)"><path fill="#5dbd39" d="M -90 629.390625 L 1553.992188 629.390625 L 1553.992188 810.140625 L -90 810.140625 L -90 629.390625 " fill-opacity="1" fill-rule="nonzero"/></g><path fill="#bdcc4c" d="M 846.554688 532.167969 C 838.15625 545.757812 831.742188 560.496094 830.519531 576.5625 C 829.929688 584.339844 830.238281 592.140625 831.335938 599.863281 C 832.398438 607.351562 833.644531 616.097656 838.667969 622.050781 C 839.691406 623.261719 841.730469 622.253906 841.71875 620.785156 C 841.648438 613.867188 838.824219 607.140625 837.730469 600.339844 C 836.511719 592.738281 836.222656 584.964844 836.726562 577.285156 C 837.734375 561.984375 840.472656 546.484375 847.644531 532.804688 C 848.023438 532.085938 846.984375 531.46875 846.554688 532.167969 Z M 846.554688 532.167969 " fill-opacity="1" fill-rule="nonzero"/><path fill="#bdcc4c" d="M 1036.824219 517.605469 C 1028.921875 524.40625 1022.640625 532.625 1018.703125 542.320312 C 1016.765625 547.089844 1015.472656 552.042969 1014.855469 557.15625 C 1014.289062 561.863281 1013.535156 568.414062 1016.339844 572.582031 C 1017.21875 573.894531 1019.023438 573.605469 1019.554688 572.164062 C 1021.09375 568 1020.230469 562.773438 1020.621094 558.398438 C 1021.058594 553.546875 1021.996094 548.714844 1023.398438 544.050781 C 1026.222656 534.667969 1031.027344 525.707031 1037.910156 518.691406 C 1038.613281 517.976562 1037.566406 516.964844 1036.824219 517.605469 Z M 1036.824219 517.605469 " fill-opacity="1" fill-rule="nonzero"/><path fill="#bdcc4c" d="M 1125.949219 514.917969 C 1123.199219 519.289062 1120.664062 523.570312 1119.203125 528.566406 C 1117.71875 533.628906 1117.128906 539.058594 1117.296875 544.324219 C 1117.460938 549.503906 1118.476562 554.761719 1120.253906 559.625 C 1121.851562 563.980469 1124.496094 569.726562 1128.835938 571.964844 C 1129.902344 572.515625 1130.980469 571.613281 1130.765625 570.476562 C 1130.355469 568.289062 1129.128906 566.316406 1128.28125 564.269531 C 1127.378906 562.085938 1126.335938 559.957031 1125.503906 557.746094 C 1123.835938 553.289062 1122.761719 548.644531 1122.300781 543.910156 C 1121.410156 534.691406 1122.667969 523.863281 1127.230469 515.667969 C 1127.699219 514.828125 1126.457031 514.105469 1125.949219 514.917969 Z M 1125.949219 514.917969 " fill-opacity="1" fill-rule="nonzero"/><path fill="#bdcc4c" d="M 1348.644531 537.316406 C 1355.132812 550.5 1359.03125 564.558594 1360.128906 579.199219 C 1360.648438 586.140625 1360.78125 593.148438 1360.316406 600.097656 C 1359.871094 606.707031 1357.972656 613.234375 1358.894531 619.835938 C 1359.117188 621.417969 1361.253906 621.289062 1361.980469 620.238281 C 1365.914062 614.535156 1366.140625 606.84375 1366.535156 600.097656 C 1366.976562 592.621094 1366.582031 585.175781 1365.332031 577.792969 C 1362.871094 563.289062 1357.460938 549.160156 1349.777344 536.652344 C 1349.332031 535.925781 1348.269531 536.5625 1348.644531 537.316406 Z M 1348.644531 537.316406 " fill-opacity="1" fill-rule="nonzero"/><path fill="#bdcc4c" d="M 1439.023438 524.503906 C 1435.046875 532.195312 1431.957031 540.066406 1430.941406 548.730469 C 1430.425781 553.113281 1430.476562 557.550781 1430.945312 561.933594 C 1431.351562 565.761719 1431.953125 570.554688 1434.867188 573.359375 C 1435.550781 574.011719 1436.699219 573.722656 1436.960938 572.804688 C 1438.007812 569.109375 1436.796875 564.84375 1436.386719 561.113281 C 1435.953125 557.140625 1435.867188 553.136719 1435.980469 549.144531 C 1436.207031 541.007812 1437.265625 532.644531 1440.269531 525.03125 C 1440.554688 524.308594 1439.375 523.824219 1439.023438 524.503906 Z M 1439.023438 524.503906 " fill-opacity="1" fill-rule="nonzero"/><g clip-path="url(#72c9e32df2)"><path fill="#6d9826" d="M 1544.304688 625.300781 C 1538.378906 635.527344 1528.261719 642.742188 1517.234375 647.03125 C 1516.507812 647.304688 1515.6875 647.582031 1514.957031 647.855469 L 745.5625 647.855469 C 741.371094 645.753906 737.816406 642.101562 736.8125 637.628906 C 735.8125 632.695312 738.636719 626.945312 743.558594 625.847656 C 737.816406 620.734375 733.625 613.613281 732.894531 605.945312 C 732.257812 598.273438 735.355469 590.148438 741.644531 585.765625 C 748.023438 581.382812 757.410156 581.566406 762.878906 586.953125 C 757.59375 571.429688 764.0625 552.894531 777.28125 543.214844 C 790.585938 533.628906 809.359375 532.804688 823.851562 540.386719 C 831.597656 544.496094 838.070312 550.703125 842.625 558.097656 C 846.726562 564.582031 849.550781 571.976562 850.464844 579.554688 C 856.113281 575.628906 863.769531 574.898438 869.96875 577.636719 C 876.253906 580.46875 880.722656 586.679688 881.542969 593.527344 C 892.753906 585.398438 909.886719 586.953125 919.457031 596.996094 C 918.636719 589.78125 917.632812 583.207031 918.542969 576.816406 L 918.542969 576.726562 C 919.183594 571.339844 921.097656 566.316406 925.5625 561.292969 C 935.132812 550.703125 951.808594 547.324219 964.753906 553.441406 C 959.375 542.394531 965.023438 527.785156 975.960938 522.304688 C 986.898438 516.828125 1001.117188 520.207031 1009.410156 529.15625 C 1017.703125 538.101562 1020.164062 551.707031 1016.976562 563.484375 C 1019.253906 554.902344 1031.648438 552.4375 1041.125 552.894531 C 1044.40625 552.984375 1047.324219 553.535156 1049.421875 554.171875 C 1061.449219 558.007812 1070.566406 573.4375 1073.390625 585.125 C 1072.570312 578.550781 1074.027344 571.796875 1077.125 565.953125 C 1080.132812 560.5625 1084.507812 556 1089.976562 553.078125 C 1101.277344 547.140625 1116.226562 548.96875 1125.703125 557.367188 C 1120.691406 545.226562 1124.246094 530.066406 1134.085938 521.394531 C 1144.023438 512.628906 1159.515625 511.074219 1170.90625 517.648438 C 1182.300781 524.222656 1188.769531 538.375 1186.21875 551.34375 C 1194.96875 538.101562 1216.476562 537.644531 1227.777344 548.785156 C 1234.707031 555.632812 1237.714844 565.402344 1237.347656 575.171875 C 1237.167969 581.289062 1235.527344 587.5 1232.699219 592.980469 C 1236.710938 587.316406 1240.8125 581.566406 1245.824219 576.90625 C 1248.375 574.535156 1251.203125 572.433594 1254.300781 570.789062 C 1263.503906 566.042969 1276.445312 566.683594 1282.460938 575.171875 C 1280.457031 561.75 1289.480469 547.414062 1302.605469 543.582031 C 1315.636719 539.746094 1330.949219 546.777344 1336.597656 559.195312 C 1345.53125 551.980469 1359.292969 555.175781 1367.496094 563.394531 C 1369.042969 564.945312 1370.320312 566.773438 1371.414062 568.691406 C 1376.699219 578.371094 1376.335938 589.964844 1373.054688 600.558594 C 1375.148438 597.816406 1378.796875 596.175781 1381.710938 595.261719 C 1387.910156 593.527344 1395.109375 594.53125 1400.03125 598.914062 C 1400.394531 592.339844 1400.761719 585.582031 1402.675781 579.191406 C 1404.589844 572.890625 1408.140625 566.957031 1413.703125 563.304688 C 1413.792969 563.304688 1413.792969 563.210938 1413.882812 563.210938 C 1419.535156 559.742188 1427.371094 559.285156 1432.660156 563.304688 C 1434.027344 548.785156 1445.234375 535.910156 1459.273438 531.710938 C 1473.214844 527.601562 1489.164062 531.984375 1499.738281 542.027344 C 1510.308594 552.074219 1515.503906 567.320312 1514.136719 581.839844 C 1524.617188 576.542969 1538.5625 581.566406 1544.757812 591.609375 C 1551.046875 601.652344 1550.136719 615.074219 1544.304688 625.300781 Z M 1544.304688 625.300781 " fill-opacity="1" fill-rule="nonzero"/></g><path fill="#bdcc4c" d="M 797.988281 561.847656 C 809.207031 570.054688 817.59375 581.441406 824.375 593.4375 C 827.683594 599.289062 830.539062 605.316406 832.621094 611.71875 C 834.621094 617.867188 834.855469 625.085938 838.0625 630.703125 C 838.878906 632.132812 841 631.757812 841.464844 630.257812 C 843.484375 623.734375 840.574219 615.792969 838.5 609.554688 C 836.230469 602.71875 833.257812 595.980469 829.449219 589.859375 C 821.835938 577.636719 810.722656 568.28125 798.589844 560.816406 C 797.921875 560.40625 797.382812 561.402344 797.988281 561.847656 Z M 797.988281 561.847656 " fill-opacity="1" fill-rule="nonzero"/><path fill="#bdcc4c" d="M 921.445312 548.25 C 925.800781 561.296875 927.535156 574.75 926.808594 588.484375 C 926.457031 595.101562 925.492188 601.6875 924.101562 608.160156 C 923.425781 611.304688 922.632812 614.417969 921.6875 617.488281 C 920.742188 620.550781 919.527344 623.371094 920.285156 626.59375 C 920.535156 627.648438 921.945312 628.277344 922.871094 627.648438 C 927.929688 624.199219 928.996094 615.421875 930.132812 609.828125 C 931.558594 602.800781 932.125 595.644531 931.953125 588.484375 C 931.625 574.488281 928.351562 560.503906 922.761719 547.695312 C 922.433594 546.949219 921.1875 547.480469 921.445312 548.25 Z M 921.445312 548.25 " fill-opacity="1" fill-rule="nonzero"/><path fill="#bdcc4c" d="M 946.398438 573.769531 C 937.703125 583.164062 930.4375 593.445312 925.378906 605.273438 C 922.960938 610.914062 921.054688 616.847656 919.6875 622.828125 C 918.386719 628.515625 916.246094 636.070312 918.449219 641.710938 C 918.972656 643.050781 920.96875 643.652344 921.757812 642.144531 C 924.34375 637.203125 924.066406 630.890625 925.121094 625.480469 C 926.292969 619.464844 927.890625 613.578125 929.9375 607.800781 C 934.085938 596.117188 939.816406 584.65625 947.519531 574.894531 C 948.136719 574.109375 947.109375 573 946.398438 573.769531 Z M 946.398438 573.769531 " fill-opacity="1" fill-rule="nonzero"/><path fill="#bdcc4c" d="M 981.363281 576.917969 C 985.902344 586.265625 989.320312 596.039062 991.257812 606.261719 C 992.207031 611.261719 992.851562 616.300781 993.21875 621.378906 C 993.550781 625.976562 992.667969 631.492188 995.078125 635.605469 C 995.753906 636.757812 997.390625 636.703125 998.078125 635.605469 C 1000.804688 631.261719 999.375 625.132812 998.742188 620.355469 C 998.0625 615.195312 996.96875 610.082031 995.488281 605.09375 C 992.476562 594.964844 988.148438 585.175781 982.476562 576.265625 C 982.027344 575.558594 981 576.171875 981.363281 576.917969 Z M 981.363281 576.917969 " fill-opacity="1" fill-rule="nonzero"/><path fill="#bdcc4c" d="M 1083.492188 543.378906 C 1088.15625 557.574219 1087.816406 573.207031 1083.507812 587.425781 C 1081.582031 593.777344 1079.125 599.886719 1075.75 605.609375 C 1074.027344 608.53125 1072.105469 611.3125 1070.007812 613.976562 C 1068.183594 616.296875 1066.140625 618.5625 1065.496094 621.519531 C 1065.230469 622.746094 1066.253906 623.816406 1067.496094 623.519531 C 1073.5625 622.078125 1077.851562 614.300781 1080.839844 609.339844 C 1084.605469 603.089844 1087.671875 596.15625 1089.277344 589.019531 C 1092.785156 573.4375 1090.625 557.710938 1084.832031 543.007812 C 1084.511719 542.195312 1083.207031 542.511719 1083.492188 543.378906 Z M 1083.492188 543.378906 " fill-opacity="1" fill-rule="nonzero"/><path fill="#bdcc4c" d="M 1079.09375 553.796875 C 1081.230469 565.480469 1080.394531 578.328125 1077.992188 589.898438 C 1076.824219 595.523438 1075.199219 601.046875 1073.140625 606.410156 C 1071.054688 611.839844 1067.695312 616.914062 1066.664062 622.703125 C 1066.453125 623.902344 1067.753906 625.375 1068.976562 624.488281 C 1073.925781 620.890625 1076.296875 615.183594 1078.511719 609.671875 C 1080.941406 603.621094 1082.640625 597.304688 1083.582031 590.851562 C 1085.457031 577.957031 1084.015625 565.855469 1080.503906 553.40625 C 1080.242188 552.484375 1078.925781 552.878906 1079.09375 553.796875 Z M 1079.09375 553.796875 " fill-opacity="1" fill-rule="nonzero"/><path fill="#bdcc4c" d="M 1230.253906 537.75 C 1234.636719 548.789062 1235.492188 560.378906 1234.316406 572.113281 C 1233.753906 577.726562 1232.414062 583.316406 1230.445312 588.597656 C 1229.414062 591.359375 1228.15625 594.027344 1226.714844 596.597656 C 1225.394531 598.957031 1224.128906 601.019531 1224.566406 603.796875 C 1224.714844 604.730469 1225.824219 605.132812 1226.628906 604.96875 C 1231.871094 603.886719 1234.410156 595.585938 1236.109375 591.210938 C 1238.425781 585.25 1239.792969 578.992188 1240.324219 572.621094 C 1241.34375 560.332031 1237.828125 547.703125 1231.546875 537.207031 C 1231.152344 536.542969 1229.949219 536.980469 1230.253906 537.75 Z M 1230.253906 537.75 " fill-opacity="1" fill-rule="nonzero"/><path fill="#bdcc4c" d="M 1256.582031 549.324219 C 1248.054688 556.863281 1241.246094 566.070312 1236.636719 576.492188 C 1234.375 581.597656 1232.644531 586.890625 1231.464844 592.351562 C 1230.332031 597.621094 1229.082031 603.691406 1231.082031 608.894531 C 1231.558594 610.144531 1233.070312 610.089844 1233.566406 608.894531 C 1235.542969 604.148438 1235.503906 598.734375 1236.449219 593.726562 C 1237.445312 588.460938 1238.957031 583.28125 1240.855469 578.273438 C 1244.707031 568.101562 1250.503906 558.585938 1257.722656 550.46875 C 1258.414062 549.6875 1257.359375 548.636719 1256.582031 549.324219 Z M 1256.582031 549.324219 " fill-opacity="1" fill-rule="nonzero"/><path fill="#bdcc4c" d="M 1328.046875 601.308594 C 1331.261719 609.4375 1335.71875 617.214844 1341.644531 623.675781 C 1344.671875 626.976562 1348.242188 629.71875 1352.042969 632.070312 C 1353.949219 633.25 1355.925781 634.320312 1357.980469 635.210938 C 1360.242188 636.191406 1362.363281 636.378906 1364.785156 636.527344 C 1366.820312 636.648438 1367.160156 633.976562 1365.746094 632.984375 C 1363.996094 631.757812 1362.445312 630.5 1360.503906 629.554688 C 1358.691406 628.671875 1356.902344 627.742188 1355.160156 626.726562 C 1351.648438 624.6875 1348.324219 622.292969 1345.121094 619.800781 C 1338.515625 614.652344 1333.027344 608.335938 1329.453125 600.714844 C 1329.085938 599.9375 1327.726562 600.496094 1328.046875 601.308594 Z M 1328.046875 601.308594 " fill-opacity="1" fill-rule="nonzero"/><path fill="#bdcc4c" d="M 1325.863281 622.320312 C 1332.277344 626.308594 1338.957031 629.382812 1346.335938 631.128906 C 1349.96875 631.988281 1353.753906 632.441406 1357.484375 632.535156 C 1360.898438 632.621094 1364.976562 632.410156 1367.882812 630.417969 C 1368.582031 629.941406 1368.449219 628.953125 1367.65625 628.671875 C 1364.503906 627.554688 1360.789062 627.84375 1357.484375 627.796875 C 1354.03125 627.742188 1350.597656 627.460938 1347.175781 627 C 1340.195312 626.0625 1333.039062 624.003906 1326.777344 620.753906 C 1325.746094 620.21875 1324.871094 621.703125 1325.863281 622.320312 Z M 1325.863281 622.320312 " fill-opacity="1" fill-rule="nonzero"/><g clip-path="url(#1e0d7de226)"><path fill="#93c808" d="M 937.136719 636.257812 C 934.859375 639.636719 932.308594 642.742188 929.664062 645.9375 C 929.207031 646.484375 928.753906 647.125 928.207031 647.855469 L 817.015625 647.855469 C 812.550781 645.664062 808.722656 642.375 806.351562 638.175781 C 802.890625 631.691406 803.34375 623.75 805.714844 616.808594 C 807.445312 611.695312 810.269531 606.859375 814.554688 603.570312 C 818.839844 600.285156 824.671875 598.730469 829.867188 600.464844 C 825.949219 590.695312 825.582031 579.28125 830.503906 569.96875 C 833.148438 564.945312 837.523438 560.65625 842.625 558.097656 C 846.820312 556 851.558594 554.992188 856.207031 555.632812 C 866.59375 556.910156 875.527344 567.046875 874.34375 577.457031 C 879.8125 568.964844 891.019531 565.3125 900.863281 567.136719 C 907.515625 568.417969 913.625 571.976562 918.542969 576.726562 L 918.542969 576.816406 C 920.914062 579.007812 923.011719 581.472656 924.742188 584.210938 C 926.65625 587.042969 928.207031 590.148438 928.753906 593.433594 C 929.207031 596.8125 928.476562 600.375 926.199219 602.839844 C 927.203125 602.65625 928.296875 602.566406 929.300781 602.75 C 935.496094 603.203125 941.054688 608.683594 942.421875 614.984375 C 944.0625 622.289062 941.238281 629.957031 937.136719 636.257812 Z M 937.136719 636.257812 " fill-opacity="1" fill-rule="nonzero"/></g><g clip-path="url(#b3dd54c8c2)"><path fill="#93c808" d="M 1126.796875 637.902344 C 1124.152344 642.191406 1120.144531 645.570312 1115.585938 647.855469 L 980.882812 647.855469 C 972.226562 642.742188 964.023438 634.707031 964.476562 623.933594 C 964.84375 616.445312 970.21875 609.414062 977.328125 607.132812 C 984.4375 604.847656 992.820312 607.3125 997.46875 613.15625 C 995.921875 605.945312 995.191406 598.363281 997.199219 591.242188 C 999.203125 584.210938 1004.398438 577.636719 1011.414062 575.539062 C 1018.523438 573.53125 1027.183594 577.089844 1029.460938 584.121094 C 1027.457031 572.617188 1031.554688 559.832031 1040.945312 552.984375 C 1041.035156 552.984375 1041.035156 552.894531 1041.125 552.894531 C 1046.777344 548.785156 1054.25 547.050781 1060.902344 548.96875 C 1068.742188 551.25 1074.484375 558.097656 1077.125 565.953125 C 1077.765625 567.6875 1078.3125 569.421875 1078.585938 571.246094 C 1080.316406 581.109375 1078.3125 591.242188 1076.398438 601.105469 C 1080.863281 596.90625 1085.601562 592.613281 1091.433594 590.695312 C 1097.269531 588.777344 1104.558594 589.875 1108.023438 594.988281 C 1110.9375 599.1875 1110.390625 605.121094 1108.023438 609.6875 C 1105.652344 614.253906 1101.734375 617.8125 1097.90625 621.191406 C 1103.011719 619 1108.296875 616.625 1113.855469 616.445312 C 1119.507812 616.261719 1125.519531 618.636719 1128.074219 623.65625 C 1130.351562 628.132812 1129.347656 633.609375 1126.796875 637.902344 Z M 1126.796875 637.902344 " fill-opacity="1" fill-rule="nonzero"/></g><g clip-path="url(#4b3fa1d720)"><path fill="#93c808" d="M 1310.535156 647.855469 L 1195.515625 647.855469 C 1192.417969 645.664062 1189.589844 642.285156 1187.3125 637.261719 C 1183.121094 628.222656 1185.492188 615.988281 1194.332031 610.601562 C 1201.804688 606.125 1212.921875 608.683594 1217.296875 616.078125 C 1213.015625 606.859375 1212.558594 595.535156 1217.753906 586.769531 C 1221.761719 580.011719 1229.601562 575.355469 1237.347656 575.171875 C 1240.265625 575.171875 1243.089844 575.628906 1245.824219 576.90625 C 1245.914062 576.90625 1245.914062 577 1246.007812 577 C 1252.113281 579.921875 1256.398438 585.949219 1258.582031 592.339844 C 1260.769531 598.820312 1261.316406 605.671875 1261.683594 612.519531 C 1263.871094 605.761719 1266.695312 598.914062 1272.070312 594.257812 C 1277.449219 589.601562 1285.925781 587.957031 1291.574219 592.066406 C 1297.136719 596.082031 1298.320312 603.933594 1297.042969 610.601562 C 1295.675781 617.265625 1292.394531 623.476562 1290.664062 630.050781 C 1295.222656 628.589844 1299.960938 627.21875 1304.699219 627.675781 C 1309.441406 628.132812 1314.359375 631.054688 1315.546875 635.710938 C 1316.820312 640.183594 1314.179688 645.023438 1310.535156 647.855469 Z M 1310.535156 647.855469 " fill-opacity="1" fill-rule="nonzero"/></g><g clip-path="url(#db5cd94030)"><path fill="#93c808" d="M 1488.253906 638.90625 C 1486.886719 642.191406 1485.0625 645.207031 1482.695312 647.855469 L 1343.527344 647.855469 C 1341.429688 643.472656 1341.429688 638.085938 1343.433594 633.703125 C 1345.710938 628.769531 1350.542969 625.117188 1355.921875 624.296875 C 1350.90625 620.917969 1346.898438 615.898438 1345.53125 610.054688 C 1344.164062 604.207031 1345.804688 597.542969 1350.359375 593.617188 C 1355.007812 589.78125 1362.480469 589.417969 1366.855469 593.617188 C 1364.121094 583.664062 1362.574219 572.25 1367.496094 563.394531 C 1367.859375 562.847656 1368.132812 562.390625 1368.496094 561.84375 C 1373.511719 554.445312 1382.898438 550.792969 1391.644531 551.617188 C 1400.121094 552.4375 1407.960938 557.003906 1413.703125 563.304688 C 1413.976562 563.484375 1414.25 563.761719 1414.429688 564.035156 C 1420.171875 570.789062 1423.820312 579.101562 1426.097656 587.683594 C 1432.933594 580.652344 1444.691406 579.101562 1453.164062 584.121094 C 1461.550781 589.050781 1465.925781 600.101562 1463.191406 609.503906 C 1470.480469 605.214844 1480.597656 608.042969 1485.792969 614.800781 C 1490.898438 621.46875 1491.445312 631.054688 1488.253906 638.90625 Z M 1488.253906 638.90625 " fill-opacity="1" fill-rule="nonzero"/></g><path fill="#4e7f1c" d="M 837.234375 618.570312 C 837.167969 618.570312 837.097656 618.558594 837.027344 618.535156 C 836.671875 618.425781 836.472656 618.039062 836.589844 617.679688 C 837.855469 613.695312 840.855469 610.230469 844.617188 608.417969 C 848.03125 606.769531 852.109375 606.464844 855.746094 607.519531 C 855.1875 602.75 858.4375 598.300781 862.230469 596.203125 C 865.886719 594.175781 870.539062 593.539062 876.402344 594.242188 C 876.777344 594.285156 877.042969 594.621094 877 594.996094 C 876.953125 595.367188 876.609375 595.628906 876.242188 595.589844 C 870.640625 594.914062 866.285156 595.507812 862.886719 597.390625 C 859.328125 599.363281 856.15625 603.882812 857.28125 608.371094 C 857.34375 608.617188 857.265625 608.878906 857.074219 609.046875 C 856.882812 609.207031 856.617188 609.253906 856.378906 609.171875 C 852.816406 607.804688 848.648438 607.996094 845.210938 609.640625 C 841.777344 611.300781 839.035156 614.460938 837.882812 618.097656 C 837.792969 618.386719 837.523438 618.570312 837.234375 618.570312 Z M 837.234375 618.570312 " fill-opacity="1" fill-rule="nonzero"/><path fill="#4e7f1c" d="M 919.148438 617.832031 C 918.839844 617.832031 918.558594 617.613281 918.488281 617.296875 C 917.90625 614.726562 916.152344 612.472656 913.800781 611.277344 C 911.429688 610.074219 908.589844 609.996094 906.179688 611.054688 C 906.023438 611.128906 905.820312 611.140625 905.648438 611.0625 C 905.480469 610.988281 905.34375 610.851562 905.273438 610.679688 C 904.097656 607.691406 901.285156 605.449219 898.113281 604.96875 C 894.976562 604.492188 891.589844 605.796875 889.585938 608.304688 C 889.355469 608.597656 888.910156 608.652344 888.628906 608.410156 C 888.335938 608.175781 888.289062 607.746094 888.523438 607.453125 C 890.824219 604.574219 894.683594 603.0625 898.316406 603.621094 C 901.738281 604.140625 904.789062 606.4375 906.273438 609.554688 C 908.910156 608.613281 911.914062 608.792969 914.414062 610.0625 C 917.121094 611.4375 919.140625 614.035156 919.816406 616.996094 C 919.898438 617.367188 919.667969 617.730469 919.300781 617.8125 C 919.253906 617.824219 919.199219 617.832031 919.148438 617.832031 Z M 919.148438 617.832031 " fill-opacity="1" fill-rule="nonzero"/><path fill="#4e7f1c" d="M 1024.371094 628.820312 C 1024.164062 628.820312 1023.972656 628.726562 1023.84375 628.566406 C 1021.695312 625.925781 1018.535156 624.136719 1015.171875 623.660156 C 1011.792969 623.175781 1008.273438 624.023438 1005.480469 625.972656 C 1005.167969 626.179688 1004.746094 626.113281 1004.535156 625.804688 C 1004.316406 625.492188 1004.394531 625.066406 1004.703125 624.855469 C 1007.777344 622.714844 1011.65625 621.78125 1015.363281 622.3125 C 1018.742188 622.789062 1021.933594 624.46875 1024.257812 626.972656 C 1026.339844 623.695312 1030.019531 621.453125 1033.894531 621.167969 C 1038.070312 620.78125 1042.410156 622.871094 1044.882812 626.285156 C 1045.105469 626.585938 1045.039062 627.011719 1044.730469 627.234375 C 1044.429688 627.453125 1044.003906 627.386719 1043.785156 627.082031 C 1041.726562 624.246094 1038.238281 622.5 1034.742188 622.5 C 1034.492188 622.5 1034.246094 622.507812 1033.992188 622.523438 C 1030.253906 622.800781 1026.710938 625.128906 1024.972656 628.453125 C 1024.867188 628.65625 1024.667969 628.792969 1024.4375 628.816406 C 1024.414062 628.816406 1024.390625 628.820312 1024.371094 628.820312 Z M 1024.371094 628.820312 " fill-opacity="1" fill-rule="nonzero"/><path fill="#4e7f1c" d="M 1079.417969 613.578125 C 1079.074219 613.578125 1078.785156 613.324219 1078.742188 612.976562 C 1078.179688 608.457031 1076.152344 604.773438 1073.179688 602.878906 C 1070.125 600.917969 1065.109375 601.148438 1062.976562 604.382812 C 1062.808594 604.640625 1062.5 604.746094 1062.199219 604.652344 C 1061.910156 604.5625 1061.714844 604.28125 1061.734375 603.976562 C 1061.917969 599.9375 1058.859375 595.972656 1054.914062 595.125 C 1050.957031 594.28125 1046.5625 596.664062 1045.089844 600.425781 C 1044.949219 600.78125 1044.535156 600.949219 1044.210938 600.8125 C 1043.859375 600.675781 1043.6875 600.277344 1043.824219 599.929688 C 1045.523438 595.570312 1050.636719 592.824219 1055.195312 593.792969 C 1059.191406 594.648438 1062.398438 598.265625 1063 602.285156 C 1065.925781 599.621094 1070.769531 599.71875 1073.917969 601.726562 C 1077.230469 603.84375 1079.480469 607.878906 1080.089844 612.808594 C 1080.136719 613.179688 1079.871094 613.523438 1079.5 613.566406 C 1079.476562 613.570312 1079.445312 613.578125 1079.417969 613.578125 Z M 1079.417969 613.578125 " fill-opacity="1" fill-rule="nonzero"/><path fill="#4e7f1c" d="M 1215.097656 629.96875 C 1215.070312 629.96875 1215.042969 629.964844 1215.015625 629.964844 C 1214.644531 629.921875 1214.378906 629.585938 1214.421875 629.207031 C 1214.832031 625.632812 1217.816406 622.488281 1221.359375 621.894531 C 1224.378906 621.394531 1227.707031 622.816406 1229.550781 625.328125 C 1230.390625 623.65625 1231.800781 622.28125 1233.511719 621.519531 C 1235.628906 620.5625 1238.175781 620.574219 1240.320312 621.574219 C 1240.65625 621.734375 1240.808594 622.140625 1240.648438 622.480469 C 1240.480469 622.832031 1240.097656 622.988281 1239.738281 622.808594 C 1237.957031 621.988281 1235.839844 621.960938 1234.058594 622.761719 C 1232.277344 623.558594 1230.886719 625.164062 1230.332031 627.050781 C 1230.25 627.320312 1230.011719 627.511719 1229.726562 627.535156 C 1229.445312 627.53125 1229.179688 627.40625 1229.0625 627.148438 C 1227.761719 624.425781 1224.476562 622.726562 1221.589844 623.242188 C 1218.621094 623.738281 1216.113281 626.371094 1215.769531 629.367188 C 1215.734375 629.714844 1215.441406 629.96875 1215.097656 629.96875 Z M 1215.097656 629.96875 " fill-opacity="1" fill-rule="nonzero"/><path fill="#4e7f1c" d="M 1288.707031 638.722656 C 1288.664062 638.722656 1288.628906 638.71875 1288.582031 638.710938 C 1288.210938 638.640625 1287.972656 638.285156 1288.042969 637.917969 C 1288.210938 636.980469 1287.796875 636.21875 1287.414062 635.742188 C 1286.644531 634.789062 1285.359375 634.152344 1284.148438 634.117188 C 1282.074219 634.066406 1279.957031 635.179688 1277.726562 636.542969 C 1277.554688 636.652344 1277.335938 636.667969 1277.167969 636.609375 C 1276.972656 636.550781 1276.820312 636.40625 1276.742188 636.226562 C 1275.511719 633.34375 1273.023438 630.96875 1270.089844 629.878906 C 1267.140625 628.789062 1263.714844 628.972656 1260.921875 630.355469 C 1260.570312 630.519531 1260.1875 630.375 1260.011719 630.046875 C 1259.84375 629.707031 1259.984375 629.300781 1260.320312 629.132812 C 1263.4375 627.578125 1267.273438 627.371094 1270.566406 628.597656 C 1273.597656 629.726562 1276.203125 632.082031 1277.664062 634.984375 C 1279.460938 633.902344 1281.605469 632.753906 1283.976562 632.753906 C 1284.039062 632.753906 1284.113281 632.753906 1284.183594 632.753906 C 1285.8125 632.800781 1287.449219 633.617188 1288.476562 634.886719 C 1289.265625 635.875 1289.585938 637.039062 1289.371094 638.164062 C 1289.320312 638.492188 1289.027344 638.722656 1288.707031 638.722656 Z M 1288.707031 638.722656 " fill-opacity="1" fill-rule="nonzero"/><path fill="#4e7f1c" d="M 1307.316406 581.902344 C 1307.21875 581.902344 1307.121094 581.878906 1307.035156 581.835938 C 1306.6875 581.679688 1306.539062 581.273438 1306.695312 580.929688 C 1308.40625 577.257812 1312.269531 574.714844 1316.316406 574.609375 C 1316.394531 574.609375 1316.484375 574.609375 1316.5625 574.609375 C 1320.097656 574.609375 1323.5625 576.453125 1325.570312 579.351562 C 1327.804688 575.296875 1332.003906 572.375 1336.589844 571.78125 C 1341.550781 571.113281 1346.855469 573.25 1350.019531 577.210938 C 1350.25 577.507812 1350.203125 577.9375 1349.910156 578.171875 C 1349.617188 578.414062 1349.183594 578.359375 1348.953125 578.0625 C 1346.09375 574.476562 1341.355469 572.558594 1336.765625 573.128906 C 1332.222656 573.726562 1328.097656 576.828125 1326.253906 581.035156 C 1326.15625 581.277344 1325.917969 581.433594 1325.660156 581.445312 C 1325.652344 581.445312 1325.640625 581.445312 1325.632812 581.445312 C 1325.386719 581.445312 1325.144531 581.304688 1325.03125 581.078125 C 1323.417969 578.003906 1320.035156 575.96875 1316.5625 575.96875 C 1316.492188 575.96875 1316.421875 575.96875 1316.351562 575.976562 C 1312.808594 576.0625 1309.425781 578.285156 1307.9375 581.507812 C 1307.820312 581.753906 1307.574219 581.902344 1307.316406 581.902344 Z M 1307.316406 581.902344 " fill-opacity="1" fill-rule="nonzero"/><path fill="#4e7f1c" d="M 1371.496094 629.132812 C 1371.132812 629.132812 1370.832031 628.839844 1370.816406 628.46875 C 1370.65625 623.589844 1373.621094 618.726562 1378.03125 616.648438 C 1382.109375 614.730469 1387.234375 615.261719 1390.875 617.917969 C 1392.070312 613.875 1395.417969 610.519531 1399.503906 609.402344 C 1403.921875 608.191406 1408.960938 609.671875 1412.019531 613.097656 C 1412.273438 613.375 1412.25 613.808594 1411.964844 614.054688 C 1411.691406 614.304688 1411.246094 614.273438 1411.007812 614.003906 C 1408.28125 610.957031 1403.816406 609.636719 1399.855469 610.714844 C 1395.914062 611.800781 1392.734375 615.226562 1391.945312 619.25 C 1391.902344 619.492188 1391.734375 619.6875 1391.503906 619.761719 C 1391.265625 619.839844 1391.007812 619.789062 1390.832031 619.628906 C 1387.582031 616.746094 1382.558594 616.027344 1378.617188 617.878906 C 1374.683594 619.738281 1372.035156 624.074219 1372.179688 628.425781 C 1372.1875 628.804688 1371.894531 629.117188 1371.523438 629.132812 C 1371.515625 629.132812 1371.503906 629.132812 1371.496094 629.132812 Z M 1371.496094 629.132812 " fill-opacity="1" fill-rule="nonzero"/><path fill="#4e7f1c" d="M 1438.96875 608.550781 C 1438.652344 608.550781 1438.367188 608.328125 1438.304688 608.007812 C 1437.925781 606.1875 1436.457031 604.660156 1434.65625 604.195312 C 1432.859375 603.726562 1430.839844 604.371094 1429.625 605.773438 C 1429.441406 605.988281 1429.140625 606.070312 1428.863281 605.960938 C 1428.597656 605.859375 1428.421875 605.597656 1428.429688 605.3125 C 1428.5 602.691406 1426.890625 600.105469 1424.496094 599.023438 C 1422.113281 597.945312 1419.121094 598.429688 1417.191406 600.199219 C 1416.90625 600.453125 1416.492188 600.433594 1416.226562 600.160156 C 1415.976562 599.882812 1415.996094 599.449219 1416.269531 599.195312 C 1418.582031 597.066406 1422.175781 596.476562 1425.066406 597.78125 C 1427.492188 598.882812 1429.253906 601.273438 1429.6875 603.890625 C 1431.203125 602.824219 1433.175781 602.410156 1434.992188 602.875 C 1437.289062 603.464844 1439.148438 605.414062 1439.632812 607.722656 C 1439.714844 608.09375 1439.476562 608.457031 1439.113281 608.53125 C 1439.058594 608.546875 1439.015625 608.550781 1438.96875 608.550781 Z M 1438.96875 608.550781 " fill-opacity="1" fill-rule="nonzero"/><path fill="#4e7f1c" d="M 1145.90625 616.53125 C 1145.859375 616.53125 1145.816406 616.527344 1145.765625 616.511719 C 1145.398438 616.433594 1145.164062 616.074219 1145.242188 615.707031 C 1146.253906 610.984375 1149.871094 606.972656 1154.460938 605.492188 C 1158.746094 604.09375 1163.609375 605.003906 1167.144531 607.75 C 1168.949219 603.347656 1172.8125 599.917969 1177.417969 598.683594 C 1182.359375 597.359375 1187.769531 598.632812 1191.597656 602 C 1191.882812 602.25 1191.90625 602.679688 1191.660156 602.964844 C 1191.394531 603.238281 1190.976562 603.269531 1190.695312 603.019531 C 1187.273438 600 1182.207031 598.8125 1177.773438 599.996094 C 1173.351562 601.1875 1169.542969 604.765625 1168.089844 609.109375 C 1168.019531 609.324219 1167.835938 609.496094 1167.613281 609.550781 C 1167.390625 609.617188 1167.160156 609.546875 1166.984375 609.398438 C 1163.785156 606.480469 1159.046875 605.449219 1154.882812 606.789062 C 1150.75 608.125 1147.484375 611.734375 1146.570312 615.988281 C 1146.503906 616.308594 1146.222656 616.53125 1145.90625 616.53125 Z M 1145.90625 616.53125 " fill-opacity="1" fill-rule="nonzero"/><path fill="#4e7f1c" d="M 1156.796875 580.800781 C 1156.433594 580.800781 1156.132812 580.507812 1156.117188 580.140625 C 1155.992188 576.480469 1153.238281 573.03125 1149.695312 572.125 C 1146.152344 571.214844 1142.074219 572.914062 1140.214844 576.070312 C 1140.085938 576.296875 1139.820312 576.371094 1139.5625 576.40625 C 1139.296875 576.375 1139.070312 576.191406 1138.984375 575.9375 C 1136.996094 569.914062 1130.984375 565.574219 1124.65625 565.574219 C 1124.605469 565.574219 1124.5625 565.574219 1124.519531 565.578125 C 1118.132812 565.640625 1112.132812 570.117188 1110.25 576.222656 C 1110.136719 576.585938 1109.757812 576.785156 1109.398438 576.675781 C 1109.039062 576.566406 1108.835938 576.183594 1108.945312 575.824219 C 1111.003906 569.164062 1117.542969 564.28125 1124.5 564.210938 C 1124.554688 564.210938 1124.601562 564.210938 1124.65625 564.210938 C 1131.117188 564.210938 1137.273438 568.359375 1139.808594 574.28125 C 1142.191406 571.328125 1146.378906 569.871094 1150.03125 570.800781 C 1154.132812 571.855469 1157.335938 575.851562 1157.480469 580.097656 C 1157.488281 580.472656 1157.195312 580.789062 1156.824219 580.800781 C 1156.816406 580.800781 1156.804688 580.800781 1156.796875 580.800781 Z M 1156.796875 580.800781 " fill-opacity="1" fill-rule="nonzero"/><path fill="#4e7f1c" d="M 939.738281 600.398438 C 939.675781 600.398438 939.609375 600.390625 939.546875 600.367188 C 939.191406 600.265625 938.980469 599.890625 939.082031 599.523438 C 940.058594 596.171875 943.003906 593.429688 946.417969 592.710938 C 949.269531 592.09375 952.371094 592.917969 954.628906 594.757812 C 954.839844 590.800781 957.195312 587.046875 960.753906 585.238281 C 964.847656 583.15625 970.046875 583.871094 973.414062 586.949219 C 973.691406 587.207031 973.714844 587.640625 973.460938 587.914062 C 973.203125 588.191406 972.773438 588.207031 972.5 587.960938 C 969.574219 585.292969 964.890625 584.65625 961.371094 586.453125 C 957.84375 588.246094 955.597656 592.410156 956.027344 596.347656 C 956.058594 596.648438 955.890625 596.933594 955.613281 597.050781 C 955.347656 597.183594 955.023438 597.09375 954.828125 596.863281 C 952.902344 594.554688 949.628906 593.445312 946.699219 594.039062 C 943.765625 594.664062 941.226562 597.019531 940.394531 599.90625 C 940.304688 600.203125 940.035156 600.398438 939.738281 600.398438 Z M 939.738281 600.398438 " fill-opacity="1" fill-rule="nonzero"/><path fill="#4e7f1c" d="M 760.714844 613.679688 C 760.5 613.679688 760.292969 613.578125 760.160156 613.390625 C 757.71875 609.96875 758.515625 604.738281 761.863281 602.199219 C 764.59375 600.121094 768.558594 600.175781 771.371094 602.035156 C 771.035156 598.855469 772.390625 595.355469 775.015625 593.074219 C 777.839844 590.613281 781.949219 589.429688 786.335938 589.878906 C 789.707031 590.207031 793.132812 591.367188 797.445312 593.636719 C 797.777344 593.816406 797.898438 594.222656 797.726562 594.558594 C 797.554688 594.898438 797.152344 595.023438 796.804688 594.84375 C 792.664062 592.660156 789.390625 591.546875 786.203125 591.238281 C 782.199219 590.835938 778.453125 591.886719 775.910156 594.101562 C 773.074219 596.570312 771.925781 600.632812 773.183594 603.765625 C 773.308594 604.078125 773.183594 604.4375 772.890625 604.609375 C 772.613281 604.777344 772.230469 604.710938 772.019531 604.445312 C 769.878906 601.765625 765.425781 601.207031 762.6875 603.289062 C 759.953125 605.359375 759.273438 609.800781 761.265625 612.601562 C 761.484375 612.90625 761.414062 613.332031 761.105469 613.550781 C 760.988281 613.632812 760.851562 613.679688 760.714844 613.679688 Z M 760.714844 613.679688 " fill-opacity="1" fill-rule="nonzero"/><path fill="#bdcc4c" d="M 101.28125 532.167969 C 92.886719 545.757812 86.46875 560.496094 85.25 576.5625 C 84.660156 584.339844 84.96875 592.140625 86.066406 599.863281 C 87.128906 607.351562 88.375 616.097656 93.398438 622.050781 C 94.421875 623.261719 96.460938 622.253906 96.445312 620.785156 C 96.378906 613.867188 93.554688 607.140625 92.460938 600.339844 C 91.242188 592.738281 90.949219 584.964844 91.457031 577.285156 C 92.464844 561.984375 95.203125 546.484375 102.375 532.804688 C 102.753906 532.085938 101.714844 531.46875 101.28125 532.167969 Z M 101.28125 532.167969 " fill-opacity="1" fill-rule="nonzero"/><path fill="#bdcc4c" d="M 291.554688 517.605469 C 283.652344 524.40625 277.371094 532.625 273.433594 542.320312 C 271.496094 547.089844 270.203125 552.042969 269.585938 557.15625 C 269.019531 561.863281 268.265625 568.414062 271.066406 572.582031 C 271.949219 573.894531 273.753906 573.605469 274.285156 572.164062 C 275.824219 568 274.960938 562.773438 275.351562 558.398438 C 275.789062 553.546875 276.726562 548.714844 278.128906 544.050781 C 280.953125 534.667969 285.757812 525.707031 292.640625 518.691406 C 293.34375 517.976562 292.296875 516.964844 291.554688 517.605469 Z M 291.554688 517.605469 " fill-opacity="1" fill-rule="nonzero"/><path fill="#bdcc4c" d="M 380.675781 514.917969 C 377.929688 519.289062 375.394531 523.570312 373.929688 528.566406 C 372.449219 533.628906 371.859375 539.058594 372.027344 544.324219 C 372.191406 549.503906 373.203125 554.761719 374.984375 559.625 C 376.582031 563.980469 379.226562 569.726562 383.566406 571.964844 C 384.628906 572.515625 385.710938 571.613281 385.496094 570.476562 C 385.085938 568.289062 383.859375 566.316406 383.011719 564.269531 C 382.109375 562.085938 381.066406 559.957031 380.234375 557.746094 C 378.566406 553.289062 377.488281 548.644531 377.03125 543.910156 C 376.140625 534.691406 377.398438 523.863281 381.960938 515.667969 C 382.429688 514.828125 381.1875 514.105469 380.675781 514.917969 Z M 380.675781 514.917969 " fill-opacity="1" fill-rule="nonzero"/><path fill="#bdcc4c" d="M 603.371094 537.316406 C 609.863281 550.5 613.757812 564.558594 614.859375 579.199219 C 615.378906 586.140625 615.511719 593.148438 615.042969 600.097656 C 614.601562 606.707031 612.699219 613.234375 613.625 619.835938 C 613.847656 621.417969 615.984375 621.289062 616.710938 620.238281 C 620.644531 614.535156 620.871094 606.84375 621.265625 600.097656 C 621.703125 592.621094 621.3125 585.175781 620.058594 577.792969 C 617.601562 563.289062 612.191406 549.160156 604.507812 536.652344 C 604.0625 535.925781 603 536.5625 603.371094 537.316406 Z M 603.371094 537.316406 " fill-opacity="1" fill-rule="nonzero"/><path fill="#bdcc4c" d="M 693.753906 524.503906 C 689.777344 532.195312 686.6875 540.066406 685.671875 548.730469 C 685.15625 553.113281 685.207031 557.550781 685.671875 561.933594 C 686.082031 565.761719 686.683594 570.554688 689.597656 573.359375 C 690.277344 574.011719 691.429688 573.722656 691.691406 572.804688 C 692.738281 569.109375 691.527344 564.84375 691.117188 561.113281 C 690.683594 557.140625 690.597656 553.136719 690.710938 549.144531 C 690.9375 541.007812 691.996094 532.644531 695 525.03125 C 695.28125 524.308594 694.105469 523.824219 693.753906 524.503906 Z M 693.753906 524.503906 " fill-opacity="1" fill-rule="nonzero"/><g clip-path="url(#7b2eb2bb3d)"><path fill="#6d9826" d="M 799.035156 625.300781 C 793.109375 635.527344 782.992188 642.742188 771.964844 647.03125 C 771.238281 647.304688 770.417969 647.582031 769.6875 647.855469 L 0.292969 647.855469 C -3.898438 645.753906 -7.453125 642.101562 -8.457031 637.628906 C -9.457031 632.695312 -6.632812 626.945312 -1.710938 625.847656 C -7.453125 620.734375 -11.644531 613.613281 -12.375 605.945312 C -13.011719 598.273438 -9.914062 590.148438 -3.625 585.765625 C 2.753906 581.382812 12.140625 581.566406 17.609375 586.953125 C 12.324219 571.429688 18.792969 552.894531 32.007812 543.214844 C 45.316406 533.628906 64.089844 532.804688 78.582031 540.386719 C 86.328125 544.496094 92.800781 550.703125 97.355469 558.097656 C 101.457031 564.582031 104.28125 571.976562 105.195312 579.554688 C 110.84375 575.628906 118.5 574.898438 124.699219 577.636719 C 130.984375 580.46875 135.453125 586.679688 136.273438 593.527344 C 147.484375 585.398438 164.617188 586.953125 174.1875 596.996094 C 173.367188 589.78125 172.363281 583.207031 173.273438 576.816406 L 173.273438 576.726562 C 173.914062 571.339844 175.828125 566.316406 180.292969 561.292969 C 189.863281 550.703125 206.539062 547.324219 219.480469 553.441406 C 214.105469 542.394531 219.753906 527.785156 230.691406 522.304688 C 241.628906 516.828125 255.847656 520.207031 264.140625 529.15625 C 272.433594 538.101562 274.894531 551.707031 271.703125 563.484375 C 273.984375 554.902344 286.378906 552.4375 295.855469 552.894531 C 299.136719 552.984375 302.054688 553.535156 304.148438 554.171875 C 316.179688 558.007812 325.292969 573.4375 328.121094 585.125 C 327.300781 578.550781 328.757812 571.796875 331.855469 565.953125 C 334.863281 560.5625 339.238281 556 344.707031 553.078125 C 356.007812 547.140625 370.957031 548.96875 380.433594 557.367188 C 375.421875 545.226562 378.976562 530.066406 388.816406 521.394531 C 398.753906 512.628906 414.246094 511.074219 425.636719 517.648438 C 437.03125 524.222656 443.5 538.375 440.949219 551.34375 C 449.699219 538.101562 471.207031 537.644531 482.507812 548.785156 C 489.4375 555.632812 492.441406 565.402344 492.078125 575.171875 C 491.894531 581.289062 490.253906 587.5 487.429688 592.980469 C 491.441406 587.316406 495.542969 581.566406 500.554688 576.90625 C 503.105469 574.535156 505.933594 572.433594 509.03125 570.789062 C 518.234375 566.042969 531.175781 566.683594 537.191406 575.171875 C 535.1875 561.75 544.210938 547.414062 557.332031 543.582031 C 570.367188 539.746094 585.679688 546.777344 591.328125 559.195312 C 600.261719 551.980469 614.023438 555.175781 622.226562 563.394531 C 623.773438 564.945312 625.050781 566.773438 626.144531 568.691406 C 631.429688 578.371094 631.066406 589.964844 627.785156 600.558594 C 629.878906 597.816406 633.527344 596.175781 636.441406 595.261719 C 642.640625 593.527344 649.839844 594.53125 654.761719 598.914062 C 655.125 592.339844 655.492188 585.582031 657.402344 579.191406 C 659.320312 572.890625 662.871094 566.957031 668.433594 563.304688 C 668.523438 563.304688 668.523438 563.210938 668.613281 563.210938 C 674.265625 559.742188 682.101562 559.285156 687.390625 563.304688 C 688.757812 548.785156 699.964844 535.910156 714.003906 531.710938 C 727.945312 527.601562 743.894531 531.984375 754.464844 542.027344 C 765.039062 552.074219 770.234375 567.320312 768.867188 581.839844 C 779.347656 576.542969 793.292969 581.566406 799.488281 591.609375 C 805.777344 601.652344 804.867188 615.074219 799.035156 625.300781 Z M 799.035156 625.300781 " fill-opacity="1" fill-rule="nonzero"/></g><path fill="#bdcc4c" d="M 52.71875 561.847656 C 63.9375 570.054688 72.324219 581.441406 79.105469 593.4375 C 82.414062 599.289062 85.269531 605.316406 87.351562 611.71875 C 89.351562 617.867188 89.585938 625.085938 92.792969 630.703125 C 93.609375 632.132812 95.730469 631.757812 96.195312 630.257812 C 98.214844 623.734375 95.300781 615.792969 93.230469 609.554688 C 90.960938 602.71875 87.988281 595.980469 84.179688 589.859375 C 76.566406 577.636719 65.453125 568.28125 53.320312 560.816406 C 52.652344 560.40625 52.113281 561.402344 52.71875 561.847656 Z M 52.71875 561.847656 " fill-opacity="1" fill-rule="nonzero"/><path fill="#bdcc4c" d="M 176.175781 548.25 C 180.53125 561.296875 182.261719 574.75 181.535156 588.484375 C 181.1875 595.101562 180.222656 601.6875 178.832031 608.160156 C 178.15625 611.304688 177.363281 614.417969 176.417969 617.488281 C 175.472656 620.550781 174.257812 623.371094 175.015625 626.59375 C 175.261719 627.648438 176.675781 628.277344 177.601562 627.648438 C 182.660156 624.199219 183.726562 615.421875 184.863281 609.828125 C 186.289062 602.800781 186.855469 595.644531 186.683594 588.484375 C 186.355469 574.488281 183.082031 560.503906 177.492188 547.695312 C 177.164062 546.949219 175.917969 547.480469 176.175781 548.25 Z M 176.175781 548.25 " fill-opacity="1" fill-rule="nonzero"/><path fill="#bdcc4c" d="M 201.128906 573.769531 C 192.429688 583.164062 185.167969 593.445312 180.109375 605.273438 C 177.691406 610.914062 175.785156 616.847656 174.417969 622.828125 C 173.117188 628.515625 170.972656 636.070312 173.179688 641.710938 C 173.703125 643.050781 175.699219 643.652344 176.488281 642.144531 C 179.074219 637.203125 178.796875 630.890625 179.851562 625.480469 C 181.023438 619.464844 182.617188 613.578125 184.667969 607.800781 C 188.816406 596.117188 194.546875 584.65625 202.25 574.894531 C 202.867188 574.109375 201.839844 573 201.128906 573.769531 Z M 201.128906 573.769531 " fill-opacity="1" fill-rule="nonzero"/><path fill="#bdcc4c" d="M 236.089844 576.917969 C 240.632812 586.265625 244.050781 596.039062 245.988281 606.261719 C 246.9375 611.261719 247.582031 616.300781 247.949219 621.378906 C 248.28125 625.976562 247.398438 631.492188 249.808594 635.605469 C 250.484375 636.757812 252.121094 636.703125 252.808594 635.605469 C 255.535156 631.261719 254.105469 625.132812 253.472656 620.355469 C 252.789062 615.195312 251.699219 610.082031 250.21875 605.09375 C 247.207031 594.964844 242.875 585.175781 237.207031 576.265625 C 236.753906 575.558594 235.730469 576.171875 236.089844 576.917969 Z M 236.089844 576.917969 " fill-opacity="1" fill-rule="nonzero"/><path fill="#bdcc4c" d="M 338.222656 543.378906 C 342.882812 557.574219 342.546875 573.207031 338.234375 587.425781 C 336.3125 593.777344 333.855469 599.886719 330.480469 605.609375 C 328.753906 608.53125 326.832031 611.3125 324.738281 613.976562 C 322.910156 616.296875 320.871094 618.5625 320.226562 621.519531 C 319.960938 622.746094 320.984375 623.816406 322.226562 623.519531 C 328.292969 622.078125 332.582031 614.300781 335.570312 609.339844 C 339.335938 603.089844 342.402344 596.15625 344.007812 589.019531 C 347.515625 573.4375 345.355469 557.710938 339.558594 543.007812 C 339.242188 542.195312 337.9375 542.511719 338.222656 543.378906 Z M 338.222656 543.378906 " fill-opacity="1" fill-rule="nonzero"/><path fill="#bdcc4c" d="M 333.820312 553.796875 C 335.957031 565.480469 335.125 578.328125 332.722656 589.898438 C 331.554688 595.523438 329.929688 601.046875 327.871094 606.410156 C 325.785156 611.839844 322.425781 616.914062 321.394531 622.703125 C 321.183594 623.902344 322.484375 625.375 323.707031 624.488281 C 328.65625 620.890625 331.027344 615.183594 333.242188 609.671875 C 335.671875 603.621094 337.371094 597.304688 338.3125 590.851562 C 340.1875 577.957031 338.746094 565.855469 335.234375 553.40625 C 334.972656 552.484375 333.652344 552.878906 333.820312 553.796875 Z M 333.820312 553.796875 " fill-opacity="1" fill-rule="nonzero"/><path fill="#bdcc4c" d="M 484.984375 537.75 C 489.367188 548.789062 490.222656 560.378906 489.046875 572.113281 C 488.480469 577.726562 487.144531 583.316406 485.175781 588.597656 C 484.144531 591.359375 482.882812 594.027344 481.445312 596.597656 C 480.125 598.957031 478.859375 601.019531 479.296875 603.796875 C 479.445312 604.730469 480.554688 605.132812 481.355469 604.96875 C 486.601562 603.886719 489.140625 595.585938 490.839844 591.210938 C 493.15625 585.25 494.523438 578.992188 495.054688 572.621094 C 496.074219 560.332031 492.554688 547.703125 486.277344 537.207031 C 485.882812 536.542969 484.679688 536.980469 484.984375 537.75 Z M 484.984375 537.75 " fill-opacity="1" fill-rule="nonzero"/><path fill="#bdcc4c" d="M 511.3125 549.324219 C 502.785156 556.863281 495.976562 566.070312 491.367188 576.492188 C 489.105469 581.597656 487.375 586.890625 486.195312 592.351562 C 485.058594 597.621094 483.8125 603.691406 485.808594 608.894531 C 486.289062 610.144531 487.800781 610.089844 488.296875 608.894531 C 490.273438 604.148438 490.234375 598.734375 491.179688 593.726562 C 492.175781 588.460938 493.6875 583.28125 495.585938 578.273438 C 499.4375 568.101562 505.234375 558.585938 512.449219 550.46875 C 513.144531 549.6875 512.089844 548.636719 511.3125 549.324219 Z M 511.3125 549.324219 " fill-opacity="1" fill-rule="nonzero"/><path fill="#bdcc4c" d="M 582.777344 601.308594 C 585.992188 609.4375 590.449219 617.214844 596.375 623.675781 C 599.398438 626.976562 602.972656 629.71875 606.769531 632.070312 C 608.679688 633.25 610.65625 634.320312 612.710938 635.210938 C 614.972656 636.191406 617.09375 636.378906 619.515625 636.527344 C 621.546875 636.648438 621.890625 633.976562 620.476562 632.984375 C 618.722656 631.757812 617.175781 630.5 615.234375 629.554688 C 613.421875 628.671875 611.628906 627.742188 609.886719 626.726562 C 606.378906 624.6875 603.050781 622.292969 599.851562 619.800781 C 593.246094 614.652344 587.757812 608.335938 584.183594 600.714844 C 583.816406 599.9375 582.457031 600.496094 582.777344 601.308594 Z M 582.777344 601.308594 " fill-opacity="1" fill-rule="nonzero"/><path fill="#bdcc4c" d="M 580.59375 622.320312 C 587.007812 626.308594 593.6875 629.382812 601.066406 631.128906 C 604.699219 631.988281 608.484375 632.441406 612.214844 632.535156 C 615.628906 632.621094 619.707031 632.410156 622.613281 630.417969 C 623.3125 629.941406 623.179688 628.953125 622.386719 628.671875 C 619.234375 627.554688 615.519531 627.84375 612.214844 627.796875 C 608.761719 627.742188 605.328125 627.460938 601.90625 627 C 594.925781 626.0625 587.769531 624.003906 581.507812 620.753906 C 580.476562 620.21875 579.601562 621.703125 580.59375 622.320312 Z M 580.59375 622.320312 " fill-opacity="1" fill-rule="nonzero"/><path fill="#bdcc4c" d="M 726.667969 568.777344 C 727.785156 577.640625 726.136719 585.78125 722.785156 593.96875 C 721.230469 597.777344 719.261719 601.488281 716.9375 604.882812 C 714.707031 608.144531 710.660156 611.351562 709.800781 615.328125 C 709.585938 616.324219 710.285156 617.65625 711.472656 617.53125 C 716.066406 617.042969 719.292969 612.410156 721.695312 608.898438 C 724.390625 604.964844 726.472656 600.667969 727.890625 596.113281 C 730.597656 587.441406 730.335938 577.324219 728.128906 568.582031 C 727.929688 567.789062 726.5625 567.929688 726.667969 568.777344 Z M 726.667969 568.777344 " fill-opacity="1" fill-rule="nonzero"/><path fill="#bdcc4c" d="M 716.316406 576.59375 C 716.875 584.554688 715.890625 592.324219 713.792969 600 C 712.78125 603.710938 711.523438 607.386719 709.933594 610.886719 C 709.109375 612.703125 708.175781 614.488281 707.554688 616.386719 C 707.003906 618.070312 706.097656 619.777344 706.136719 621.589844 C 706.15625 622.398438 707.007812 623.242188 707.863281 622.910156 C 709.625 622.222656 710.753906 620.777344 711.996094 619.417969 C 713.421875 617.859375 714.414062 615.925781 715.273438 614.015625 C 717.070312 610 718.476562 605.847656 719.316406 601.527344 C 720.945312 593.195312 720.539062 584.511719 718.554688 576.289062 C 718.257812 575.058594 716.222656 575.289062 716.316406 576.59375 Z M 716.316406 576.59375 " fill-opacity="1" fill-rule="nonzero"/><g clip-path="url(#36edd7797d)"><path fill="#93c808" d="M 191.867188 636.257812 C 189.589844 639.636719 187.035156 642.742188 184.394531 645.9375 C 183.9375 646.484375 183.484375 647.125 182.9375 647.855469 L 71.746094 647.855469 C 67.28125 645.664062 63.453125 642.375 61.082031 638.175781 C 57.621094 631.691406 58.074219 623.75 60.445312 616.808594 C 62.175781 611.695312 65 606.859375 69.285156 603.570312 C 73.570312 600.285156 79.402344 598.730469 84.597656 600.464844 C 80.675781 590.695312 80.3125 579.28125 85.234375 569.96875 C 87.878906 564.945312 92.253906 560.65625 97.355469 558.097656 C 101.550781 556 106.285156 554.992188 110.933594 555.632812 C 121.324219 556.910156 130.257812 567.046875 129.070312 577.457031 C 134.542969 568.964844 145.75 565.3125 155.59375 567.136719 C 162.246094 568.417969 168.351562 571.976562 173.273438 576.726562 L 173.273438 576.816406 C 175.644531 579.007812 177.742188 581.472656 179.472656 584.210938 C 181.386719 587.042969 182.9375 590.148438 183.484375 593.433594 C 183.9375 596.8125 183.207031 600.375 180.929688 602.839844 C 181.933594 602.65625 183.027344 602.566406 184.03125 602.75 C 190.226562 603.203125 195.785156 608.683594 197.152344 614.984375 C 198.792969 622.289062 195.96875 629.957031 191.867188 636.257812 Z M 191.867188 636.257812 " fill-opacity="1" fill-rule="nonzero"/></g><g clip-path="url(#7c63ab23b6)"><path fill="#93c808" d="M 381.527344 637.902344 C 378.882812 642.191406 374.875 645.570312 370.316406 647.855469 L 235.613281 647.855469 C 226.957031 642.742188 218.753906 634.707031 219.207031 623.933594 C 219.574219 616.445312 224.949219 609.414062 232.058594 607.132812 C 239.167969 604.847656 247.550781 607.3125 252.199219 613.15625 C 250.652344 605.945312 249.921875 598.363281 251.925781 591.242188 C 253.933594 584.210938 259.128906 577.636719 266.144531 575.539062 C 273.253906 573.53125 281.914062 577.089844 284.191406 584.121094 C 282.1875 572.617188 286.285156 559.832031 295.675781 552.984375 C 295.765625 552.984375 295.765625 552.894531 295.855469 552.894531 C 301.507812 548.785156 308.980469 547.050781 315.632812 548.96875 C 323.472656 551.25 329.214844 558.097656 331.855469 565.953125 C 332.496094 567.6875 333.042969 569.421875 333.316406 571.246094 C 335.046875 581.109375 333.042969 591.242188 331.128906 601.105469 C 335.59375 596.90625 340.332031 592.613281 346.164062 590.695312 C 351.996094 588.777344 359.289062 589.875 362.75 594.988281 C 365.667969 599.1875 365.121094 605.121094 362.75 609.6875 C 360.382812 614.253906 356.464844 617.8125 352.636719 621.191406 C 357.738281 619 363.027344 616.625 368.585938 616.445312 C 374.234375 616.261719 380.25 618.636719 382.804688 623.65625 C 385.082031 628.132812 384.078125 633.609375 381.527344 637.902344 Z M 381.527344 637.902344 " fill-opacity="1" fill-rule="nonzero"/></g><g clip-path="url(#1bf566d8ee)"><path fill="#93c808" d="M 565.261719 647.855469 L 450.246094 647.855469 C 447.148438 645.664062 444.320312 642.285156 442.042969 637.261719 C 437.851562 628.222656 440.21875 615.988281 449.0625 610.601562 C 456.535156 606.125 467.652344 608.683594 472.027344 616.078125 C 467.746094 606.859375 467.289062 595.535156 472.484375 586.769531 C 476.492188 580.011719 484.332031 575.355469 492.078125 575.171875 C 494.996094 575.171875 497.820312 575.628906 500.554688 576.90625 C 500.644531 576.90625 500.644531 577 500.738281 577 C 506.84375 579.921875 511.125 585.949219 513.3125 592.339844 C 515.5 598.820312 516.046875 605.671875 516.414062 612.519531 C 518.601562 605.761719 521.425781 598.914062 526.800781 594.257812 C 532.179688 589.601562 540.65625 587.957031 546.304688 592.066406 C 551.867188 596.082031 553.050781 603.933594 551.773438 610.601562 C 550.40625 617.265625 547.125 623.476562 545.394531 630.050781 C 549.953125 628.589844 554.691406 627.21875 559.429688 627.675781 C 564.167969 628.132812 569.089844 631.054688 570.277344 635.710938 C 571.550781 640.183594 568.910156 645.023438 565.261719 647.855469 Z M 565.261719 647.855469 " fill-opacity="1" fill-rule="nonzero"/></g><g clip-path="url(#4412dea60f)"><path fill="#93c808" d="M 742.984375 638.90625 C 741.617188 642.191406 739.792969 645.207031 737.425781 647.855469 L 598.253906 647.855469 C 596.160156 643.472656 596.160156 638.085938 598.164062 633.703125 C 600.441406 628.769531 605.273438 625.117188 610.648438 624.296875 C 605.636719 620.917969 601.628906 615.898438 600.261719 610.054688 C 598.894531 604.207031 600.535156 597.542969 605.089844 593.617188 C 609.738281 589.78125 617.210938 589.417969 621.585938 593.617188 C 618.851562 583.664062 617.304688 572.25 622.226562 563.394531 C 622.589844 562.847656 622.863281 562.390625 623.226562 561.84375 C 628.238281 554.445312 637.628906 550.792969 646.375 551.617188 C 654.851562 552.4375 662.691406 557.003906 668.433594 563.304688 C 668.707031 563.484375 668.980469 563.761719 669.160156 564.035156 C 674.902344 570.789062 678.546875 579.101562 680.828125 587.683594 C 687.664062 580.652344 699.417969 579.101562 707.894531 584.121094 C 716.28125 589.050781 720.65625 600.101562 717.921875 609.503906 C 725.210938 605.214844 735.328125 608.042969 740.523438 614.800781 C 745.625 621.46875 746.171875 631.054688 742.984375 638.90625 Z M 742.984375 638.90625 " fill-opacity="1" fill-rule="nonzero"/></g><path fill="#4e7f1c" d="M 91.964844 618.570312 C 91.898438 618.570312 91.828125 618.558594 91.757812 618.535156 C 91.402344 618.425781 91.203125 618.039062 91.316406 617.679688 C 92.585938 613.695312 95.585938 610.230469 99.347656 608.417969 C 102.761719 606.769531 106.839844 606.464844 110.476562 607.519531 C 109.917969 602.75 113.167969 598.300781 116.960938 596.203125 C 120.617188 594.175781 125.269531 593.539062 131.128906 594.242188 C 131.507812 594.285156 131.773438 594.621094 131.730469 594.996094 C 131.683594 595.367188 131.339844 595.628906 130.972656 595.589844 C 125.371094 594.914062 121.015625 595.507812 117.613281 597.390625 C 114.058594 599.363281 110.886719 603.882812 112.011719 608.371094 C 112.074219 608.617188 111.996094 608.878906 111.804688 609.046875 C 111.613281 609.207031 111.347656 609.253906 111.109375 609.171875 C 107.546875 607.804688 103.378906 607.996094 99.941406 609.640625 C 96.507812 611.300781 93.765625 614.460938 92.613281 618.097656 C 92.523438 618.386719 92.253906 618.570312 91.964844 618.570312 Z M 91.964844 618.570312 " fill-opacity="1" fill-rule="nonzero"/><path fill="#4e7f1c" d="M 173.878906 617.832031 C 173.570312 617.832031 173.289062 617.613281 173.214844 617.296875 C 172.636719 614.726562 170.882812 612.472656 168.53125 611.277344 C 166.160156 610.074219 163.320312 609.996094 160.910156 611.054688 C 160.753906 611.128906 160.550781 611.140625 160.378906 611.0625 C 160.210938 610.988281 160.074219 610.851562 160.003906 610.679688 C 158.828125 607.691406 156.015625 605.449219 152.84375 604.96875 C 149.703125 604.492188 146.320312 605.796875 144.316406 608.304688 C 144.085938 608.597656 143.640625 608.652344 143.359375 608.410156 C 143.066406 608.175781 143.019531 607.746094 143.253906 607.453125 C 145.554688 604.574219 149.414062 603.0625 153.046875 603.621094 C 156.46875 604.140625 159.519531 606.4375 161.003906 609.554688 C 163.640625 608.613281 166.644531 608.792969 169.140625 610.0625 C 171.851562 611.4375 173.871094 614.035156 174.546875 616.996094 C 174.628906 617.367188 174.398438 617.730469 174.03125 617.8125 C 173.984375 617.824219 173.929688 617.832031 173.878906 617.832031 Z M 173.878906 617.832031 " fill-opacity="1" fill-rule="nonzero"/><path fill="#4e7f1c" d="M 279.097656 628.820312 C 278.894531 628.820312 278.703125 628.726562 278.574219 628.566406 C 276.425781 625.925781 273.265625 624.136719 269.902344 623.660156 C 266.523438 623.175781 263 624.023438 260.210938 625.972656 C 259.898438 626.179688 259.476562 626.113281 259.265625 625.804688 C 259.046875 625.492188 259.125 625.066406 259.433594 624.855469 C 262.503906 622.714844 266.382812 621.78125 270.089844 622.3125 C 273.472656 622.789062 276.664062 624.46875 278.988281 626.972656 C 281.070312 623.695312 284.75 621.453125 288.625 621.167969 C 292.800781 620.78125 297.140625 622.871094 299.613281 626.285156 C 299.832031 626.585938 299.769531 627.011719 299.460938 627.234375 C 299.160156 627.453125 298.734375 627.386719 298.515625 627.082031 C 296.457031 624.246094 292.96875 622.5 289.472656 622.5 C 289.222656 622.5 288.976562 622.507812 288.722656 622.523438 C 284.984375 622.800781 281.441406 625.128906 279.703125 628.453125 C 279.59375 628.65625 279.394531 628.792969 279.164062 628.816406 C 279.144531 628.816406 279.121094 628.820312 279.097656 628.820312 Z M 279.097656 628.820312 " fill-opacity="1" fill-rule="nonzero"/><path fill="#4e7f1c" d="M 334.148438 613.578125 C 333.804688 613.578125 333.511719 613.324219 333.472656 612.976562 C 332.910156 608.457031 330.882812 604.773438 327.910156 602.878906 C 324.855469 600.917969 319.839844 601.148438 317.707031 604.382812 C 317.539062 604.640625 317.230469 604.746094 316.929688 604.652344 C 316.640625 604.5625 316.445312 604.28125 316.464844 603.976562 C 316.648438 599.9375 313.589844 595.972656 309.644531 595.125 C 305.6875 594.28125 301.292969 596.664062 299.820312 600.425781 C 299.679688 600.78125 299.265625 600.949219 298.941406 600.8125 C 298.589844 600.675781 298.417969 600.277344 298.554688 599.929688 C 300.253906 595.570312 305.367188 592.824219 309.925781 593.792969 C 313.921875 594.648438 317.128906 598.265625 317.730469 602.285156 C 320.65625 599.621094 325.496094 599.71875 328.648438 601.726562 C 331.960938 603.84375 334.210938 607.878906 334.820312 612.808594 C 334.867188 613.179688 334.601562 613.523438 334.230469 613.566406 C 334.203125 613.570312 334.175781 613.578125 334.148438 613.578125 Z M 334.148438 613.578125 " fill-opacity="1" fill-rule="nonzero"/><path fill="#4e7f1c" d="M 469.824219 629.96875 C 469.800781 629.96875 469.773438 629.964844 469.746094 629.964844 C 469.375 629.921875 469.109375 629.585938 469.152344 629.207031 C 469.558594 625.632812 472.546875 622.488281 476.085938 621.894531 C 479.109375 621.394531 482.4375 622.816406 484.28125 625.328125 C 485.121094 623.65625 486.53125 622.28125 488.242188 621.519531 C 490.355469 620.5625 492.90625 620.574219 495.050781 621.574219 C 495.386719 621.734375 495.539062 622.140625 495.378906 622.480469 C 495.210938 622.832031 494.828125 622.988281 494.464844 622.808594 C 492.6875 621.988281 490.570312 621.960938 488.789062 622.761719 C 487.007812 623.558594 485.617188 625.164062 485.058594 627.050781 C 484.980469 627.320312 484.742188 627.511719 484.457031 627.535156 C 484.175781 627.53125 483.910156 627.40625 483.792969 627.148438 C 482.492188 624.425781 479.207031 622.726562 476.316406 623.242188 C 473.351562 623.738281 470.84375 626.371094 470.5 629.367188 C 470.464844 629.714844 470.171875 629.96875 469.824219 629.96875 Z M 469.824219 629.96875 " fill-opacity="1" fill-rule="nonzero"/><path fill="#4e7f1c" d="M 543.4375 638.722656 C 543.394531 638.722656 543.359375 638.71875 543.3125 638.710938 C 542.941406 638.640625 542.703125 638.285156 542.773438 637.917969 C 542.941406 636.980469 542.527344 636.21875 542.144531 635.742188 C 541.375 634.789062 540.089844 634.152344 538.875 634.117188 C 536.804688 634.066406 534.6875 635.179688 532.457031 636.542969 C 532.285156 636.652344 532.066406 636.667969 531.898438 636.609375 C 531.703125 636.550781 531.550781 636.40625 531.472656 636.226562 C 530.242188 633.34375 527.75 630.96875 524.820312 629.878906 C 521.871094 628.789062 518.445312 628.972656 515.652344 630.355469 C 515.300781 630.519531 514.917969 630.375 514.742188 630.046875 C 514.574219 629.707031 514.714844 629.300781 515.050781 629.132812 C 518.167969 627.578125 522.003906 627.371094 525.296875 628.597656 C 528.328125 629.726562 530.933594 632.082031 532.394531 634.984375 C 534.191406 633.902344 536.335938 632.753906 538.707031 632.753906 C 538.769531 632.753906 538.839844 632.753906 538.914062 632.753906 C 540.542969 632.800781 542.179688 633.617188 543.207031 634.886719 C 543.996094 635.875 544.316406 637.039062 544.101562 638.164062 C 544.050781 638.492188 543.757812 638.722656 543.4375 638.722656 Z M 543.4375 638.722656 " fill-opacity="1" fill-rule="nonzero"/><path fill="#4e7f1c" d="M 562.046875 581.902344 C 561.949219 581.902344 561.851562 581.878906 561.761719 581.835938 C 561.417969 581.679688 561.265625 581.273438 561.425781 580.929688 C 563.136719 577.257812 567 574.714844 571.046875 574.609375 C 571.125 574.609375 571.214844 574.609375 571.292969 574.609375 C 574.828125 574.609375 578.292969 576.453125 580.300781 579.351562 C 582.535156 575.296875 586.730469 572.375 591.320312 571.78125 C 596.28125 571.113281 601.585938 573.25 604.746094 577.210938 C 604.976562 577.507812 604.933594 577.9375 604.640625 578.171875 C 604.347656 578.414062 603.914062 578.359375 603.683594 578.0625 C 600.824219 574.476562 596.085938 572.558594 591.496094 573.128906 C 586.953125 573.726562 582.824219 576.828125 580.984375 581.035156 C 580.886719 581.277344 580.648438 581.433594 580.390625 581.445312 C 580.382812 581.445312 580.371094 581.445312 580.363281 581.445312 C 580.117188 581.445312 579.875 581.304688 579.761719 581.078125 C 578.148438 578.003906 574.765625 575.96875 571.292969 575.96875 C 571.222656 575.96875 571.152344 575.96875 571.082031 575.976562 C 567.539062 576.0625 564.15625 578.285156 562.667969 581.507812 C 562.550781 581.753906 562.304688 581.902344 562.046875 581.902344 Z M 562.046875 581.902344 " fill-opacity="1" fill-rule="nonzero"/><path fill="#4e7f1c" d="M 626.226562 629.132812 C 625.863281 629.132812 625.5625 628.839844 625.542969 628.46875 C 625.386719 623.589844 628.351562 618.726562 632.761719 616.648438 C 636.835938 614.730469 641.964844 615.261719 645.605469 617.917969 C 646.800781 613.875 650.148438 610.519531 654.230469 609.402344 C 658.652344 608.191406 663.691406 609.671875 666.746094 613.097656 C 667.003906 613.375 666.976562 613.808594 666.695312 614.054688 C 666.421875 614.304688 665.976562 614.273438 665.738281 614.003906 C 663.011719 610.957031 658.546875 609.636719 654.585938 610.714844 C 650.644531 611.800781 647.464844 615.226562 646.675781 619.25 C 646.632812 619.492188 646.464844 619.6875 646.234375 619.761719 C 645.996094 619.839844 645.738281 619.789062 645.5625 619.628906 C 642.3125 616.746094 637.289062 616.027344 633.347656 617.878906 C 629.414062 619.738281 626.765625 624.074219 626.90625 628.425781 C 626.917969 628.804688 626.625 629.117188 626.253906 629.132812 C 626.242188 629.132812 626.234375 629.132812 626.226562 629.132812 Z M 626.226562 629.132812 " fill-opacity="1" fill-rule="nonzero"/><path fill="#4e7f1c" d="M 693.699219 608.550781 C 693.382812 608.550781 693.097656 608.328125 693.035156 608.007812 C 692.65625 606.1875 691.183594 604.660156 689.386719 604.195312 C 687.589844 603.726562 685.570312 604.371094 684.355469 605.773438 C 684.171875 605.988281 683.867188 606.070312 683.59375 605.960938 C 683.328125 605.859375 683.152344 605.597656 683.160156 605.3125 C 683.230469 602.691406 681.621094 600.105469 679.226562 599.023438 C 676.84375 597.945312 673.851562 598.429688 671.921875 600.199219 C 671.636719 600.453125 671.222656 600.433594 670.957031 600.160156 C 670.707031 599.882812 670.726562 599.449219 671 599.195312 C 673.3125 597.066406 676.90625 596.476562 679.792969 597.78125 C 682.222656 598.882812 683.984375 601.273438 684.417969 603.890625 C 685.933594 602.824219 687.90625 602.410156 689.722656 602.875 C 692.019531 603.464844 693.878906 605.414062 694.363281 607.722656 C 694.445312 608.09375 694.207031 608.457031 693.84375 608.53125 C 693.789062 608.546875 693.746094 608.550781 693.699219 608.550781 Z M 693.699219 608.550781 " fill-opacity="1" fill-rule="nonzero"/><path fill="#4e7f1c" d="M 775.902344 614.214844 C 775.867188 614.214844 775.832031 614.210938 775.796875 614.207031 C 775.425781 614.148438 775.175781 613.796875 775.230469 613.425781 C 775.878906 609.3125 773.902344 604.839844 770.429688 602.550781 C 766.976562 600.261719 762.085938 600.210938 758.5625 602.441406 C 758.367188 602.570312 758.128906 602.578125 757.90625 602.480469 C 757.703125 602.382812 757.550781 602.183594 757.523438 601.953125 C 756.914062 597.1875 752.566406 594.128906 749.03125 592.960938 C 744.726562 591.542969 739.882812 591.8125 735.59375 592.050781 C 735.585938 592.054688 735.566406 592.054688 735.558594 592.054688 C 735.195312 592.054688 734.90625 591.769531 734.878906 591.410156 C 734.859375 591.03125 735.144531 590.707031 735.523438 590.691406 C 739.933594 590.445312 744.914062 590.164062 749.457031 591.667969 C 754.230469 593.242188 757.746094 596.761719 758.695312 600.792969 C 762.566406 598.800781 767.570312 599.023438 771.175781 601.414062 C 775.082031 603.988281 777.304688 609.015625 776.578125 613.636719 C 776.523438 613.976562 776.230469 614.214844 775.902344 614.214844 Z M 775.902344 614.214844 " fill-opacity="1" fill-rule="nonzero"/><path fill="#4e7f1c" d="M 400.636719 616.53125 C 400.589844 616.53125 400.542969 616.527344 400.496094 616.511719 C 400.128906 616.433594 399.894531 616.074219 399.972656 615.707031 C 400.984375 610.984375 404.601562 606.972656 409.191406 605.492188 C 413.476562 604.09375 418.339844 605.003906 421.875 607.75 C 423.679688 603.347656 427.542969 599.917969 432.148438 598.683594 C 437.089844 597.359375 442.5 598.632812 446.328125 602 C 446.609375 602.25 446.636719 602.679688 446.390625 602.964844 C 446.125 603.238281 445.707031 603.269531 445.425781 603.019531 C 442.003906 600 436.9375 598.8125 432.503906 599.996094 C 428.082031 601.1875 424.273438 604.765625 422.820312 609.109375 C 422.75 609.324219 422.5625 609.496094 422.34375 609.550781 C 422.121094 609.617188 421.890625 609.546875 421.714844 609.398438 C 418.515625 606.480469 413.777344 605.449219 409.613281 606.789062 C 405.480469 608.125 402.214844 611.734375 401.300781 615.988281 C 401.234375 616.308594 400.953125 616.53125 400.636719 616.53125 Z M 400.636719 616.53125 " fill-opacity="1" fill-rule="nonzero"/><path fill="#4e7f1c" d="M 411.527344 580.800781 C 411.164062 580.800781 410.863281 580.507812 410.847656 580.140625 C 410.722656 576.480469 407.96875 573.03125 404.425781 572.125 C 400.882812 571.214844 396.800781 572.914062 394.945312 576.070312 C 394.8125 576.296875 394.546875 576.371094 394.292969 576.40625 C 394.027344 576.375 393.800781 576.191406 393.714844 575.9375 C 391.726562 569.914062 385.714844 565.574219 379.386719 565.574219 C 379.335938 565.574219 379.292969 565.574219 379.246094 565.578125 C 372.863281 565.640625 366.863281 570.117188 364.980469 576.222656 C 364.867188 576.585938 364.488281 576.785156 364.128906 576.675781 C 363.769531 576.566406 363.566406 576.183594 363.675781 575.824219 C 365.730469 569.164062 372.273438 564.28125 379.230469 564.210938 C 379.285156 564.210938 379.332031 564.210938 379.386719 564.210938 C 385.847656 564.210938 392 568.359375 394.539062 574.28125 C 396.921875 571.328125 401.105469 569.871094 404.761719 570.800781 C 408.863281 571.855469 412.066406 575.851562 412.210938 580.097656 C 412.21875 580.472656 411.925781 580.789062 411.554688 580.800781 C 411.546875 580.800781 411.535156 580.800781 411.527344 580.800781 Z M 411.527344 580.800781 " fill-opacity="1" fill-rule="nonzero"/><path fill="#4e7f1c" d="M 194.46875 600.398438 C 194.40625 600.398438 194.339844 600.390625 194.277344 600.367188 C 193.921875 600.265625 193.710938 599.890625 193.8125 599.523438 C 194.789062 596.171875 197.734375 593.429688 201.148438 592.710938 C 204 592.09375 207.097656 592.917969 209.359375 594.757812 C 209.570312 590.800781 211.925781 587.046875 215.480469 585.238281 C 219.578125 583.15625 224.777344 583.871094 228.144531 586.949219 C 228.421875 587.207031 228.445312 587.640625 228.191406 587.914062 C 227.929688 588.191406 227.5 588.207031 227.230469 587.960938 C 224.304688 585.292969 219.617188 584.65625 216.101562 586.453125 C 212.574219 588.246094 210.328125 592.410156 210.757812 596.347656 C 210.789062 596.648438 210.621094 596.933594 210.34375 597.050781 C 210.078125 597.183594 209.753906 597.09375 209.558594 596.863281 C 207.628906 594.554688 204.359375 593.445312 201.429688 594.039062 C 198.496094 594.664062 195.957031 597.019531 195.125 599.90625 C 195.035156 600.203125 194.765625 600.398438 194.46875 600.398438 Z M 194.46875 600.398438 " fill-opacity="1" fill-rule="nonzero"/><path fill="#4e7f1c" d="M 15.441406 613.679688 C 15.230469 613.679688 15.023438 613.578125 14.890625 613.390625 C 12.449219 609.96875 13.246094 604.738281 16.59375 602.199219 C 19.324219 600.121094 23.289062 600.175781 26.101562 602.035156 C 25.765625 598.855469 27.121094 595.355469 29.746094 593.074219 C 32.570312 590.613281 36.679688 589.429688 41.066406 589.878906 C 44.4375 590.207031 47.863281 591.367188 52.175781 593.636719 C 52.507812 593.816406 52.628906 594.222656 52.457031 594.558594 C 52.285156 594.898438 51.882812 595.023438 51.535156 594.84375 C 47.394531 592.660156 44.121094 591.546875 40.933594 591.238281 C 36.929688 590.835938 33.183594 591.886719 30.640625 594.101562 C 27.804688 596.570312 26.65625 600.632812 27.914062 603.765625 C 28.039062 604.078125 27.914062 604.4375 27.621094 604.609375 C 27.34375 604.777344 26.960938 604.710938 26.75 604.445312 C 24.609375 601.765625 20.15625 601.207031 17.417969 603.289062 C 14.679688 605.359375 14.003906 609.800781 15.996094 612.601562 C 16.214844 612.90625 16.144531 613.332031 15.835938 613.550781 C 15.71875 613.632812 15.582031 613.679688 15.441406 613.679688 Z M 15.441406 613.679688 " fill-opacity="1" fill-rule="nonzero"/></svg>