<svg xmlns="http://www.w3.org/2000/svg" xmlns:xlink="http://www.w3.org/1999/xlink" width="1920" zoomAndPan="magnify" viewBox="0 0 1440 809.999993" height="1080" preserveAspectRatio="xMidYMid meet" version="1.0"><defs><clipPath id="cabbcc89b3"><path d="M 298 51.496094 L 1142.402344 51.496094 L 1142.402344 758.746094 L 298 758.746094 Z M 298 51.496094 " clip-rule="nonzero"/></clipPath><clipPath id="4deb12171a"><path d="M 465 51.496094 L 637 51.496094 L 637 108 L 465 108 Z M 465 51.496094 " clip-rule="nonzero"/></clipPath><clipPath id="a101c60aff"><path d="M 687 702 L 744 702 L 744 758.746094 L 687 758.746094 Z M 687 702 " clip-rule="nonzero"/></clipPath><clipPath id="f7da112493"><path d="M 1086 218 L 1142.402344 218 L 1142.402344 331 L 1086 331 Z M 1086 218 " clip-rule="nonzero"/></clipPath><clipPath id="72ff7f703c"><path d="M 803 51.496094 L 976 51.496094 L 976 108 L 803 108 Z M 803 51.496094 " clip-rule="nonzero"/></clipPath><clipPath id="4fbc700563"><path d="M 696 703 L 753 703 L 753 758.746094 L 696 758.746094 Z M 696 703 " clip-rule="nonzero"/></clipPath></defs><g clip-path="url(#cabbcc89b3)"><path fill="#ed1c24" d="M 1086.496094 218.910156 L 1086.378906 218.910156 L 1086.378906 163.214844 L 1030.683594 163.214844 L 1030.683594 107.519531 L 974.976562 107.519531 L 974.976562 51.824219 L 803.601562 51.824219 L 803.601562 107.519531 L 747.902344 107.519531 L 747.902344 162.878906 L 692.195312 162.878906 L 692.195312 107.183594 L 636.5 107.183594 L 636.5 51.476562 L 465.125 51.476562 L 465.125 107.183594 L 409.417969 107.183594 L 409.417969 162.878906 L 353.722656 162.878906 L 353.722656 218.574219 L 298.023438 218.574219 L 298.023438 329.734375 L 353.605469 329.734375 L 353.605469 424.222656 L 409.3125 424.222656 L 409.3125 479.917969 L 465.007812 479.917969 L 465.007812 535.621094 L 520.707031 535.621094 L 520.707031 591.316406 L 576.402344 591.316406 L 576.402344 647.011719 L 632.097656 647.011719 L 632.097656 702.707031 L 687.804688 702.707031 L 687.804688 758.414062 L 696.597656 758.414062 L 696.597656 758.75 L 752.292969 758.75 L 752.292969 703.054688 L 808 703.054688 L 808 647.359375 L 863.699219 647.359375 L 863.699219 591.664062 L 919.394531 591.664062 L 919.394531 535.957031 L 975.089844 535.957031 L 975.089844 480.261719 L 1030.789062 480.261719 L 1030.789062 424.566406 L 1086.496094 424.566406 L 1086.496094 330.078125 L 1142.078125 330.078125 L 1142.078125 218.910156 L 1086.496094 218.910156 " fill-opacity="1" fill-rule="nonzero"/></g><path fill="#050504" d="M 298.066406 218.574219 L 298.066406 329.722656 L 353.648438 329.722656 L 353.648438 218.574219 L 298.066406 218.574219 " fill-opacity="1" fill-rule="nonzero"/><g clip-path="url(#4deb12171a)"><path fill="#050504" d="M 636.542969 107.171875 L 465.15625 107.171875 L 465.15625 51.476562 L 636.542969 51.476562 L 636.542969 107.171875 " fill-opacity="1" fill-rule="nonzero"/></g><path fill="#050504" d="M 465.15625 107.171875 L 409.460938 107.171875 L 409.460938 162.878906 L 465.15625 162.878906 L 465.15625 107.171875 " fill-opacity="1" fill-rule="nonzero"/><path fill="#050504" d="M 409.460938 162.878906 L 353.761719 162.878906 L 353.761719 218.574219 L 409.460938 218.574219 L 409.460938 162.878906 " fill-opacity="1" fill-rule="nonzero"/><path fill="#050504" d="M 353.648438 329.722656 L 353.648438 424.222656 L 409.34375 424.222656 L 409.34375 329.722656 L 353.648438 329.722656 " fill-opacity="1" fill-rule="nonzero"/><path fill="#050504" d="M 465.039062 424.222656 L 409.34375 424.222656 L 409.34375 479.917969 L 465.039062 479.917969 L 465.039062 424.222656 " fill-opacity="1" fill-rule="nonzero"/><path fill="#050504" d="M 520.746094 479.917969 L 465.039062 479.917969 L 465.039062 535.621094 L 520.746094 535.621094 L 520.746094 479.917969 " fill-opacity="1" fill-rule="nonzero"/><path fill="#050504" d="M 576.445312 535.621094 L 520.746094 535.621094 L 520.746094 591.316406 L 576.445312 591.316406 L 576.445312 535.621094 " fill-opacity="1" fill-rule="nonzero"/><path fill="#050504" d="M 632.140625 591.316406 L 576.445312 591.316406 L 576.445312 647.011719 L 632.140625 647.011719 L 632.140625 591.316406 " fill-opacity="1" fill-rule="nonzero"/><path fill="#050504" d="M 687.835938 647.011719 L 632.140625 647.011719 L 632.140625 702.707031 L 687.835938 702.707031 L 687.835938 647.011719 " fill-opacity="1" fill-rule="nonzero"/><g clip-path="url(#a101c60aff)"><path fill="#050504" d="M 743.535156 702.707031 L 687.835938 702.707031 L 687.835938 758.414062 L 743.535156 758.414062 L 743.535156 702.707031 " fill-opacity="1" fill-rule="nonzero"/></g><path fill="#050504" d="M 636.542969 107.171875 L 692.238281 107.171875 L 692.238281 162.878906 L 636.542969 162.878906 L 636.542969 107.171875 " fill-opacity="1" fill-rule="nonzero"/><path fill="#050504" d="M 692.238281 162.878906 L 747.933594 162.878906 L 747.933594 218.574219 L 692.238281 218.574219 L 692.238281 162.878906 " fill-opacity="1" fill-rule="nonzero"/><g clip-path="url(#f7da112493)"><path fill="#050504" d="M 1142.117188 218.929688 L 1142.117188 330.078125 L 1086.527344 330.078125 L 1086.527344 218.929688 L 1142.117188 218.929688 " fill-opacity="1" fill-rule="nonzero"/></g><g clip-path="url(#72ff7f703c)"><path fill="#050504" d="M 803.640625 107.53125 L 975.019531 107.53125 L 975.019531 51.835938 L 803.640625 51.835938 L 803.640625 107.53125 " fill-opacity="1" fill-rule="nonzero"/></g><path fill="#050504" d="M 975.019531 107.53125 L 1030.714844 107.53125 L 1030.714844 163.226562 L 975.019531 163.226562 L 975.019531 107.53125 " fill-opacity="1" fill-rule="nonzero"/><path fill="#050504" d="M 1030.714844 163.226562 L 1086.410156 163.226562 L 1086.410156 218.929688 L 1030.714844 218.929688 L 1030.714844 163.226562 " fill-opacity="1" fill-rule="nonzero"/><path fill="#050504" d="M 1086.527344 330.078125 L 1086.527344 424.578125 L 1030.832031 424.578125 L 1030.832031 330.078125 L 1086.527344 330.078125 " fill-opacity="1" fill-rule="nonzero"/><path fill="#050504" d="M 975.132812 424.578125 L 1030.832031 424.578125 L 1030.832031 480.273438 L 975.132812 480.273438 L 975.132812 424.578125 " fill-opacity="1" fill-rule="nonzero"/><path fill="#050504" d="M 919.4375 480.273438 L 975.132812 480.273438 L 975.132812 535.980469 L 919.4375 535.980469 L 919.4375 480.273438 " fill-opacity="1" fill-rule="nonzero"/><path fill="#050504" d="M 863.730469 535.980469 L 919.4375 535.980469 L 919.4375 591.675781 L 863.730469 591.675781 L 863.730469 535.980469 " fill-opacity="1" fill-rule="nonzero"/><path fill="#050504" d="M 808.035156 591.675781 L 863.730469 591.675781 L 863.730469 647.371094 L 808.035156 647.371094 L 808.035156 591.675781 " fill-opacity="1" fill-rule="nonzero"/><path fill="#050504" d="M 752.335938 647.371094 L 808.035156 647.371094 L 808.035156 703.0625 L 752.335938 703.0625 L 752.335938 647.371094 " fill-opacity="1" fill-rule="nonzero"/><g clip-path="url(#4fbc700563)"><path fill="#050504" d="M 696.640625 703.0625 L 752.335938 703.0625 L 752.335938 758.757812 L 696.640625 758.757812 L 696.640625 703.0625 " fill-opacity="1" fill-rule="nonzero"/></g><path fill="#050504" d="M 803.640625 107.53125 L 747.933594 107.53125 L 747.933594 163.226562 L 803.640625 163.226562 L 803.640625 107.53125 " fill-opacity="1" fill-rule="nonzero"/><path fill="#ffffff" d="M 555.875 163.226562 L 500.179688 163.226562 L 500.179688 218.929688 L 555.875 218.929688 L 555.875 163.226562 " fill-opacity="1" fill-rule="nonzero"/><path fill="#ffffff" d="M 500.179688 218.929688 L 444.472656 218.929688 L 444.472656 274.625 L 500.179688 274.625 L 500.179688 218.929688 " fill-opacity="1" fill-rule="nonzero"/></svg>