<svg xmlns="http://www.w3.org/2000/svg" xmlns:xlink="http://www.w3.org/1999/xlink" width="400" zoomAndPan="magnify" viewBox="0 0 300 74.999997" height="100" preserveAspectRatio="xMidYMid meet" version="1.0"><defs><g/></defs><g fill="#ffffff" fill-opacity="1"><g transform="translate(2.553889, 52.205455)"><g><path d="M 10.289062 0 L 37.722656 0 L 37.722656 -6.859375 L 10.289062 -6.859375 Z M 3.429688 -6.859375 L 10.289062 -6.859375 L 10.289062 -34.292969 L 3.429688 -34.292969 Z M 3.429688 -6.859375 "/></g></g></g><g fill="#ffffff" fill-opacity="1"><g transform="translate(43.698338, 52.205455)"><g><path d="M 3.429688 0 L 37.722656 0 L 37.722656 -6.859375 L 10.289062 -6.859375 L 10.289062 -13.714844 L 30.863281 -13.714844 L 30.863281 -20.574219 L 10.289062 -20.574219 L 10.289062 -27.433594 L 37.722656 -27.433594 L 37.722656 -34.292969 L 3.429688 -34.292969 Z M 3.429688 0 "/></g></g></g><g fill="#ffffff" fill-opacity="1"><g transform="translate(84.842786, 52.205455)"><g><path d="M 30.863281 -13.714844 L 24.003906 -13.714844 L 24.003906 -6.859375 L 30.863281 -6.859375 Z M 3.429688 -13.714844 L 10.289062 -13.714844 L 10.289062 -34.292969 L 3.429688 -34.292969 Z M 10.289062 -6.859375 L 17.144531 -6.859375 L 17.144531 -13.714844 L 10.289062 -13.714844 Z M 17.144531 0 L 24.003906 0 L 24.003906 -6.859375 L 17.144531 -6.859375 Z M 30.863281 -13.714844 L 37.722656 -13.714844 L 37.722656 -34.292969 L 30.863281 -34.292969 Z M 30.863281 -13.714844 "/></g></g></g><g fill="#ffffff" fill-opacity="1"><g transform="translate(125.987235, 52.205455)"><g><path d="M 3.429688 0 L 37.722656 0 L 37.722656 -6.859375 L 10.289062 -6.859375 L 10.289062 -13.714844 L 30.863281 -13.714844 L 30.863281 -20.574219 L 10.289062 -20.574219 L 10.289062 -27.433594 L 37.722656 -27.433594 L 37.722656 -34.292969 L 3.429688 -34.292969 Z M 3.429688 0 "/></g></g></g><g fill="#ffffff" fill-opacity="1"><g transform="translate(167.131683, 52.205455)"><g><path d="M 10.289062 0 L 37.722656 0 L 37.722656 -6.859375 L 10.289062 -6.859375 Z M 3.429688 -6.859375 L 10.289062 -6.859375 L 10.289062 -34.292969 L 3.429688 -34.292969 Z M 3.429688 -6.859375 "/></g></g></g><g fill="#ffffff" fill-opacity="1"><g transform="translate(208.276131, 52.205455)"><g/></g></g><g fill="#ffffff" fill-opacity="1"><g transform="translate(228.848356, 52.205455)"><g><path d="M 30.863281 -6.859375 L 10.289062 -6.859375 L 10.289062 0 L 30.863281 0 Z M 3.429688 -6.859375 L 10.289062 -6.859375 L 10.289062 -27.433594 L 3.429688 -27.433594 Z M 10.289062 -27.433594 L 30.863281 -27.433594 L 30.863281 -34.292969 L 10.289062 -34.292969 Z M 17.144531 -13.714844 L 24.003906 -13.714844 L 24.003906 -20.574219 L 17.144531 -20.574219 Z M 30.863281 -6.859375 L 37.722656 -6.859375 L 37.722656 -27.433594 L 30.863281 -27.433594 Z M 30.863281 -6.859375 "/></g></g></g><g fill="#ffffff" fill-opacity="1"><g transform="translate(269.992804, 52.205455)"><g><path d="M 3.429688 0 L 24.003906 0 L 24.003906 -6.859375 L 17.144531 -6.859375 L 17.144531 -34.292969 L 3.429688 -34.292969 L 3.429688 -27.433594 L 10.289062 -27.433594 L 10.289062 -6.859375 L 3.429688 -6.859375 Z M 3.429688 0 "/></g></g></g></svg>