<svg xmlns="http://www.w3.org/2000/svg" xmlns:xlink="http://www.w3.org/1999/xlink" width="1920" zoomAndPan="magnify" viewBox="0 0 1440 809.999993" height="1080" preserveAspectRatio="xMidYMid meet" version="1.0"><defs><clipPath id="3313bdd510"><path d="M 582 45 L 871.417969 45 L 871.417969 742 L 582 742 Z M 582 45 " clip-rule="nonzero"/></clipPath><clipPath id="cb8061b009"><path d="M 558.667969 45 L 849 45 L 849 742 L 558.667969 742 Z M 558.667969 45 " clip-rule="nonzero"/></clipPath></defs><path fill="#000000" d="M 767.242188 231 L 767.242188 254.171875 L 778.835938 254.171875 L 778.835938 277.347656 L 790.425781 277.347656 L 790.425781 300.519531 L 802.015625 300.519531 L 802.015625 323.691406 L 813.609375 323.691406 L 813.609375 346.867188 L 825.199219 346.867188 L 825.199219 370.039062 L 836.792969 370.039062 L 836.792969 485.980469 L 825.199219 485.980469 L 825.199219 497.566406 L 813.609375 497.566406 L 813.609375 520.742188 L 825.199219 520.742188 L 825.199219 543.914062 L 836.792969 543.914062 L 836.792969 578.675781 L 825.199219 578.675781 L 825.199219 694.613281 L 836.792969 694.613281 L 836.792969 706.199219 L 859.902344 706.199219 L 859.902344 717.789062 C 844.445312 717.789062 829.0625 717.789062 813.609375 717.789062 L 813.609375 706.199219 L 802.015625 706.199219 L 802.015625 671.441406 L 790.425781 671.441406 L 790.425781 613.507812 L 778.835938 613.507812 L 778.835938 729.449219 L 801.945312 729.449219 L 801.945312 741.035156 L 767.242188 741.035156 L 767.242188 729.449219 L 755.652344 729.449219 L 755.652344 671.515625 L 744.058594 671.515625 L 744.058594 590.332031 L 732.46875 590.332031 L 732.46875 694.6875 L 720.875 694.6875 L 720.875 752.621094 L 709.285156 752.621094 L 709.285156 694.6875 L 697.695312 694.6875 L 697.695312 590.332031 L 686.25 590.332031 L 686.25 671.515625 L 674.65625 671.515625 L 674.65625 729.449219 L 663.066406 729.449219 L 663.066406 741.035156 L 628.363281 741.035156 L 628.363281 729.449219 L 651.472656 729.449219 L 651.472656 613.582031 L 639.882812 613.582031 L 639.882812 671.515625 L 628.292969 671.515625 L 628.292969 706.273438 L 616.699219 706.273438 L 616.699219 717.859375 L 570.40625 717.859375 L 570.40625 706.273438 L 593.515625 706.273438 L 593.515625 694.6875 L 605.109375 694.6875 L 605.109375 578.746094 L 593.664062 578.746094 L 593.664062 543.988281 L 605.253906 543.988281 L 605.253906 520.8125 L 616.84375 520.8125 L 616.84375 497.640625 L 605.253906 497.640625 L 605.253906 486.054688 L 593.664062 486.054688 L 593.664062 370.113281 L 605.253906 370.113281 L 605.253906 346.9375 L 616.84375 346.9375 L 616.84375 323.765625 L 628.4375 323.765625 L 628.4375 300.59375 L 640.027344 300.59375 L 640.027344 277.417969 L 651.621094 277.417969 L 651.621094 254.246094 L 663.210938 254.246094 L 663.210938 231.070312 L 640.101562 231.070312 L 640.101562 219.484375 L 628.511719 219.484375 L 628.511719 149.890625 L 640.101562 149.890625 L 640.101562 126.71875 L 651.691406 126.71875 L 651.691406 115.058594 L 663.285156 115.058594 L 663.285156 103.472656 L 674.875 103.472656 L 674.875 91.886719 L 686.46875 91.886719 L 686.46875 80.296875 L 698.058594 80.296875 L 698.058594 68.710938 L 709.648438 68.710938 L 709.648438 57.125 L 721.242188 57.125 L 721.242188 68.710938 L 732.832031 68.710938 L 732.832031 80.296875 L 744.425781 80.296875 L 744.425781 91.886719 L 756.015625 91.886719 L 756.015625 103.472656 L 767.605469 103.472656 L 767.605469 115.058594 L 779.199219 115.058594 L 779.199219 126.644531 L 790.789062 126.644531 L 790.789062 149.820312 L 802.382812 149.820312 L 802.382812 219.414062 L 790.789062 219.414062 L 790.789062 231 Z M 767.242188 231 " fill-opacity="1" fill-rule="evenodd"/><path fill="#000000" d="M 767.242188 207.824219 L 767.242188 231 L 778.835938 231 L 778.835938 254.171875 L 790.425781 254.171875 L 790.425781 277.347656 L 802.015625 277.347656 L 802.015625 300.519531 L 813.609375 300.519531 L 813.609375 323.691406 L 825.199219 323.691406 L 825.199219 346.867188 L 836.792969 346.867188 L 836.792969 462.808594 L 825.199219 462.808594 L 825.199219 474.394531 L 813.609375 474.394531 L 813.609375 497.566406 L 825.199219 497.566406 L 825.199219 520.742188 L 836.792969 520.742188 L 836.792969 555.5 L 825.199219 555.5 L 825.199219 671.441406 L 836.792969 671.441406 L 836.792969 683.027344 L 859.902344 683.027344 L 859.902344 694.613281 C 844.445312 694.613281 829.0625 694.613281 813.609375 694.613281 L 813.609375 683.027344 L 802.015625 683.027344 L 802.015625 648.265625 L 790.425781 648.265625 L 790.425781 590.332031 L 778.835938 590.332031 L 778.835938 706.273438 L 801.945312 706.273438 L 801.945312 717.859375 L 767.242188 717.859375 L 767.242188 706.273438 L 755.652344 706.273438 L 755.652344 648.339844 L 744.058594 648.339844 L 744.058594 567.160156 L 732.46875 567.160156 L 732.46875 671.515625 L 720.875 671.515625 L 720.875 729.449219 L 709.285156 729.449219 L 709.285156 671.515625 L 697.695312 671.515625 L 697.695312 567.160156 L 686.25 567.160156 L 686.25 648.339844 L 674.65625 648.339844 L 674.65625 706.273438 L 663.066406 706.273438 L 663.066406 717.859375 L 628.363281 717.859375 L 628.363281 706.273438 L 651.472656 706.273438 L 651.472656 590.332031 L 639.882812 590.332031 L 639.882812 648.265625 L 628.292969 648.265625 L 628.292969 683.027344 L 616.699219 683.027344 L 616.699219 694.613281 L 570.40625 694.613281 L 570.40625 683.027344 L 593.515625 683.027344 L 593.515625 671.441406 L 605.109375 671.441406 L 605.109375 555.574219 L 593.664062 555.574219 L 593.664062 520.8125 L 605.253906 520.8125 L 605.253906 497.640625 L 616.84375 497.640625 L 616.84375 474.464844 L 605.253906 474.464844 L 605.253906 462.878906 L 593.664062 462.878906 L 593.664062 346.9375 L 605.253906 346.9375 L 605.253906 323.765625 L 616.84375 323.765625 L 616.84375 300.59375 L 628.4375 300.59375 L 628.4375 277.417969 L 640.027344 277.417969 L 640.027344 254.246094 L 651.621094 254.246094 L 651.621094 231.070312 L 663.210938 231.070312 L 663.210938 207.898438 L 640.101562 207.898438 L 640.101562 196.3125 L 628.511719 196.3125 L 628.511719 126.71875 L 640.101562 126.71875 L 640.101562 103.542969 L 651.691406 103.542969 L 651.691406 91.957031 L 663.285156 91.957031 L 663.285156 80.371094 L 674.875 80.371094 L 674.875 68.785156 L 686.46875 68.785156 L 686.46875 57.199219 L 698.058594 57.199219 L 698.058594 45.609375 L 709.648438 45.609375 L 709.648438 34.023438 L 721.242188 34.023438 L 721.242188 45.609375 L 732.832031 45.609375 L 732.832031 57.199219 L 744.425781 57.199219 L 744.425781 68.785156 L 756.015625 68.785156 L 756.015625 80.371094 L 767.605469 80.371094 L 767.605469 91.957031 L 779.199219 91.957031 L 779.199219 103.542969 L 790.789062 103.542969 L 790.789062 126.71875 L 802.382812 126.71875 L 802.382812 196.3125 L 790.789062 196.3125 L 790.789062 207.898438 L 767.242188 207.898438 Z M 767.242188 207.824219 " fill-opacity="1" fill-rule="evenodd"/><g clip-path="url(#3313bdd510)"><path fill="#000000" d="M 778.835938 219.414062 L 778.835938 242.585938 L 790.425781 242.585938 L 790.425781 265.757812 L 802.015625 265.757812 L 802.015625 288.933594 L 813.609375 288.933594 L 813.609375 312.105469 L 825.199219 312.105469 L 825.199219 335.28125 L 836.792969 335.28125 L 836.792969 358.453125 L 848.382812 358.453125 L 848.382812 474.394531 L 836.792969 474.394531 L 836.792969 485.980469 L 825.199219 485.980469 L 825.199219 509.152344 L 836.792969 509.152344 L 836.792969 532.328125 L 848.382812 532.328125 L 848.382812 567.085938 L 836.792969 567.085938 L 836.792969 683.027344 L 848.382812 683.027344 L 848.382812 694.613281 L 871.492188 694.613281 L 871.492188 706.199219 C 856.039062 706.199219 840.65625 706.199219 825.199219 706.199219 L 825.199219 694.613281 L 813.609375 694.613281 L 813.609375 659.855469 L 802.015625 659.855469 L 802.015625 601.921875 L 790.425781 601.921875 L 790.425781 717.859375 L 813.535156 717.859375 L 813.535156 729.449219 L 778.835938 729.449219 L 778.835938 717.859375 L 767.242188 717.859375 L 767.242188 659.925781 L 755.652344 659.925781 L 755.652344 578.746094 L 744.058594 578.746094 L 744.058594 683.101562 L 732.46875 683.101562 L 732.46875 741.035156 L 720.875 741.035156 L 720.875 683.101562 L 709.285156 683.101562 L 709.285156 578.746094 L 697.695312 578.746094 L 697.695312 659.925781 L 686.25 659.925781 L 686.25 717.859375 L 674.65625 717.859375 L 674.65625 729.449219 L 639.957031 729.449219 L 639.957031 717.859375 L 663.066406 717.859375 L 663.066406 601.992188 L 651.472656 601.992188 L 651.472656 659.925781 L 639.882812 659.925781 L 639.882812 694.6875 L 628.292969 694.6875 L 628.292969 706.273438 L 582 706.273438 L 582 694.6875 L 605.109375 694.6875 L 605.109375 683.101562 L 616.699219 683.101562 L 616.699219 567.160156 L 605.109375 567.160156 L 605.109375 532.398438 L 616.699219 532.398438 L 616.699219 509.226562 L 628.292969 509.226562 L 628.292969 486.054688 L 616.699219 486.054688 L 616.699219 474.464844 L 605.109375 474.464844 L 605.109375 358.527344 L 616.699219 358.527344 L 616.699219 335.351562 L 628.292969 335.351562 L 628.292969 312.179688 L 639.882812 312.179688 L 639.882812 289.003906 L 651.472656 289.003906 L 651.472656 265.832031 L 663.066406 265.832031 L 663.066406 242.585938 L 674.65625 242.585938 L 674.65625 219.414062 L 651.546875 219.414062 L 651.546875 207.824219 L 639.957031 207.824219 L 639.957031 138.230469 L 651.546875 138.230469 L 651.546875 115.058594 L 663.136719 115.058594 L 663.136719 103.472656 L 674.730469 103.472656 L 674.730469 91.886719 L 686.320312 91.886719 L 686.320312 80.296875 L 697.914062 80.296875 L 697.914062 68.710938 L 709.503906 68.710938 L 709.503906 57.125 L 721.09375 57.125 L 721.09375 45.539062 L 732.6875 45.539062 L 732.6875 57.125 L 744.277344 57.125 L 744.277344 68.710938 L 755.871094 68.710938 L 755.871094 80.296875 L 767.460938 80.296875 L 767.460938 91.886719 L 779.054688 91.886719 L 779.054688 103.472656 L 790.644531 103.472656 L 790.644531 115.058594 L 802.234375 115.058594 L 802.234375 138.230469 L 813.828125 138.230469 L 813.828125 207.824219 L 802.234375 207.824219 L 802.234375 219.414062 Z M 778.835938 219.414062 " fill-opacity="1" fill-rule="evenodd"/></g><g clip-path="url(#cb8061b009)"><path fill="#000000" d="M 755.722656 219.414062 L 755.722656 242.585938 L 767.316406 242.585938 L 767.316406 265.757812 L 778.90625 265.757812 L 778.90625 288.933594 L 790.5 288.933594 L 790.5 312.105469 L 802.089844 312.105469 L 802.089844 335.28125 L 813.679688 335.28125 L 813.679688 358.453125 L 825.273438 358.453125 L 825.273438 474.394531 L 813.679688 474.394531 L 813.679688 485.980469 L 802.089844 485.980469 L 802.089844 509.152344 L 813.679688 509.152344 L 813.679688 532.328125 L 825.273438 532.328125 L 825.273438 567.085938 L 813.679688 567.085938 L 813.679688 683.027344 L 825.273438 683.027344 L 825.273438 694.613281 L 848.382812 694.613281 L 848.382812 706.199219 C 832.925781 706.199219 817.546875 706.199219 802.089844 706.199219 L 802.089844 694.613281 L 790.5 694.613281 L 790.5 659.855469 L 778.835938 659.855469 L 778.835938 601.921875 L 767.242188 601.921875 L 767.242188 717.859375 L 790.351562 717.859375 L 790.351562 729.449219 L 755.652344 729.449219 L 755.652344 717.859375 L 744.058594 717.859375 L 744.058594 659.925781 L 732.46875 659.925781 L 732.46875 578.746094 L 720.875 578.746094 L 720.875 683.101562 L 709.285156 683.101562 L 709.285156 741.035156 L 697.695312 741.035156 L 697.695312 683.101562 L 686.25 683.101562 L 686.25 578.746094 L 674.65625 578.746094 L 674.65625 659.925781 L 663.066406 659.925781 L 663.066406 717.859375 L 651.472656 717.859375 L 651.472656 729.449219 L 616.773438 729.449219 L 616.773438 717.859375 L 639.882812 717.859375 L 639.882812 601.992188 L 628.292969 601.992188 L 628.292969 659.925781 L 616.699219 659.925781 L 616.699219 694.6875 L 605.109375 694.6875 L 605.109375 706.273438 L 558.816406 706.273438 L 558.816406 694.6875 L 581.925781 694.6875 L 581.925781 683.101562 L 593.515625 683.101562 L 593.515625 567.160156 L 581.925781 567.160156 L 581.925781 532.398438 L 593.515625 532.398438 L 593.515625 509.226562 L 605.109375 509.226562 L 605.109375 486.054688 L 593.664062 486.054688 L 593.664062 474.464844 L 582.070312 474.464844 L 582.070312 358.527344 L 593.664062 358.527344 L 593.664062 335.351562 L 605.253906 335.351562 L 605.253906 312.179688 L 616.84375 312.179688 L 616.84375 289.003906 L 628.4375 289.003906 L 628.4375 265.832031 L 640.027344 265.832031 L 640.027344 242.585938 L 651.621094 242.585938 L 651.621094 219.414062 L 628.511719 219.414062 L 628.511719 207.824219 L 616.917969 207.824219 L 616.917969 138.230469 L 628.511719 138.230469 L 628.511719 115.058594 L 640.101562 115.058594 L 640.101562 103.472656 L 651.691406 103.472656 L 651.691406 91.886719 L 663.285156 91.886719 L 663.285156 80.296875 L 674.875 80.296875 L 674.875 68.710938 L 686.46875 68.710938 L 686.46875 57.125 L 698.058594 57.125 L 698.058594 45.539062 L 709.648438 45.539062 L 709.648438 57.125 L 721.242188 57.125 L 721.242188 68.710938 L 732.832031 68.710938 L 732.832031 80.296875 L 744.425781 80.296875 L 744.425781 91.886719 L 756.015625 91.886719 L 756.015625 103.472656 L 767.605469 103.472656 L 767.605469 115.058594 L 779.199219 115.058594 L 779.199219 138.230469 L 790.789062 138.230469 L 790.789062 207.824219 L 778.835938 207.824219 L 778.835938 219.414062 Z M 755.722656 219.414062 " fill-opacity="1" fill-rule="evenodd"/></g><path fill="#ff0000" d="M 767.242188 219.414062 L 767.242188 242.585938 L 778.835938 242.585938 L 778.835938 265.757812 L 790.425781 265.757812 L 790.425781 288.933594 L 802.015625 288.933594 L 802.015625 312.105469 L 813.609375 312.105469 L 813.609375 335.28125 L 825.199219 335.28125 L 825.199219 358.453125 L 836.792969 358.453125 L 836.792969 474.394531 L 825.199219 474.394531 L 825.199219 485.980469 L 813.609375 485.980469 L 813.609375 509.152344 L 825.199219 509.152344 L 825.199219 532.328125 L 836.792969 532.328125 L 836.792969 567.085938 L 825.199219 567.085938 L 825.199219 683.027344 L 836.792969 683.027344 L 836.792969 694.613281 L 859.902344 694.613281 L 859.902344 706.199219 C 844.445312 706.199219 829.0625 706.199219 813.609375 706.199219 L 813.609375 694.613281 L 802.015625 694.613281 L 802.015625 659.855469 L 790.425781 659.855469 L 790.425781 601.921875 L 778.835938 601.921875 L 778.835938 717.859375 L 801.945312 717.859375 L 801.945312 729.449219 L 767.242188 729.449219 L 767.242188 717.859375 L 755.652344 717.859375 L 755.652344 659.925781 L 744.058594 659.925781 L 744.058594 578.746094 L 732.46875 578.746094 L 732.46875 683.101562 L 720.875 683.101562 L 720.875 741.035156 L 709.285156 741.035156 L 709.285156 683.101562 L 697.695312 683.101562 L 697.695312 578.746094 L 686.25 578.746094 L 686.25 659.925781 L 674.65625 659.925781 L 674.65625 717.859375 L 663.066406 717.859375 L 663.066406 729.449219 L 628.363281 729.449219 L 628.363281 717.859375 L 651.472656 717.859375 L 651.472656 601.992188 L 639.882812 601.992188 L 639.882812 659.925781 L 628.292969 659.925781 L 628.292969 694.6875 L 616.699219 694.6875 L 616.699219 706.273438 L 570.40625 706.273438 L 570.40625 694.6875 L 593.515625 694.6875 L 593.515625 683.101562 L 605.109375 683.101562 L 605.109375 567.160156 L 593.664062 567.160156 L 593.664062 532.398438 L 605.253906 532.398438 L 605.253906 509.226562 L 616.84375 509.226562 L 616.84375 486.054688 L 605.253906 486.054688 L 605.253906 474.464844 L 593.664062 474.464844 L 593.664062 358.527344 L 605.253906 358.527344 L 605.253906 335.351562 L 616.84375 335.351562 L 616.84375 312.179688 L 628.4375 312.179688 L 628.4375 289.003906 L 640.027344 289.003906 L 640.027344 265.832031 L 651.621094 265.832031 L 651.621094 242.585938 L 663.210938 242.585938 L 663.210938 219.414062 L 640.101562 219.414062 L 640.101562 207.824219 L 628.511719 207.824219 L 628.511719 138.230469 L 640.101562 138.230469 L 640.101562 115.058594 L 651.691406 115.058594 L 651.691406 103.472656 L 663.285156 103.472656 L 663.285156 91.886719 L 674.875 91.886719 L 674.875 80.296875 L 686.46875 80.296875 L 686.46875 68.710938 L 698.058594 68.710938 L 698.058594 57.125 L 709.648438 57.125 L 709.648438 45.539062 L 721.242188 45.539062 L 721.242188 57.125 L 732.832031 57.125 L 732.832031 68.710938 L 744.425781 68.710938 L 744.425781 80.296875 L 756.015625 80.296875 L 756.015625 91.886719 L 767.605469 91.886719 L 767.605469 103.472656 L 779.199219 103.472656 L 779.199219 115.058594 L 790.789062 115.058594 L 790.789062 138.230469 L 802.382812 138.230469 L 802.382812 207.824219 L 790.789062 207.824219 L 790.789062 219.414062 Z M 767.242188 219.414062 " fill-opacity="1" fill-rule="evenodd"/><path fill="#ffffff" d="M 709.429688 335.351562 L 674.730469 335.351562 L 674.730469 346.9375 L 663.136719 346.9375 L 663.136719 358.527344 L 651.546875 358.527344 L 651.546875 381.699219 L 639.957031 381.699219 L 639.957031 404.875 L 651.546875 404.875 L 651.546875 428.046875 L 663.136719 428.046875 L 663.136719 439.632812 L 674.730469 439.632812 L 674.730469 451.21875 C 701.703125 451.21875 728.75 451.21875 755.722656 451.21875 L 755.722656 439.632812 L 767.316406 439.632812 L 767.316406 428.046875 L 778.90625 428.046875 L 778.90625 404.875 L 790.5 404.875 L 790.5 381.699219 L 778.835938 381.699219 L 778.835938 358.527344 L 767.242188 358.527344 L 767.242188 346.9375 L 755.652344 346.9375 L 755.652344 335.351562 Z M 709.429688 335.351562 " fill-opacity="1" fill-rule="evenodd"/><path fill="#000000" d="M 720.949219 428.046875 L 709.429688 428.046875 L 709.429688 404.875 L 697.839844 404.875 L 697.839844 428.046875 L 686.25 428.046875 L 686.25 416.460938 L 674.65625 416.460938 L 674.65625 370.113281 L 686.25 370.113281 L 686.25 358.527344 L 720.949219 358.527344 L 720.949219 381.699219 L 744.132812 381.699219 L 744.132812 370.113281 L 755.722656 370.113281 L 755.722656 416.460938 L 744.132812 416.460938 L 744.132812 428.046875 Z M 720.949219 428.046875 " fill-opacity="1" fill-rule="evenodd"/><path fill="#b40805" d="M 709.429688 312.105469 L 744.132812 312.105469 L 744.132812 323.691406 L 755.722656 323.691406 L 755.722656 335.28125 L 767.316406 335.28125 L 767.316406 346.867188 L 778.90625 346.867188 L 778.90625 358.453125 L 790.5 358.453125 L 790.5 381.625 L 802.089844 381.625 L 802.089844 404.800781 L 790.5 404.800781 L 790.5 427.972656 L 778.835938 427.972656 L 778.835938 439.558594 L 767.242188 439.558594 L 767.242188 451.148438 L 755.652344 451.148438 L 755.652344 462.734375 L 744.058594 462.734375 L 744.058594 474.320312 L 686.25 474.320312 L 686.25 462.734375 L 674.65625 462.734375 L 674.65625 451.148438 L 663.066406 451.148438 L 663.066406 439.558594 L 651.472656 439.558594 L 651.472656 427.972656 L 639.882812 427.972656 L 639.882812 404.800781 L 628.292969 404.800781 L 628.292969 381.625 L 639.882812 381.625 L 639.882812 358.453125 L 651.472656 358.453125 L 651.472656 346.867188 L 663.066406 346.867188 L 663.066406 335.28125 L 674.65625 335.28125 L 674.65625 323.691406 L 686.25 323.691406 L 686.25 312.105469 Z M 709.429688 451.21875 C 724.886719 451.21875 740.269531 451.21875 755.722656 451.21875 L 755.722656 439.632812 L 767.316406 439.632812 L 767.316406 428.046875 L 778.90625 428.046875 L 778.90625 404.875 L 790.5 404.875 L 790.5 381.699219 L 778.835938 381.699219 L 778.835938 358.527344 L 767.242188 358.527344 L 767.242188 346.9375 L 755.652344 346.9375 L 755.652344 335.351562 L 674.65625 335.351562 L 674.65625 346.9375 L 663.066406 346.9375 L 663.066406 358.527344 L 651.472656 358.527344 L 651.472656 381.699219 L 639.882812 381.699219 L 639.882812 404.875 L 651.472656 404.875 L 651.472656 428.046875 L 663.066406 428.046875 L 663.066406 439.632812 L 674.65625 439.632812 L 674.65625 451.21875 Z M 709.429688 451.21875 " fill-opacity="1" fill-rule="evenodd"/><path fill="#b40805" d="M 825.125 706.273438 L 813.535156 706.273438 L 813.535156 694.6875 L 801.945312 694.6875 L 801.945312 659.925781 L 790.351562 659.925781 L 790.351562 567.160156 L 801.945312 567.160156 L 801.945312 532.398438 L 790.351562 532.398438 L 790.351562 520.8125 L 778.835938 520.8125 L 778.835938 509.226562 C 786.5625 509.226562 794.289062 509.226562 801.945312 509.226562 L 801.945312 497.640625 L 813.535156 497.640625 L 813.535156 509.226562 L 825.125 509.226562 L 825.125 532.398438 L 836.71875 532.398438 L 836.71875 567.160156 L 825.125 567.160156 L 825.125 683.101562 L 836.71875 683.101562 L 836.71875 694.6875 L 859.828125 694.6875 L 859.828125 706.273438 Z M 605.253906 706.273438 L 616.84375 706.273438 L 616.84375 694.6875 L 628.4375 694.6875 L 628.4375 659.925781 L 640.027344 659.925781 L 640.027344 567.160156 L 628.4375 567.160156 L 628.4375 532.398438 L 640.027344 532.398438 L 640.027344 520.8125 L 651.621094 520.8125 L 651.621094 509.226562 C 643.890625 509.226562 636.164062 509.226562 628.511719 509.226562 L 628.511719 497.640625 L 616.917969 497.640625 L 616.917969 509.226562 L 605.328125 509.226562 L 605.328125 532.398438 L 593.664062 532.398438 L 593.664062 567.160156 L 605.253906 567.160156 L 605.253906 683.101562 L 593.664062 683.101562 L 593.664062 694.6875 L 570.554688 694.6875 L 570.554688 706.273438 Z M 605.253906 706.273438 " fill-opacity="1" fill-rule="evenodd"/><path fill="#b40805" d="M 778.835938 219.414062 L 767.242188 219.414062 L 767.242188 196.238281 L 755.652344 196.238281 L 755.652344 173.066406 L 744.058594 173.066406 L 744.058594 149.890625 L 732.46875 149.890625 L 732.46875 138.304688 L 720.875 138.304688 L 720.875 68.710938 L 709.285156 68.710938 L 709.285156 138.304688 L 697.695312 138.304688 L 697.695312 149.890625 L 686.25 149.890625 L 686.25 173.066406 L 674.65625 173.066406 L 674.65625 196.238281 L 663.066406 196.238281 L 663.066406 219.414062 L 639.957031 219.414062 L 639.957031 207.824219 L 628.363281 207.824219 L 628.363281 138.230469 L 639.957031 138.230469 L 639.957031 115.058594 L 651.546875 115.058594 L 651.546875 103.472656 L 663.136719 103.472656 L 663.136719 91.886719 L 674.730469 91.886719 L 674.730469 80.296875 L 686.320312 80.296875 L 686.320312 68.710938 L 697.914062 68.710938 L 697.914062 57.125 L 709.503906 57.125 L 709.503906 45.539062 L 721.09375 45.539062 L 721.09375 57.125 L 732.6875 57.125 L 732.6875 68.710938 L 744.277344 68.710938 L 744.277344 80.296875 L 755.871094 80.296875 L 755.871094 91.886719 L 767.460938 91.886719 L 767.460938 103.472656 L 779.054688 103.472656 L 779.054688 115.058594 L 790.644531 115.058594 L 790.644531 138.230469 L 802.234375 138.230469 L 802.234375 207.824219 L 790.644531 207.824219 L 790.644531 219.414062 Z M 697.839844 103.472656 L 686.25 103.472656 L 686.25 115.058594 L 697.839844 115.058594 Z M 663.136719 126.644531 L 651.546875 126.644531 L 651.546875 149.820312 C 659.273438 149.820312 667.003906 149.820312 674.65625 149.820312 L 674.65625 126.644531 Z M 674.65625 161.40625 L 663.066406 161.40625 L 663.066406 172.992188 L 674.65625 172.992188 Z M 732.542969 103.472656 L 732.542969 115.058594 L 744.132812 115.058594 L 744.132812 103.472656 Z M 767.242188 126.644531 L 755.652344 126.644531 L 755.652344 149.820312 L 778.761719 149.820312 L 778.761719 126.644531 Z M 755.722656 161.40625 L 755.722656 172.992188 L 767.316406 172.992188 L 767.316406 161.40625 Z M 755.722656 161.40625 " fill-opacity="1" fill-rule="evenodd"/><path fill="#333333" d="M 709.429688 358.527344 L 697.839844 358.527344 L 697.839844 404.875 L 732.542969 404.875 L 732.542969 381.699219 L 720.949219 381.699219 L 720.949219 358.527344 Z M 709.429688 358.527344 " fill-opacity="1" fill-rule="evenodd"/></svg>